<svg width="213" height="65" viewBox="0 0 213 65" fill="none" xmlns="http://www.w3.org/2000/svg">
<g filter="url(#filter0_d)">
<path d="M12 12.8651V47.6562C12 48.3969 17.6077 46.5653 27.75 45.8532C31.8155 45.3779 41.103 44.6265 59.25 44.6265C75.2079 44.6265 93.5124 45.8096 111.217 46.9539L111.23 46.9547C126.985 47.974 141.869 48.9355 153.75 48.9355C175.155 48.9355 190.807 47.2604 195.094 46.7473C196.848 46.5379 198.34 46.1931 199.389 45.7553C200.438 45.3174 200.998 44.8053 201 44.2818V14.7436C201 14.3436 200.638 13.9499 199.946 13.5976C199.255 13.2452 198.255 12.9451 197.037 12.724C195.819 12.503 194.42 12.3679 192.964 12.3307C191.509 12.2935 190.042 12.3554 188.695 12.511C177.636 13.7897 165.757 14.4534 153.75 14.4635C144.423 14.4635 130.676 13.1344 116.122 11.7273L116.084 11.7236C98.0203 9.97801 77.5514 8 59.25 8C35.812 8 23.8125 9.12842 17.857 10.0751C16.0751 10.3597 14.5968 10.767 13.5692 11.2565C12.5416 11.746 12.0006 12.3006 12 12.8651Z" fill="#3D4F91"/>
</g>
<defs>
<filter id="filter0_d" x="0" y="0" width="213" height="64.9355" filterUnits="userSpaceOnUse" color-interpolation-filters="sRGB">
<feFlood flood-opacity="0" result="BackgroundImageFix"/>
<feColorMatrix in="SourceAlpha" type="matrix" values="0 0 0 0 0 0 0 0 0 0 0 0 0 0 0 0 0 0 127 0"/>
<feOffset dy="4"/>
<feGaussianBlur stdDeviation="6"/>
<feColorMatrix type="matrix" values="0 0 0 0 0 0 0 0 0 0 0 0 0 0 0 0 0 0 0.25 0"/>
<feBlend mode="normal" in2="BackgroundImageFix" result="effect1_dropShadow"/>
<feBlend mode="normal" in="SourceGraphic" in2="effect1_dropShadow" result="shape"/>
</filter>
</defs>
</svg>
