<svg width="736" height="485" viewBox="0 0 736 485" fill="none" xmlns="http://www.w3.org/2000/svg">
<g clip-path="url(#clip0)" filter="url(#filter0_i)">
<path d="M480.347 211.566C479.499 216.025 478.482 220.44 477.295 224.809C477.167 225.316 477.023 225.816 476.879 226.323H460.38C458.974 226.325 457.627 226.884 456.633 227.877C455.64 228.871 455.081 230.218 455.079 231.624V278.661C454.579 279.592 454.072 280.516 453.565 281.44C450.945 286.21 448.219 290.927 445.432 295.584C399.995 371.271 336.623 434.606 260.911 480L265.394 469.884C263.75 469.77 262.1 469.657 260.457 469.543C224.679 467.097 188.78 464.387 153.843 456.345C117.293 447.933 81.5382 433.341 52.8933 409.149C24.2407 384.949 3.23616 350.39 0.320866 313C-0.651227 300.15 0.648385 287.229 4.1601 274.829C10.8762 250.963 25.551 229.488 46.7222 216.783C79.9783 196.83 123.358 200.897 158.416 217.494C193.467 234.085 221.999 261.548 249.856 288.535C221.73 240.303 182.569 199.427 135.587 169.261C120.019 159.296 103.497 150.422 90.2611 137.512C77.0327 124.609 67.2723 106.519 69.6123 88.1876C72.2699 67.3949 89.2995 51.6149 106.359 39.4468C113.174 34.5855 120.208 29.9742 127.462 25.7339C147.929 13.7399 170.07 4.69134 193.452 1.33695C225.126 -3.21381 259.336 3.69184 283.619 24.5299C310.977 48.0107 322.198 85.8781 321.131 122.103C337.986 97.5996 363.981 78.8438 393.337 78.0487C423.814 77.2309 452.785 96.4865 468.05 122.882C483.308 149.271 486.048 181.618 480.347 211.566Z" fill="#E6E6E6"/>
<path d="M287.52 313.329C305.371 311.757 321.861 309.921 339.158 305.026C355.925 300.281 372.06 292.339 383.996 279.37C396.834 265.422 403.764 247.306 408.653 229.273C411.379 219.219 413.619 209.024 415.733 198.826C418.026 187.761 420.064 176.647 421.846 165.484C425.393 143.264 427.925 120.913 429.443 98.4316C429.626 95.7027 429.794 92.9728 429.947 90.2419C430.042 88.5573 427.422 88.5627 427.327 90.2419C426.08 112.402 423.838 134.477 420.599 156.465C417.404 178.067 413.315 199.577 408.127 220.792C403.732 238.766 398.041 257.019 386.769 271.981C376.199 286.011 360.932 295.18 344.448 300.662C327.674 306.24 309.987 308.467 292.459 310.123C290.309 310.326 289.672 310.52 287.52 310.709C285.854 310.856 285.838 313.477 287.52 313.329L287.52 313.329Z" fill="white"/>
<path d="M5.67225 276.762C28.1941 278.012 50.4869 281.94 72.0792 288.464C93.6807 294.975 114.439 304.011 133.924 315.384C152.752 326.382 170.23 339.542 186.004 354.596C201.313 369.215 214.957 385.483 226.687 403.104C238.47 420.769 248.234 439.699 255.798 459.54C256.72 461.968 257.609 464.409 258.463 466.862C259.015 468.444 261.547 467.764 260.99 466.166C253.913 445.906 244.585 426.504 233.179 408.326C221.775 390.146 208.392 373.286 193.274 358.054C177.914 342.587 160.819 328.944 142.33 317.399C103.507 293.216 59.5023 278.586 13.9283 274.711C11.1792 274.481 8.42721 274.291 5.67228 274.142C3.98751 274.05 3.99269 276.67 5.67228 276.762L5.67225 276.762Z" fill="white"/>
<path d="M128.17 28.805C142.57 33.3848 156.22 40.0547 168.681 48.6014C181.415 57.3941 193.028 67.7077 203.264 79.3135C214.05 91.5223 223.64 104.738 231.901 118.779C240.663 133.605 248.276 149.081 254.67 165.071C261.255 181.488 266.793 198.305 271.251 215.421C275.784 232.741 279.324 250.305 281.854 268.027C284.372 285.562 285.896 303.226 286.418 320.932C286.945 337.864 286.444 354.812 284.919 371.683C283.525 387.423 280.978 403.04 277.3 418.407C274.033 432.287 269.429 445.817 263.553 458.809C262.191 461.757 260.747 464.665 259.22 467.532C258.427 469.02 260.688 470.345 261.482 468.854C267.976 456.445 273.161 443.394 276.955 429.912C281.211 414.904 284.295 399.588 286.182 384.102C288.272 367.301 289.291 350.384 289.23 333.453C289.193 315.667 288.134 297.897 286.059 280.232C283.984 262.346 280.902 244.591 276.829 227.052C272.766 209.484 267.612 192.187 261.396 175.26C255.406 158.874 248.234 142.945 239.936 127.598C232.033 112.953 222.823 99.0526 212.419 86.0652C202.537 73.6992 191.257 62.5201 178.802 52.7513C166.792 43.3599 153.521 35.7047 139.378 30.0107C135.922 28.6351 132.418 27.3911 128.867 26.2787C127.254 25.7715 126.565 28.3 128.17 28.805H128.17Z" fill="white"/>
<path d="M283.574 484.528C387.076 484.528 470.981 481.138 470.981 476.956C470.981 472.774 387.076 469.384 283.574 469.384C180.072 469.384 96.1675 472.774 96.1675 476.956C96.1675 481.138 180.072 484.528 283.574 484.528Z" fill="#E6E6E6"/>
<path d="M449.15 239.793C449.057 240.202 448.996 240.617 448.968 241.035L416.441 259.8L408.535 255.249L400.106 266.283L417.02 278.338L454.129 249.062C455.642 249.623 457.29 249.709 458.854 249.309C460.418 248.91 461.823 248.044 462.882 246.826C463.941 245.609 464.605 244.098 464.785 242.494C464.965 240.89 464.652 239.27 463.888 237.848C463.124 236.426 461.946 235.271 460.51 234.535C459.073 233.8 457.447 233.519 455.847 233.73C454.247 233.941 452.749 234.634 451.553 235.717C450.357 236.801 449.518 238.222 449.15 239.793Z" fill="#FFB8B8"/>
<path d="M375.071 251.306L400.682 269.56L412.137 255.198L387.24 235.221C386.169 234.362 384.934 233.73 383.61 233.365C382.286 232.999 380.902 232.908 379.542 233.097C378.181 233.285 376.874 233.749 375.699 234.461C374.525 235.172 373.508 236.116 372.711 237.235C371.158 239.414 370.534 242.12 370.976 244.759C371.419 247.398 372.892 249.753 375.071 251.306Z" fill="#3D4F91"/>
<path d="M322.202 459.587L331.183 461.939L344.532 428.423L331.279 424.95L322.202 459.587Z" fill="#FFB8B8"/>
<path d="M346.316 474.816L318.094 467.421L320.951 456.517L338.269 461.055C341.161 461.813 343.634 463.688 345.143 466.269C346.652 468.85 347.074 471.924 346.316 474.816Z" fill="#2F2E41"/>
<path d="M402.028 465.981L411.167 464.348L409.219 428.323L395.732 430.732L402.028 465.981Z" fill="#FFB8B8"/>
<path d="M430.307 469.686L401.586 474.816L399.604 463.719L417.228 460.571C418.685 460.311 420.18 460.34 421.626 460.657C423.072 460.975 424.441 461.573 425.655 462.42C426.87 463.266 427.906 464.343 428.704 465.59C429.502 466.837 430.047 468.229 430.307 469.686Z" fill="#2F2E41"/>
<path d="M384.034 201.042C386.286 201.591 388.118 203.885 389.218 206.543C390.233 209.335 390.92 212.236 391.265 215.186C392.13 220.681 392.96 226.63 391.172 231.719C389.076 237.684 383.493 240.808 378.649 239.34C373.805 237.871 369.953 232.361 368.637 226.017C367.439 219.608 368.211 212.986 370.851 207.024C372.227 203.891 374.124 201.001 376.644 199.588C377.88 198.84 379.354 198.588 380.768 198.883C382.183 199.178 383.433 199.997 384.268 201.176" fill="#2F2E41"/>
<path d="M396.776 300.529L414.174 456.356L399.804 461.812L373.303 357.319L336.406 452.86L320.677 453.734C320.677 453.734 342.257 305.072 358.251 301.693L396.776 300.529Z" fill="#2F2E41"/>
<path d="M382.162 220.929C392.433 220.929 400.76 212.603 400.76 202.331C400.76 192.06 392.433 183.734 382.162 183.734C371.891 183.734 363.564 192.06 363.564 202.331C363.564 212.603 371.891 220.929 382.162 220.929Z" fill="#FFB8B8"/>
<path d="M390.144 228.731L370.046 226.11C370.046 226.11 356.939 241.838 357.813 268.926C358.687 296.014 355.628 304.315 355.628 304.315L397.532 305.072C391.475 296.743 416.811 248.905 390.144 228.731Z" fill="#3D4F91"/>
<path d="M400.94 308.858C400.521 308.861 400.103 308.897 399.689 308.966L373.979 281.596L376.6 272.858L363.93 267.178L356.065 286.402L393.056 315.826C392.857 317.428 393.151 319.052 393.897 320.482C394.644 321.913 395.809 323.082 397.236 323.835C398.664 324.588 400.286 324.888 401.889 324.696C403.491 324.504 404.997 323.829 406.206 322.76C407.415 321.691 408.271 320.28 408.658 318.713C409.045 317.146 408.947 315.499 408.375 313.99C407.803 312.481 406.786 311.181 405.458 310.265C404.129 309.348 402.554 308.857 400.94 308.858Z" fill="#FFB8B8"/>
<path d="M372.78 239.38L360.872 268.489L377.474 276.353L391.223 247.545C391.814 246.306 392.147 244.959 392.199 243.587C392.252 242.214 392.024 240.846 391.529 239.565C391.034 238.284 390.283 237.117 389.322 236.136C388.36 235.156 387.209 234.382 385.938 233.862C384.712 233.36 383.399 233.105 382.074 233.111C380.749 233.117 379.438 233.383 378.216 233.896C376.994 234.408 375.885 235.156 374.953 236.097C374.02 237.038 373.282 238.153 372.78 239.38Z" fill="#3D4F91"/>
<path d="M377.297 219.239C380.211 217.558 380.522 213.503 380.126 210.162C379.73 206.821 379.069 203.097 381.032 200.365C383.376 197.105 388.085 197.04 392.099 196.934C396.112 196.827 401 195.652 402.04 191.774C402.727 189.212 401.257 186.462 399.147 184.853C397.037 183.245 394.398 182.533 391.832 181.858C386.093 180.346 380.167 178.821 374.291 179.652C368.47 180.475 363.208 183.557 359.642 188.23C356.077 192.904 354.494 198.793 355.238 204.624C356.189 212.084 357.568 215.341 356.663 218.63C354.976 224.756 347.705 228.691 347.56 235.043C347.446 240.012 351.835 243.845 356.117 246.368C359.514 248.369 363.179 250.067 367.094 250.536C371.008 251.004 375.222 250.107 378.138 247.454C381.899 244.032 382.829 238.316 381.751 233.347C380.672 228.378 377.906 223.966 375.169 219.68" fill="#2F2E41"/>
<path d="M729.185 224.809H460.38C458.573 224.812 456.841 225.53 455.564 226.808C454.287 228.085 453.568 229.817 453.565 231.624V404.265C453.568 406.071 454.287 407.803 455.564 409.081C456.841 410.358 458.573 411.077 460.38 411.08H729.185C730.992 411.077 732.724 410.358 734.001 409.081C735.278 407.803 735.997 406.071 736 404.265V231.624C735.997 229.817 735.278 228.085 734.001 226.808C732.724 225.53 730.992 224.812 729.185 224.809ZM734.486 404.265C734.484 405.67 733.925 407.017 732.931 408.011C731.938 409.005 730.59 409.564 729.185 409.565H460.38C458.974 409.564 457.627 409.005 456.634 408.011C455.64 407.017 455.081 405.67 455.079 404.265V231.624C455.081 230.218 455.64 228.871 456.634 227.877C457.627 226.884 458.974 226.325 460.38 226.323H729.185C730.59 226.325 731.938 226.884 732.931 227.877C733.925 228.871 734.484 230.218 734.486 231.624V404.265Z" fill="#3F3D56"/>
<path d="M517.756 310.748H475.353C473.647 310.745 472.011 310.067 470.804 308.86C469.598 307.654 468.919 306.018 468.917 304.311V261.908C468.919 260.202 469.598 258.566 470.804 257.359C472.011 256.153 473.647 255.474 475.353 255.472H517.756C519.463 255.474 521.099 256.153 522.305 257.359C523.512 258.566 524.19 260.202 524.192 261.908V304.311C524.19 306.018 523.512 307.654 522.305 308.86C521.099 310.067 519.463 310.745 517.756 310.748Z" fill="#3D4F91"/>
<path d="M715.185 355.808H474.396C473.091 355.808 471.839 355.289 470.916 354.366C469.993 353.443 469.474 352.191 469.474 350.886C469.474 349.581 469.993 348.329 470.916 347.406C471.839 346.483 473.091 345.964 474.396 345.964H715.185C716.49 345.964 717.742 346.483 718.665 347.406C719.588 348.329 720.107 349.581 720.107 350.886C720.107 352.191 719.588 353.443 718.665 354.366C717.742 355.289 716.49 355.808 715.185 355.808Z" fill="#CCCCCC"/>
<path d="M715.347 331.956H474.558C473.252 331.956 472 331.438 471.077 330.515C470.154 329.592 469.636 328.34 469.636 327.034C469.636 325.729 470.154 324.477 471.077 323.554C472 322.631 473.252 322.113 474.558 322.113H715.347C716.652 322.113 717.904 322.631 718.827 323.554C719.75 324.477 720.268 325.729 720.268 327.034C720.268 328.34 719.75 329.592 718.827 330.515C717.904 331.438 716.652 331.956 715.347 331.956Z" fill="#CCCCCC"/>
<path d="M596.467 299.389H560.878C559.573 299.389 558.321 298.871 557.398 297.948C556.475 297.025 555.957 295.773 555.957 294.467C555.957 293.162 556.475 291.91 557.398 290.987C558.321 290.064 559.573 289.546 560.878 289.546H596.467C597.772 289.546 599.024 290.064 599.947 290.987C600.87 291.91 601.388 293.162 601.388 294.467C601.388 295.773 600.87 297.025 599.947 297.948C599.024 298.871 597.772 299.389 596.467 299.389Z" fill="#CCCCCC"/>
<path d="M715.347 275.166H560.878C559.573 275.166 558.321 274.648 557.398 273.725C556.475 272.802 555.957 271.55 555.957 270.244C555.957 268.939 556.475 267.687 557.398 266.764C558.321 265.841 559.573 265.323 560.878 265.323H715.347C716.652 265.323 717.904 265.841 718.827 266.764C719.75 267.687 720.269 268.939 720.269 270.244C720.269 271.55 719.75 272.802 718.827 273.725C717.904 274.648 716.652 275.166 715.347 275.166Z" fill="#CCCCCC"/>
<path d="M590.409 380.038H474.396C473.091 380.038 471.839 379.52 470.916 378.597C469.993 377.674 469.474 376.422 469.474 375.116C469.474 373.811 469.993 372.559 470.916 371.636C471.839 370.713 473.091 370.195 474.396 370.195H590.409C591.714 370.195 592.966 370.713 593.889 371.636C594.812 372.559 595.331 373.811 595.331 375.116C595.331 376.422 594.812 377.674 593.889 378.597C592.966 379.52 591.714 380.038 590.409 380.038Z" fill="#CCCCCC"/>
</g>
<defs>
<filter id="filter0_i" x="0" y="0" width="736" height="488.528" filterUnits="userSpaceOnUse" color-interpolation-filters="sRGB">
<feFlood flood-opacity="0" result="BackgroundImageFix"/>
<feBlend mode="normal" in="SourceGraphic" in2="BackgroundImageFix" result="shape"/>
<feColorMatrix in="SourceAlpha" type="matrix" values="0 0 0 0 0 0 0 0 0 0 0 0 0 0 0 0 0 0 127 0" result="hardAlpha"/>
<feOffset dy="4"/>
<feGaussianBlur stdDeviation="2"/>
<feComposite in2="hardAlpha" operator="arithmetic" k2="-1" k3="1"/>
<feColorMatrix type="matrix" values="0 0 0 0 0.231373 0 0 0 0 0.247059 0 0 0 0 0.298039 0 0 0 0.25 0"/>
<feBlend mode="normal" in2="shape" result="effect1_innerShadow"/>
</filter>
<clipPath id="clip0">
<rect width="736" height="484.528" fill="white"/>
</clipPath>
</defs>
</svg>
