<svg width="18" height="18" viewBox="0 0 18 18" fill="none" xmlns="http://www.w3.org/2000/svg">
<path d="M11.4345 9.32973L17.3274 3.43691C17.607 3.15773 17.7643 2.77889 17.7647 2.38372C17.765 1.98856 17.6084 1.60944 17.3292 1.32976C17.05 1.05009 16.6712 0.892778 16.276 0.892429C15.8809 0.89208 15.5017 1.04873 15.2221 1.3279L9.32925 7.22072L3.43642 1.3279C3.15675 1.04823 2.77744 0.891113 2.38192 0.891113C1.9864 0.891113 1.60709 1.04823 1.32742 1.3279C1.04774 1.60758 0.890625 1.98689 0.890625 2.38241C0.890625 2.77792 1.04774 3.15724 1.32742 3.43691L7.22024 9.32973L1.32742 15.2226C1.04774 15.5022 0.890625 15.8815 0.890625 16.2771C0.890625 16.6726 1.04774 17.0519 1.32742 17.3316C1.60709 17.6112 1.9864 17.7684 2.38192 17.7684C2.77744 17.7684 3.15675 17.6112 3.43642 17.3316L9.32925 11.4387L15.2221 17.3316C15.5017 17.6112 15.8811 17.7684 16.2766 17.7684C16.6721 17.7684 17.0514 17.6112 17.3311 17.3316C17.6107 17.0519 17.7679 16.6726 17.7679 16.2771C17.7679 15.8815 17.6107 15.5022 17.3311 15.2226L11.4345 9.32973Z" fill="#F7FAFB"/>
</svg>
