<svg width="494" height="496" viewBox="0 0 494 496" fill="none" xmlns="http://www.w3.org/2000/svg">
<g clip-path="url(#clip0)" filter="url(#filter0_i)">
<path d="M108.192 192.313C91.5372 170.024 61.0546 164.645 45.9071 175.964C30.7596 187.283 27.2801 218.041 43.9351 240.329C59.3514 260.96 87.2819 266.586 102.666 258.857C102.616 259.098 102.613 259.347 102.657 259.589L103.524 263.877C103.59 264.204 103.739 264.509 103.956 264.762C104.173 265.015 104.451 265.209 104.764 265.325C105.076 265.44 105.414 265.474 105.743 265.423C106.073 265.371 106.384 265.236 106.646 265.031L113.991 259.293C114.254 259.088 114.46 258.819 114.589 258.512C114.719 258.204 114.768 257.869 114.731 257.537C114.695 257.206 114.574 256.889 114.381 256.617C114.188 256.346 113.928 256.128 113.627 255.985L109.676 254.106C109.537 254.043 109.391 253.997 109.241 253.969C121.099 241.433 123.642 212.988 108.192 192.313Z" fill="#CCCCCC"/>
<path d="M71.7606 183.898C79.9077 185.192 87.247 189.564 92.2635 196.113C97.28 202.662 99.5909 210.886 98.719 219.089C98.54 220.968 101.476 220.956 101.654 219.089C102.494 210.248 99.9598 201.416 94.5604 194.364C89.161 187.313 81.2953 182.563 72.5408 181.068C70.6934 180.754 69.8996 183.581 71.7606 183.898Z" fill="white"/>
<path d="M490.869 220.219C499.831 193.878 487.028 165.696 469.126 159.606C451.224 153.515 423.891 168.04 414.929 194.381C406.633 218.763 417.79 244.98 432.865 253.296C432.637 253.391 432.431 253.529 432.255 253.702L429.21 256.843C428.977 257.082 428.81 257.377 428.724 257.699C428.638 258.021 428.635 258.36 428.717 258.683C428.799 259.007 428.961 259.304 429.19 259.547C429.419 259.789 429.706 259.97 430.024 260.07L438.91 262.882C439.228 262.983 439.566 263.001 439.893 262.934C440.219 262.867 440.524 262.717 440.776 262.5C441.029 262.282 441.222 262.004 441.337 261.691C441.452 261.377 441.485 261.04 441.433 260.711L440.748 256.39C440.721 256.24 440.676 256.094 440.614 255.954C457.66 258.643 482.556 244.653 490.869 220.219Z" fill="#CCCCCC"/>
<path d="M477.206 185.414C480.747 192.865 481.291 201.391 478.728 209.232C476.164 217.073 470.688 223.63 463.43 227.55C461.779 228.465 463.45 230.88 465.09 229.971C472.856 225.663 478.707 218.578 481.469 210.137C484.231 201.696 483.7 192.523 479.981 184.457C479.195 182.756 476.415 183.701 477.206 185.414Z" fill="white"/>
<path d="M280.326 48.5989C279.108 20.8018 256.943 -0.804503 238.052 0.0229954C219.161 0.850494 198.97 24.3121 200.187 52.1092C201.314 77.8388 221.231 98.2128 238.297 100.485C238.12 100.657 237.977 100.861 237.877 101.086L236.18 105.118C236.05 105.425 236.002 105.76 236.038 106.092C236.075 106.423 236.196 106.74 236.389 107.012C236.583 107.283 236.843 107.501 237.144 107.644C237.445 107.787 237.778 107.851 238.111 107.829L247.411 107.222C247.744 107.2 248.066 107.093 248.346 106.912C248.626 106.731 248.855 106.482 249.011 106.187C249.168 105.893 249.247 105.563 249.24 105.23C249.233 104.896 249.141 104.57 248.973 104.282L246.765 100.505C246.686 100.375 246.591 100.255 246.483 100.147C263.341 96.4619 281.455 74.3845 280.326 48.5989Z" fill="#3D4F91"/>
<path d="M254.955 21.1349C260.96 26.7909 264.564 34.5366 265.023 42.773C265.483 51.0094 262.763 59.1079 257.424 65.3968C256.218 66.849 258.652 68.4916 259.85 67.0489C265.521 60.2143 268.399 51.4882 267.906 42.6206C267.414 33.7529 263.587 25.3994 257.193 19.2352C255.843 17.9357 253.595 19.8257 254.955 21.1349Z" fill="white"/>
<path d="M281.852 290.262C303.87 290.262 321.719 272.413 321.719 250.396C321.719 228.378 303.87 210.53 281.852 210.53C259.835 210.53 241.986 228.378 241.986 250.396C241.986 272.413 259.835 290.262 281.852 290.262Z" fill="#3D4F91"/>
<path d="M280.045 503.172H269.051C267.767 503.171 266.536 502.66 265.629 501.753C264.721 500.845 264.21 499.614 264.209 498.33V406.698C264.21 405.415 264.721 404.184 265.629 403.276C266.536 402.369 267.767 401.858 269.051 401.856H280.045C281.329 401.858 282.559 402.369 283.467 403.276C284.375 404.184 284.885 405.415 284.887 406.698V498.33C284.885 499.614 284.375 500.845 283.467 501.752C282.559 502.66 281.329 503.171 280.045 503.172Z" fill="#3D4F91"/>
<path d="M315.262 503.172H304.268C302.984 503.171 301.753 502.66 300.846 501.753C299.938 500.845 299.427 499.614 299.426 498.33V406.698C299.427 405.415 299.938 404.184 300.846 403.276C301.753 402.369 302.984 401.858 304.268 401.856H315.262C316.545 401.858 317.776 402.369 318.684 403.276C319.591 404.184 320.102 405.415 320.104 406.698V498.33C320.102 499.614 319.591 500.845 318.684 501.753C317.776 502.66 316.545 503.171 315.262 503.172Z" fill="#3D4F91"/>
<path d="M252.556 327.888L247.84 337.819C247.288 338.978 246.299 339.871 245.089 340.301C243.88 340.732 242.549 340.665 241.389 340.116L158.616 300.807C157.458 300.255 156.565 299.266 156.134 298.057C155.704 296.848 155.77 295.517 156.32 294.357L161.036 284.426C161.588 283.267 162.577 282.374 163.786 281.944C164.996 281.513 166.327 281.58 167.487 282.129L250.259 321.437C251.418 321.989 252.311 322.978 252.742 324.188C253.172 325.397 253.105 326.728 252.556 327.888Z" fill="#3D4F91"/>
<path d="M265.029 333.211C265.263 334.339 265.083 335.514 264.523 336.52L259.21 346.145C258.588 347.268 257.546 348.098 256.313 348.454C255.079 348.81 253.755 348.663 252.631 348.044L213.734 330.897C212.611 330.275 211.78 329.233 211.424 328C211.068 326.766 211.216 325.442 211.836 324.318L211.836 324.317L221.583 306.083C221.89 305.527 222.304 305.036 222.801 304.639C223.298 304.243 223.868 303.948 224.479 303.771C225.09 303.595 225.73 303.541 226.361 303.612C226.993 303.683 227.605 303.878 228.162 304.185L263.096 327.278C264.228 327.903 264.578 331.595 264.937 332.837C264.973 332.961 265.003 333.086 265.029 333.211Z" fill="#2F2E41"/>
<path d="M312.853 321.437L395.626 282.129C396.786 281.58 398.116 281.513 399.326 281.944C400.535 282.374 401.524 283.267 402.076 284.426L406.792 294.357C407.342 295.517 407.408 296.848 406.978 298.057C406.547 299.266 405.655 300.255 404.496 300.807L321.723 340.116C320.563 340.665 319.232 340.732 318.023 340.301C316.814 339.871 315.824 338.978 315.272 337.819L310.556 327.888C310.007 326.728 309.94 325.397 310.371 324.188C310.801 322.978 311.694 321.989 312.853 321.437Z" fill="#3D4F91"/>
<path d="M298.176 332.837C298.535 331.595 298.885 327.903 300.018 327.278L334.952 304.185C335.508 303.878 336.12 303.683 336.752 303.612C337.384 303.541 338.023 303.595 338.634 303.771C339.245 303.948 339.815 304.243 340.312 304.639C340.809 305.036 341.223 305.527 341.53 306.083L351.277 324.317L351.277 324.318C351.897 325.442 352.045 326.766 351.689 328C351.333 329.233 350.503 330.275 349.38 330.897L310.483 348.044C309.358 348.663 308.034 348.81 306.8 348.454C305.567 348.098 304.525 347.268 303.903 346.145L298.59 336.52C298.03 335.514 297.851 334.339 298.084 333.211C298.11 333.086 298.14 332.961 298.176 332.837Z" fill="#2F2E41"/>
<path d="M276.547 265.172L276.506 263.682C279.277 263.605 281.721 263.431 283.557 262.089C284.077 261.688 284.505 261.178 284.811 260.596C285.117 260.014 285.295 259.373 285.331 258.716C285.363 258.315 285.302 257.912 285.153 257.538C285.004 257.164 284.771 256.829 284.472 256.56C283.253 255.531 281.292 255.864 279.863 256.519L278.63 257.085L280.994 239.81L282.47 240.013L280.459 254.707C281.282 254.401 282.169 254.307 283.037 254.432C283.906 254.557 284.73 254.897 285.434 255.423C285.907 255.836 286.278 256.353 286.519 256.933C286.759 257.514 286.862 258.142 286.82 258.769C286.776 259.651 286.54 260.513 286.128 261.295C285.717 262.076 285.139 262.758 284.436 263.293C282.077 265.017 279.011 265.103 276.547 265.172Z" fill="#2F2E41"/>
<path d="M297.793 241.28H289.77V242.769H297.793V241.28Z" fill="#2F2E41"/>
<path d="M272.469 241.28H264.445V242.769H272.469V241.28Z" fill="#2F2E41"/>
<path d="M295.6 308.895H297.207C297.85 308.896 298.487 308.77 299.081 308.524C299.675 308.279 300.215 307.919 300.67 307.465C301.125 307.01 301.486 306.471 301.732 305.877C301.978 305.283 302.105 304.647 302.105 304.004C302.105 303.361 301.978 302.724 301.732 302.131C301.486 301.537 301.125 300.997 300.67 300.543C300.215 300.089 299.675 299.729 299.081 299.483C298.487 299.238 297.85 299.112 297.207 299.113H265.904C264.608 299.114 263.365 299.63 262.449 300.547C261.533 301.465 261.019 302.708 261.019 304.004C261.019 305.3 261.533 306.543 262.449 307.46C263.365 308.377 264.608 308.893 265.904 308.895H268.844C243.722 320.325 227.602 362.546 227.602 388.857C227.602 419.507 249.723 429.394 282.223 429.394C314.723 429.394 345.295 419.507 345.295 388.857C345.294 362.546 322.588 320.325 295.6 308.895Z" fill="#2F2E41"/>
<path d="M280.215 227.628C279.244 224.676 275.74 223.77 273.043 224.884C269.88 226.19 268.087 229.424 265.033 230.954C259.539 233.704 252.251 232.227 248.062 227.818C243.482 222.997 242.58 215.474 244.885 209.387C247.269 203.092 253.182 198.536 259.514 196.686C267.928 194.227 276.955 196.483 284.242 201.019C284.437 201.13 284.654 201.195 284.878 201.21C285.101 201.224 285.325 201.188 285.533 201.104C285.74 201.019 285.926 200.889 286.076 200.722C286.225 200.556 286.336 200.357 286.398 200.142C288.401 192.486 297.046 190.257 303.992 191.078C310.848 192.023 317.371 194.625 322.993 198.661C333.852 206.237 341.508 218.578 342.58 231.863C343.095 238.697 342.111 245.56 339.696 251.973C337.28 258.386 333.493 264.193 328.598 268.989C326.149 271.351 323.297 273.209 320.801 275.511C318.528 277.608 316.287 280.367 316.332 283.631C316.436 291.136 326.313 293.206 332.158 293.431C339.413 293.756 346.538 291.426 352.201 286.879C357.864 282.331 361.677 275.877 362.927 268.722C363.238 266.981 363.4 265.216 363.409 263.446C363.418 261.558 360.483 261.555 360.474 263.446C360.419 270.579 357.613 277.415 352.64 282.528C350.084 285.092 347.041 287.12 343.691 288.492C340.341 289.864 336.75 290.553 333.129 290.518C328.463 290.495 315.821 288.283 320.058 280.902C321.715 278.016 324.688 276.051 327.25 274.042C329.916 271.948 332.336 269.558 334.465 266.92C338.753 261.625 341.914 255.509 343.753 248.949C345.592 242.388 346.071 235.521 345.16 228.769C343.269 215.535 335.245 203.578 324.329 196.026C313.937 188.836 294.727 182.478 285.644 194.934C284.682 196.268 283.977 197.769 283.568 199.362L285.723 198.485C278.702 194.115 270.333 191.848 262.081 193.112C258.529 193.648 255.124 194.902 252.074 196.799C249.023 198.695 246.392 201.194 244.34 204.142C242.374 207.108 241.17 210.513 240.836 214.055C240.502 217.598 241.048 221.168 242.426 224.449C243.775 227.591 246 230.28 248.834 232.194C251.669 234.108 254.994 235.167 258.414 235.244C262.117 235.393 265.76 234.278 268.745 232.082C270.417 230.807 271.701 229.003 273.511 227.917C274.547 227.296 276.876 226.859 277.386 228.408C277.973 230.194 280.808 229.429 280.215 227.628V227.628Z" fill="#2F2E41"/>
<path d="M346.729 82.7534C354.01 83.2121 361.08 85.39 367.357 89.1084C373.635 92.8269 378.942 97.9802 382.843 104.146C383.937 105.894 385.364 107.814 384.607 109.966C384.343 110.791 383.808 111.502 383.088 111.983C382.367 112.464 381.505 112.686 380.642 112.614C378.411 112.342 376.971 110.159 376.696 108.067C376.384 105.695 378.058 103.832 380.125 102.95C385.175 100.796 390.27 104.125 394.384 106.782C403.758 112.837 414.068 118.312 425.427 119.002C435.936 119.64 447.205 115.52 453.051 106.406C454.073 104.812 451.534 103.339 450.517 104.925C444.719 113.963 433 117.21 422.81 115.813C416.738 114.854 410.874 112.864 405.474 109.927C402.673 108.473 399.957 106.862 397.295 105.168C394.763 103.401 392.078 101.862 389.273 100.57C384.596 98.6483 378.404 98.7984 375.137 103.222C372.088 107.349 374.444 114.22 379.542 115.381C384.374 116.48 388.607 111.936 387.612 107.185C387.103 104.755 385.273 102.376 383.857 100.39C379.601 94.4024 374.055 89.4461 367.63 85.8859C361.204 82.3257 354.062 80.2524 346.728 79.8186C344.841 79.7253 344.846 82.6602 346.728 82.7534L346.729 82.7534Z" fill="#CCCCCC"/>
<path d="M106.56 128.846C99.2784 128.388 92.209 126.21 85.9314 122.491C79.6538 118.773 74.3468 113.62 70.4454 107.454C69.3521 105.706 67.9248 103.785 68.6817 101.634C68.9453 100.809 69.481 100.098 70.2012 99.617C70.9214 99.136 71.7835 98.9135 72.6465 98.986C74.8781 99.2576 76.3181 101.441 76.593 103.532C76.9049 105.905 75.2309 107.768 73.1642 108.65C68.1138 110.804 63.0184 107.475 58.9045 104.817C49.5308 98.7631 39.2205 93.2877 27.8621 92.5977C17.353 91.9594 6.08353 96.08 0.238198 105.193C-0.784464 106.788 1.75469 108.261 2.77228 106.675C8.56944 97.6363 20.2888 94.3902 30.4786 95.7871C36.551 96.7454 42.4145 98.7361 47.8151 101.673C50.6159 103.127 53.3323 104.738 55.9937 106.432C58.5263 108.199 61.2107 109.738 64.0154 111.03C68.6929 112.952 74.8849 112.801 78.1522 108.378C81.2003 104.25 78.8447 97.3795 73.7465 96.2192C68.915 95.1196 64.6823 99.6636 65.6767 104.415C66.1853 106.845 68.0154 109.223 69.432 111.21C73.6882 117.197 79.2333 122.154 85.659 125.714C92.0847 129.274 99.2272 131.347 106.56 131.781C108.448 131.874 108.443 128.94 106.56 128.846L106.56 128.846Z" fill="#CCCCCC"/>
</g>
<defs>
<filter id="filter0_i" x="0" y="0" width="493.805" height="507.146" filterUnits="userSpaceOnUse" color-interpolation-filters="sRGB">
<feFlood flood-opacity="0" result="BackgroundImageFix"/>
<feBlend mode="normal" in="SourceGraphic" in2="BackgroundImageFix" result="shape"/>
<feColorMatrix in="SourceAlpha" type="matrix" values="0 0 0 0 0 0 0 0 0 0 0 0 0 0 0 0 0 0 127 0" result="hardAlpha"/>
<feOffset dy="3.13053"/>
<feGaussianBlur stdDeviation="1.56526"/>
<feComposite in2="hardAlpha" operator="arithmetic" k2="-1" k3="1"/>
<feColorMatrix type="matrix" values="0 0 0 0 0 0 0 0 0 0 0 0 0 0 0 0 0 0 0.25 0"/>
<feBlend mode="normal" in2="shape" result="effect1_innerShadow"/>
</filter>
<clipPath id="clip0">
<rect width="493.805" height="504.015" fill="white"/>
</clipPath>
</defs>
</svg>
