<svg width="14" height="25" viewBox="0 0 14 25" fill="none" xmlns="http://www.w3.org/2000/svg">
<path d="M12.5625 18.4535C12.9485 17.1015 13.2039 15.5306 13.3012 14.0225C13.3034 13.9831 13.2974 13.9436 13.2837 13.9066C13.27 13.8696 13.2488 13.8359 13.2215 13.8074C13.1942 13.7789 13.1613 13.7563 13.1249 13.7411C13.0885 13.7259 13.0494 13.7182 13.0099 13.7188H8.36856C8.33057 13.7184 8.29287 13.7256 8.25763 13.7398C8.2224 13.754 8.19031 13.775 8.16319 13.8016C8.13608 13.8283 8.11448 13.86 8.09962 13.895C8.08477 13.9299 8.07694 13.9675 8.0766 14.0055V17.6175C8.07742 17.6904 8.10571 17.7604 8.15583 17.8134C8.20595 17.8664 8.27421 17.8986 8.34701 17.9035C9.65498 18.0092 10.9473 18.2587 12.2007 18.6475C12.2744 18.6697 12.3539 18.6617 12.4217 18.6253C12.4895 18.589 12.5402 18.5272 12.5625 18.4535ZM11.441 20.5972C10.4467 20.3069 9.42786 20.1081 8.3973 20.0035C8.3575 19.999 8.3172 20.0029 8.27897 20.0148C8.24075 20.0268 8.20543 20.0466 8.17527 20.073C8.14511 20.0993 8.12076 20.1317 8.10377 20.1679C8.08678 20.2042 8.07753 20.2436 8.0766 20.2837V24.5449C8.07817 24.5957 8.09298 24.6452 8.11958 24.6886C8.14618 24.7319 8.18364 24.7676 8.22825 24.792C8.27286 24.8164 8.32307 24.8288 8.37392 24.8278C8.42476 24.8268 8.47448 24.8126 8.51814 24.7865C9.55666 24.1811 10.4123 23.1641 11.1856 21.8192C11.3124 21.5998 11.505 21.2216 11.6213 20.9904C11.6394 20.9532 11.649 20.9125 11.6494 20.8711C11.6499 20.8298 11.6412 20.7888 11.6239 20.7512C11.6067 20.7137 11.5814 20.6804 11.5497 20.6537C11.5181 20.6271 11.481 20.6078 11.441 20.5972ZM5.67428 20.0152C4.64499 20.1131 3.62696 20.306 2.63317 20.5913C2.46074 20.6409 2.38823 20.8787 2.46661 21.0348C2.58353 21.2673 2.72788 21.5645 2.85133 21.7866C3.70043 23.2888 4.60441 24.2359 5.54495 24.7865C5.58861 24.8126 5.63833 24.8268 5.68918 24.8278C5.74002 24.8288 5.79024 24.8164 5.83485 24.792C5.87946 24.7676 5.91691 24.7319 5.94351 24.6886C5.97011 24.6452 5.98493 24.5957 5.98649 24.5449V20.2817C5.98618 20.2428 5.97751 20.2044 5.96106 20.1691C5.94462 20.1338 5.92079 20.1025 5.89119 20.0772C5.86158 20.052 5.8269 20.0333 5.78947 20.0226C5.75205 20.0119 5.71277 20.0094 5.67428 20.0152ZM5.69453 13.7188H1.05318C1.01378 13.7183 0.974697 13.7258 0.938348 13.741C0.902 13.7563 0.869157 13.7788 0.841852 13.8072C0.814548 13.8356 0.793362 13.8693 0.779604 13.9062C0.765846 13.9431 0.75981 13.9825 0.761868 14.0218C0.858535 15.528 1.11261 17.1021 1.49733 18.4529C1.50824 18.4898 1.52637 18.5243 1.55069 18.5542C1.575 18.5841 1.60501 18.6088 1.63897 18.6271C1.67293 18.6453 1.71017 18.6566 1.74853 18.6603C1.78689 18.6641 1.82561 18.6601 1.86244 18.6488C3.11567 18.26 4.40809 18.0112 5.71608 17.9068C5.78899 17.902 5.85742 17.8699 5.90768 17.8169C5.95793 17.7638 5.98631 17.6938 5.98714 17.6207V14.0061C5.98689 13.968 5.97911 13.9304 5.96425 13.8953C5.94939 13.8602 5.92774 13.8284 5.90055 13.8016C5.87336 13.7749 5.84116 13.7539 5.80581 13.7396C5.77045 13.7254 5.73264 13.7183 5.69453 13.7188ZM8.39861 5.34394C9.42848 5.24744 10.446 5.04743 11.4358 4.74695C11.4755 4.73621 11.5124 4.71687 11.5438 4.6903C11.5753 4.66374 11.6005 4.63058 11.6177 4.5932C11.6349 4.55581 11.6436 4.5151 11.6434 4.47395C11.6431 4.4328 11.6338 4.39221 11.6161 4.35506C11.4992 4.12188 11.3372 3.78811 11.2131 3.56539C10.4103 2.12844 9.50572 1.12584 8.51944 0.560852C8.47575 0.534978 8.42607 0.520921 8.3753 0.520061C8.32453 0.519202 8.2744 0.531571 8.22986 0.555953C8.18531 0.580334 8.14788 0.615888 8.12124 0.659119C8.0946 0.70235 8.07966 0.751771 8.07791 0.802521V5.06308C8.07885 5.10315 8.0881 5.14258 8.10508 5.17889C8.12206 5.21519 8.14639 5.24757 8.17655 5.27398C8.2067 5.30038 8.242 5.32024 8.28023 5.33228C8.31846 5.34432 8.35877 5.34829 8.39861 5.34394ZM8.36856 11.6286H13.0099C13.049 11.6293 13.0878 11.622 13.124 11.6071C13.1602 11.5922 13.1929 11.57 13.2202 11.542C13.2475 11.514 13.2687 11.4807 13.2827 11.4441C13.2966 11.4076 13.3029 11.3686 13.3012 11.3295C13.2046 9.84225 12.957 8.20739 12.5723 6.87364C12.561 6.83697 12.5427 6.80288 12.5182 6.77333C12.4937 6.74378 12.4637 6.71936 12.4298 6.70146C12.3958 6.68355 12.3587 6.67253 12.3205 6.66901C12.2823 6.66549 12.2438 6.66955 12.2072 6.68096C10.9662 7.05587 9.67358 7.3622 8.34766 7.46475C8.2752 7.46886 8.20698 7.50024 8.1567 7.55258C8.10642 7.60492 8.0778 7.67435 8.0766 7.74691V11.3465C8.07798 11.4226 8.10949 11.495 8.16423 11.5479C8.21896 11.6008 8.29245 11.6299 8.36856 11.6286ZM5.54495 0.561505C4.53778 1.12126 3.63969 2.15717 2.8363 3.59021C2.71155 3.81293 2.56263 4.11992 2.44441 4.35244C2.42683 4.38961 2.41761 4.43018 2.41739 4.4713C2.41717 4.51241 2.42596 4.55308 2.44315 4.59043C2.46033 4.62779 2.48549 4.66092 2.51685 4.68751C2.54821 4.7141 2.58502 4.7335 2.62468 4.74434C3.61406 5.05034 4.63297 5.2511 5.66448 5.34329C5.70427 5.34764 5.74453 5.34368 5.78271 5.33168C5.82089 5.31968 5.85617 5.29988 5.88631 5.27355C5.91645 5.24721 5.9408 5.21491 5.95782 5.17868C5.97484 5.14246 5.98416 5.10309 5.98518 5.06308V0.803175C5.98312 0.752697 5.96805 0.703608 5.94144 0.660666C5.91483 0.617724 5.87757 0.582385 5.83329 0.558073C5.789 0.533762 5.73919 0.521304 5.68867 0.521905C5.63815 0.522506 5.58865 0.536147 5.54495 0.561505ZM5.71543 7.4654C4.38952 7.36416 3.09561 7.05783 1.85591 6.68161C1.81929 6.6702 1.78077 6.66614 1.74257 6.66966C1.70438 6.67318 1.66725 6.68421 1.63333 6.70211C1.5994 6.72001 1.56935 6.74444 1.54489 6.77399C1.52043 6.80353 1.50205 6.83762 1.49079 6.87429C1.10608 8.20804 0.858535 9.8429 0.761868 11.3301C0.76017 11.3692 0.766483 11.4082 0.780419 11.4448C0.794356 11.4813 0.815621 11.5146 0.842907 11.5426C0.870193 11.5707 0.902923 11.5928 0.939084 11.6077C0.975245 11.6226 1.01407 11.63 1.05318 11.6293H5.69453C5.73233 11.6299 5.76987 11.623 5.80501 11.6091C5.84015 11.5952 5.8722 11.5745 5.89932 11.5481C5.92644 11.5218 5.9481 11.4904 5.96306 11.4557C5.97802 11.4209 5.98598 11.3836 5.98649 11.3458V7.74757C5.98529 7.675 5.95667 7.60557 5.90639 7.55323C5.85611 7.50089 5.78789 7.46952 5.71543 7.4654Z" fill="#3B3F4C"/>
</svg>
