<svg width="234" height="234" viewBox="0 0 234 234" fill="none" xmlns="http://www.w3.org/2000/svg">
<path d="M161.03 162.973C164.101 152.219 166.132 139.724 166.906 127.728C166.923 127.415 166.876 127.101 166.767 126.807C166.658 126.513 166.489 126.244 166.272 126.017C166.055 125.791 165.793 125.611 165.504 125.49C165.214 125.369 164.903 125.308 164.589 125.312H127.671C127.369 125.31 127.069 125.366 126.789 125.48C126.509 125.593 126.253 125.76 126.038 125.972C125.822 126.183 125.65 126.436 125.532 126.714C125.414 126.992 125.352 127.291 125.349 127.593V156.323C125.355 156.903 125.58 157.46 125.979 157.882C126.378 158.303 126.921 158.559 127.5 158.599C137.904 159.439 148.183 161.424 158.152 164.516C158.738 164.692 159.371 164.629 159.91 164.34C160.45 164.05 160.853 163.559 161.03 162.973ZM152.11 180.024C144.201 177.715 136.097 176.134 127.9 175.302C127.583 175.266 127.263 175.297 126.959 175.392C126.655 175.487 126.374 175.645 126.134 175.854C125.894 176.064 125.7 176.321 125.565 176.61C125.43 176.898 125.356 177.212 125.349 177.53V211.425C125.361 211.829 125.479 212.223 125.691 212.568C125.902 212.913 126.2 213.196 126.555 213.39C126.91 213.584 127.309 213.683 127.714 213.675C128.118 213.667 128.514 213.554 128.861 213.347C137.121 208.531 143.927 200.442 150.079 189.745C151.086 187.999 152.619 184.991 153.544 183.152C153.687 182.856 153.764 182.532 153.767 182.203C153.771 181.874 153.702 181.549 153.565 181.25C153.428 180.951 153.226 180.686 152.975 180.474C152.723 180.262 152.428 180.108 152.11 180.024ZM106.241 175.395C98.0534 176.174 89.9559 177.708 82.0512 179.977C80.6796 180.372 80.1029 182.263 80.7264 183.505C81.6563 185.355 82.8045 187.718 83.7864 189.485C90.5403 201.434 97.7306 208.967 105.212 213.347C105.559 213.554 105.955 213.667 106.359 213.675C106.763 213.683 107.163 213.584 107.518 213.39C107.873 213.196 108.17 212.913 108.382 212.568C108.594 212.223 108.711 211.829 108.724 211.425V177.515C108.721 177.205 108.652 176.9 108.522 176.619C108.391 176.339 108.201 176.089 107.966 175.888C107.73 175.687 107.454 175.539 107.157 175.454C106.859 175.369 106.547 175.349 106.241 175.395ZM106.402 125.312H69.4837C69.1703 125.308 68.8595 125.369 68.5703 125.49C68.2812 125.611 68.02 125.79 67.8028 126.016C67.5856 126.241 67.4171 126.51 67.3077 126.803C67.1982 127.097 67.1502 127.41 67.1666 127.723C67.9355 139.703 69.9565 152.224 73.0165 162.968C73.1033 163.262 73.2476 163.536 73.441 163.774C73.6344 164.012 73.873 164.209 74.1431 164.354C74.4133 164.499 74.7095 164.589 75.0146 164.618C75.3197 164.648 75.6277 164.617 75.9207 164.527C85.8891 161.434 96.1691 159.455 106.573 158.625C107.153 158.587 107.697 158.331 108.097 157.909C108.497 157.487 108.722 156.93 108.729 156.349V127.598C108.727 127.295 108.665 126.995 108.547 126.716C108.429 126.437 108.257 126.184 108.04 125.972C107.824 125.759 107.568 125.592 107.287 125.479C107.006 125.365 106.705 125.309 106.402 125.312ZM127.91 58.698C136.102 57.9304 144.196 56.3396 152.068 53.9495C152.384 53.8641 152.678 53.7102 152.928 53.4989C153.178 53.2876 153.378 53.0239 153.515 52.7265C153.652 52.4291 153.722 52.1053 153.719 51.778C153.717 51.4507 153.643 51.1278 153.502 50.8323C152.572 48.9776 151.284 46.3228 150.297 44.5512C143.912 33.1215 136.716 25.1467 128.871 20.6527C128.524 20.4469 128.129 20.3351 127.725 20.3283C127.321 20.3214 126.922 20.4198 126.568 20.6138C126.214 20.8077 125.916 21.0905 125.704 21.4344C125.492 21.7782 125.373 22.1713 125.359 22.575V56.464C125.367 56.7827 125.44 57.0964 125.575 57.3852C125.71 57.6739 125.904 57.9315 126.144 58.1415C126.384 58.3515 126.665 58.5095 126.969 58.6052C127.273 58.701 127.593 58.7326 127.91 58.698ZM127.671 108.687H164.589C164.9 108.693 165.209 108.634 165.497 108.516C165.784 108.397 166.045 108.221 166.262 107.998C166.479 107.775 166.648 107.51 166.759 107.22C166.87 106.929 166.92 106.619 166.906 106.308C166.137 94.4781 164.168 81.4742 161.108 70.8654C161.019 70.5737 160.873 70.3026 160.678 70.0676C160.483 69.8325 160.244 69.6382 159.975 69.4958C159.705 69.3534 159.409 69.2657 159.106 69.2378C158.802 69.2098 158.495 69.2421 158.204 69.3328C148.333 72.3149 138.051 74.7515 127.505 75.5672C126.929 75.5999 126.386 75.8495 125.986 76.2658C125.586 76.6821 125.358 77.2343 125.349 77.8116V106.443C125.36 107.048 125.611 107.625 126.046 108.045C126.481 108.466 127.066 108.697 127.671 108.687ZM105.212 20.6579C97.2007 25.1103 90.0571 33.3501 83.6669 44.7486C82.6746 46.5202 81.4901 48.962 80.5497 50.8115C80.4099 51.1072 80.3366 51.4299 80.3348 51.7569C80.3331 52.0839 80.403 52.4074 80.5397 52.7045C80.6764 53.0016 80.8765 53.2652 81.1259 53.4767C81.3754 53.6882 81.6682 53.8425 81.9836 53.9287C89.8533 56.3627 97.9578 57.9595 106.163 58.6928C106.479 58.7274 106.799 58.696 107.103 58.6005C107.407 58.505 107.687 58.3475 107.927 58.1381C108.167 57.9286 108.36 57.6717 108.496 57.3835C108.631 57.0954 108.705 56.7823 108.714 56.464V22.5802C108.697 22.1787 108.577 21.7882 108.366 21.4467C108.154 21.1051 107.858 20.824 107.505 20.6306C107.153 20.4372 106.757 20.3382 106.355 20.3429C105.953 20.3477 105.559 20.4562 105.212 20.6579ZM106.568 75.5724C96.0214 74.7671 85.7295 72.3305 75.8687 69.338C75.5774 69.2473 75.2711 69.215 74.9673 69.243C74.6634 69.2709 74.3681 69.3586 74.0983 69.501C73.8285 69.6434 73.5894 69.8377 73.3948 70.0728C73.2003 70.3078 73.0541 70.5789 72.9646 70.8706C69.9045 81.4794 67.9355 94.4833 67.1666 106.313C67.1531 106.624 67.2033 106.934 67.3142 107.225C67.425 107.515 67.5942 107.78 67.8112 108.003C68.0282 108.226 68.2886 108.402 68.5762 108.521C68.8638 108.639 69.1727 108.698 69.4837 108.692H106.402C106.702 108.697 107.001 108.643 107.28 108.532C107.56 108.421 107.815 108.256 108.031 108.047C108.246 107.837 108.419 107.588 108.538 107.311C108.657 107.035 108.72 106.738 108.724 106.438V77.8167C108.714 77.2395 108.487 76.6873 108.087 76.271C107.687 75.8547 107.144 75.6051 106.568 75.5724Z" fill="#3B3F4C"/>
<path d="M199.289 34.7112C188.502 23.8175 175.668 15.1625 161.526 9.2434C147.384 3.32431 132.212 0.257812 116.881 0.220079C101.551 0.182346 86.3635 3.17412 72.1925 9.02352C58.0215 14.8729 45.1459 23.4647 34.3054 34.3052C23.4649 45.1457 14.8732 58.0213 9.02377 72.1923C3.17436 86.3633 0.18259 101.55 0.220323 116.881C0.258056 132.212 3.32455 147.384 9.24364 161.526C15.1627 175.668 23.8178 188.501 34.7115 199.288C45.4985 210.182 58.3316 218.837 72.4737 224.756C86.6157 230.675 101.788 233.742 117.119 233.78C132.449 233.817 147.637 230.825 161.808 224.976C175.979 219.127 188.854 210.535 199.695 199.694C210.535 188.854 219.127 175.978 224.976 161.807C230.826 147.636 233.817 132.449 233.78 117.118C233.742 101.788 230.676 86.6155 224.756 72.4734C218.837 58.3314 210.182 45.4982 199.289 34.7112ZM75.7493 207.84C73.4085 204.553 71.2442 201.143 69.2655 197.626C68.2264 195.709 66.751 192.815 65.7691 190.804C65.544 190.327 65.2218 189.903 64.8231 189.558C64.4244 189.212 63.958 188.954 63.4538 188.8C62.9495 188.645 62.4186 188.598 61.8949 188.66C61.3712 188.723 60.8664 188.894 60.4127 189.163C58.1787 190.415 55.2174 192.134 53.0717 193.542C48.5721 190.122 44.4653 186.214 40.8264 181.889C45.8587 178.337 51.1385 175.15 56.6253 172.351C57.5916 171.831 58.0644 171.239 57.7579 170.179C53.7379 156.266 51.2826 141.947 50.4377 127.489C50.4125 126.911 50.167 126.364 49.7516 125.962C49.3362 125.559 48.7823 125.33 48.2037 125.323H18.7255C18.4749 125.326 18.2318 125.238 18.0408 125.075C17.8499 124.913 17.724 124.687 17.6864 124.439C17.3599 121.974 17.2141 119.487 17.25 117C17.2145 114.517 17.3639 112.036 17.6968 109.576C17.7344 109.328 17.8603 109.102 18.0512 108.94C18.2421 108.777 18.4853 108.69 18.7359 108.692H48.2141C49.4038 108.692 50.3805 108.007 50.4429 106.807C51.2766 92.4089 53.7162 78.1494 57.7163 64.2934C57.8653 63.7876 57.8332 63.2457 57.6255 62.7611C57.4178 62.2765 57.0475 61.8795 56.5786 61.6385C51.2096 58.8875 46.0304 55.7807 41.0757 52.3389C44.6953 48.0154 48.7211 44.0488 53.0977 40.4936C55.2174 41.886 57.9813 43.4601 60.1945 44.707C60.6822 44.9843 61.2217 45.1584 61.7794 45.2188C62.3372 45.2791 62.9014 45.2243 63.4372 45.0577C63.9729 44.8911 64.4687 44.6164 64.894 44.2504C65.3192 43.8845 65.6648 43.4351 65.9093 42.9302C66.8861 40.9196 67.9875 38.6805 69.0577 36.7582C71.0449 33.1975 73.2196 29.7447 75.5726 26.4143C88.5266 20.3116 102.681 17.1804 117 17.2498C132.035 17.2498 146.042 20.8865 158.838 26.8403C161.097 30.0126 163.179 33.3081 165.072 36.7114C166.418 39.1324 167.847 42.099 169.052 44.6707C169.181 44.9445 169.365 45.1891 169.592 45.3895C169.819 45.5899 170.085 45.7419 170.373 45.8362C170.661 45.9306 170.965 45.9652 171.266 45.9381C171.568 45.911 171.861 45.8227 172.127 45.6785C174.923 44.1667 177.951 42.4263 180.617 40.6755C185.006 44.2656 189.042 48.2668 192.67 52.6247C187.851 55.9668 182.806 58.9716 177.572 61.6178C177.102 61.8589 176.732 62.2571 176.525 62.743C176.318 63.2289 176.288 63.7719 176.44 64.2778C180.505 78.0396 182.92 92.2358 183.635 106.568C183.663 107.142 183.91 107.685 184.326 108.083C184.741 108.481 185.294 108.705 185.869 108.708L215.285 108.672C215.536 108.669 215.779 108.757 215.97 108.919C216.161 109.081 216.286 109.307 216.324 109.555C216.93 114.493 216.93 119.486 216.324 124.424C216.289 124.674 216.164 124.902 215.973 125.066C215.782 125.231 215.537 125.32 215.285 125.317H185.843C185.264 125.324 184.71 125.552 184.294 125.955C183.878 126.358 183.633 126.905 183.609 127.484C182.8 141.789 180.383 155.958 176.403 169.722C176.253 170.234 176.284 170.782 176.491 171.273C176.699 171.764 177.069 172.169 177.541 172.418C180.139 173.764 183.032 175.265 185.526 176.793C188.02 178.32 190.488 179.951 192.867 181.645C189.267 185.982 185.266 189.971 180.918 193.558C179.65 192.721 178.144 191.771 176.845 190.991C175.951 190.472 174.304 189.552 173.39 189.038C171.405 187.926 169.296 188.757 168.304 190.804C167.311 192.851 165.794 195.787 164.735 197.688C162.782 201.184 160.64 204.571 158.318 207.835C145.528 213.825 132.035 216.75 117 216.75C101.965 216.75 88.5453 213.825 75.7493 207.84Z" fill="#3B3F4C"/>
</svg>
