<svg width="60" height="60" viewBox="0 0 60 60" fill="none" xmlns="http://www.w3.org/2000/svg">
<g filter="url(#filter0_i)">
<g filter="url(#filter1_d)">
<path d="M30.9132 11.1955C30.7486 11.0381 30.5296 10.9502 30.3019 10.9502C30.0741 10.9502 29.8551 11.0381 29.6906 11.1955L9.33983 30.6365C9.2534 30.7192 9.18465 30.8185 9.13771 30.9285C9.09078 31.0385 9.06666 31.1569 9.06679 31.2765L9.06348 49.5225C9.06348 50.4607 9.43616 51.3604 10.0995 52.0238C10.7629 52.6872 11.6627 53.0599 12.6008 53.0599H23.2239C23.693 53.0599 24.1428 52.8735 24.4745 52.5418C24.8062 52.2102 24.9925 51.7603 24.9925 51.2912V36.2575C24.9925 36.023 25.0857 35.798 25.2516 35.6322C25.4174 35.4664 25.6423 35.3732 25.8769 35.3732H34.7202C34.9548 35.3732 35.1797 35.4664 35.3455 35.6322C35.5114 35.798 35.6046 36.023 35.6046 36.2575V51.2912C35.6046 51.7603 35.7909 52.2102 36.1226 52.5418C36.4543 52.8735 36.9041 53.0599 37.3732 53.0599H47.9919C48.93 53.0599 49.8298 52.6872 50.4931 52.0238C51.1565 51.3604 51.5292 50.4607 51.5292 49.5225V31.2765C51.5293 31.1569 51.5052 31.0385 51.4583 30.9285C51.4113 30.8185 51.3426 30.7192 51.2562 30.6365L30.9132 11.1955Z" fill="#F7FAFB"/>
<path d="M56.266 26.989L47.9975 19.0787V7.07493C47.9975 6.60585 47.8111 6.15599 47.4794 5.8243C47.1477 5.49261 46.6979 5.30627 46.2288 5.30627H40.9228C40.4537 5.30627 40.0038 5.49261 39.6721 5.8243C39.3405 6.15599 39.1541 6.60585 39.1541 7.07493V10.6123L32.7515 4.49047C32.1524 3.8847 31.2614 3.5376 30.2986 3.5376C29.3391 3.5376 28.4504 3.8847 27.8512 4.49157L4.33899 26.9868C3.65142 27.6501 3.5652 28.7411 4.19087 29.4596C4.34798 29.641 4.54036 29.7885 4.75629 29.8932C4.97221 29.9978 5.20718 30.0574 5.44689 30.0684C5.68659 30.0794 5.92602 30.0414 6.1506 29.9569C6.37518 29.8724 6.58021 29.7431 6.75322 29.5768L29.6906 7.65859C29.8552 7.50116 30.0742 7.41329 30.3019 7.41329C30.5297 7.41329 30.7487 7.50116 30.9132 7.65859L53.8528 29.5768C54.1908 29.9009 54.6434 30.0777 55.1115 30.0686C55.5796 30.0595 56.0249 29.8651 56.35 29.5282C57.0287 28.8251 56.9723 27.6644 56.266 26.989Z" fill="#F7FAFB"/>
</g>
</g>
<defs>
<filter id="filter0_i" x="2" y="0" width="56.5974" height="60.5974" filterUnits="userSpaceOnUse" color-interpolation-filters="sRGB">
<feFlood flood-opacity="0" result="BackgroundImageFix"/>
<feBlend mode="normal" in="SourceGraphic" in2="BackgroundImageFix" result="shape"/>
<feColorMatrix in="SourceAlpha" type="matrix" values="0 0 0 0 0 0 0 0 0 0 0 0 0 0 0 0 0 0 127 0" result="hardAlpha"/>
<feOffset dy="4"/>
<feGaussianBlur stdDeviation="2"/>
<feComposite in2="hardAlpha" operator="arithmetic" k2="-1" k3="1"/>
<feColorMatrix type="matrix" values="0 0 0 0 0 0 0 0 0 0 0 0 0 0 0 0 0 0 0.25 0"/>
<feBlend mode="normal" in2="shape" result="effect1_innerShadow"/>
</filter>
<filter id="filter1_d" x="-1.12435" y="0" width="62.8461" height="62.8461" filterUnits="userSpaceOnUse" color-interpolation-filters="sRGB">
<feFlood flood-opacity="0" result="BackgroundImageFix"/>
<feColorMatrix in="SourceAlpha" type="matrix" values="0 0 0 0 0 0 0 0 0 0 0 0 0 0 0 0 0 0 127 0"/>
<feOffset dy="3.12435"/>
<feGaussianBlur stdDeviation="1.56218"/>
<feColorMatrix type="matrix" values="0 0 0 0 0 0 0 0 0 0 0 0 0 0 0 0 0 0 0.25 0"/>
<feBlend mode="normal" in2="BackgroundImageFix" result="effect1_dropShadow"/>
<feBlend mode="normal" in="SourceGraphic" in2="effect1_dropShadow" result="shape"/>
</filter>
</defs>
</svg>
