<svg width="404" height="366" viewBox="0 0 404 366" fill="none" xmlns="http://www.w3.org/2000/svg">
<g opacity="0.75" clip-path="url(#clip0)">
<path d="M380.096 322.189L379.936 322.359L312.756 258.667L303.813 218.327C303.813 218.082 303.841 217.856 303.846 217.597L303.427 215.714C303.441 210.961 302.39 206.264 300.353 201.97L307.72 131.904C307.72 131.669 307.72 131.433 307.72 131.198V131.029C307.72 129.828 307.658 128.647 307.545 127.479C307.497 126.689 307.395 125.903 307.239 125.126C305.908 116.952 301.86 109.466 295.75 103.877C289.64 98.2867 281.824 94.9192 273.565 94.3178V94.3178V87.9632C274.569 87.6494 275.551 87.3011 276.511 86.9182C279.306 88.239 282.364 88.9085 285.455 88.8764C290.237 88.9988 296.121 87.2054 300.518 79.5328C309.278 64.2017 330.737 51.9397 317.6 39.6776C304.462 27.4156 305.992 28.9454 303.803 17.5542C301.614 6.16292 301.831 1.54995 281.68 0.69325C276.328 0.462601 271.536 0.293145 267.361 0.297852C255.292 0.246074 248.175 1.54995 247.516 6.82663C246.64 13.8355 219.988 7.62213 236.6 35.9119C236.6 35.9119 236.746 36.1331 237.023 36.5238C233.898 40.8193 231.847 45.8003 231.04 51.0506C230.234 56.3009 230.696 61.668 232.387 66.7033C234.079 71.7387 236.951 76.2961 240.763 79.9946C244.576 83.6932 249.219 86.4255 254.303 87.9632V95.5794C250.663 97.0067 247.522 99.4698 245.267 102.664C243.012 105.858 241.743 109.643 241.617 113.551L195.135 91.5124C195.334 91.1124 195.492 90.6928 195.605 90.2603C185.97 87.6337 183.536 94.8545 183.536 94.8545C187.081 95.9889 189.613 95.7959 191.416 95.0474L189.533 100.569C185.047 96.7043 175.85 90.4015 171.985 99.6275C166.779 112.073 185.951 116.526 185.951 116.526L185.989 116.441L241.448 145.903L241.354 146.732L241.575 146.849V200.84H241.354L241.575 201.226V201.814L157.534 275.716L141.53 357.653H136.686C134.711 357.653 132.817 358.437 131.421 359.834C130.024 361.23 129.24 363.125 129.24 365.1H158.146L156.833 357.653H149.419L156.701 357.521L200.637 282.763L269.766 251.503L270.35 252.534L270.491 252.468L296.983 299.402L371.002 331.373L373.563 328.935L366.088 336.669C365.408 337.371 364.873 338.201 364.514 339.111C364.155 340.02 363.978 340.992 363.994 341.97C364.01 342.947 364.219 343.912 364.608 344.81C364.997 345.707 365.559 346.518 366.262 347.198L386.357 326.421L380.096 322.189Z" fill="url(#paint0_linear)"/>
<path d="M278.705 120.385L251.244 149.499L189.929 105.831L194.401 92.5566L246.772 117.387L269.206 92.5566C269.206 92.5566 279.661 105.402 278.705 120.385Z" fill="#535461"/>
<path opacity="0.1" d="M250.815 149.498L278.276 120.385C278.926 110.241 274.346 101.086 271.319 96.2231C270.938 96.2231 270.557 96.1948 270.171 96.1948H265.492L246.343 117.377L241.537 115.099C241.537 115.31 241.537 115.518 241.537 115.729V142.866L250.815 149.498Z" fill="black"/>
<path d="M241.736 200.444L296.108 296.775L368.461 328.026L377.452 319.464L311.519 256.958L299.102 200.873L241.736 200.444Z" fill="#4D8AF0"/>
<path opacity="0.1" d="M242.592 202.28L270.072 250.951L284.429 244.46C289.78 242.041 294.343 238.164 297.595 233.274C300.848 228.384 302.658 222.677 302.819 216.806L299.524 201.936L243.293 201.649L242.592 202.28Z" fill="black"/>
<path d="M242.874 200.584L159.774 273.62L144.104 353.853L158.984 353.58L201.931 280.507L284 243.419C287.843 241.683 291.295 239.189 294.15 236.086C297.005 232.984 299.204 229.336 300.614 225.362C302.025 221.389 302.618 217.172 302.359 212.963C302.1 208.755 300.993 204.642 299.105 200.872V200.872L242.874 200.584Z" fill="#4D8AF0"/>
<path opacity="0.1" d="M299.317 202.374L241.947 201.527V116.601C241.947 111.418 244.006 106.447 247.671 102.781C251.336 99.1162 256.307 97.0571 261.491 97.0571H270.594C280.141 97.0571 289.296 100.849 296.047 107.6C302.797 114.35 306.59 123.506 306.59 133.052L299.317 202.374Z" fill="black"/>
<path d="M299.317 201.527L241.947 200.67V115.744C241.947 110.561 244.006 105.59 247.671 101.924C251.336 98.2593 256.307 96.2002 261.491 96.2002H270.594C275.321 96.2002 280.002 97.1313 284.369 98.9402C288.736 100.749 292.704 103.401 296.047 106.743C299.389 110.085 302.041 114.054 303.85 118.421C305.659 122.788 306.59 127.469 306.59 132.196L299.317 201.527Z" fill="#535461"/>
<path d="M160.392 360.989H132.149C132.149 359.059 132.916 357.208 134.281 355.843C135.646 354.479 137.497 353.712 139.427 353.712H159.121L160.392 360.989Z" fill="#535461"/>
<path d="M383.466 323.182L363.818 343.493C362.431 342.152 361.633 340.314 361.6 338.385C361.568 336.455 362.303 334.591 363.644 333.204L377.337 319.049L383.466 323.182Z" fill="#535461"/>
<path opacity="0.1" d="M306.383 133.231L269.564 162.344L241.736 147.559L244.428 123.463L263.572 130.232L277.901 118.403C289.485 108.843 307.193 117.424 306.44 132.426C306.424 132.692 306.405 132.961 306.383 133.231Z" fill="black"/>
<path d="M254.365 74.792H273.193V100.648C273.193 102.646 272.4 104.561 270.987 105.974C269.575 107.386 267.659 108.18 265.662 108.18H261.896C259.899 108.18 257.983 107.386 256.571 105.974C255.158 104.561 254.365 102.646 254.365 100.648V74.792Z" fill="#FDA57D"/>
<path opacity="0.1" d="M254.365 90.956C260.504 92.8072 267.054 92.8072 273.193 90.956V75.6484H254.365V90.956Z" fill="black"/>
<path d="M263.783 91.4838C281.752 91.4838 296.319 76.9171 296.319 58.9482C296.319 40.9793 281.752 26.4126 263.783 26.4126C245.814 26.4126 231.248 40.9793 231.248 58.9482C231.248 76.9171 245.814 91.4838 263.783 91.4838Z" fill="#FDA57D"/>
<path opacity="0.1" d="M237.056 39.2161C237.056 39.2161 248.584 56.5948 259.288 53.1681L275.702 88.881C275.702 88.881 290.115 96.836 298.677 81.8532C307.239 66.8705 328.219 54.8814 315.373 42.8924C302.528 30.9034 293.965 32.1884 291.838 21.0561C289.71 9.92374 299.958 5.64968 280.277 4.79299C260.597 3.93629 248.598 3.93629 247.741 10.7851C246.885 17.634 220.821 11.5618 237.056 39.2161Z" fill="black"/>
<path d="M237.913 39.2164C237.913 39.2164 249.44 56.5951 260.144 53.1683L276.558 88.8859C276.558 88.8859 290.971 96.8409 299.533 81.8582C308.096 66.8754 329.075 54.8864 316.23 42.8973C303.384 30.9083 304.885 32.4099 302.744 21.2775C300.602 10.1452 300.819 5.64991 281.124 4.80263C261.429 3.95535 249.445 3.94594 248.588 10.7948C247.732 17.6437 221.678 11.5621 237.913 39.2164Z" fill="#72351C"/>
<path d="M255.09 108.184L273.203 96.2896L278.767 102.192L266.778 114.177L255.09 108.184Z" fill="#535461"/>
<path d="M263.784 69.2238C265.44 69.2238 266.782 66.3493 266.782 62.8033C266.782 59.2574 265.44 56.3828 263.784 56.3828C262.128 56.3828 260.785 59.2574 260.785 62.8033C260.785 66.3493 262.128 69.2238 263.784 69.2238Z" fill="#FDA57D"/>
<path d="M402.376 18.3067C402.898 19.6214 403.154 21.0268 403.129 22.4413C403.103 23.8558 402.797 25.2512 402.228 26.5463C401.658 27.8414 400.837 29.0104 399.812 29.9854C398.787 30.9604 397.578 31.7219 396.256 32.2257L172.282 114.13L168.046 103.83L388.363 12.3852C389.67 11.8427 391.073 11.5657 392.488 11.5704C393.904 11.575 395.305 11.8612 396.609 12.4123C397.913 12.9633 399.094 13.7683 400.084 14.7802C401.074 15.7922 401.853 16.9909 402.376 18.3067Z" fill="url(#paint1_linear)"/>
<path d="M400.878 18.8903C401.394 20.1895 401.646 21.5782 401.619 22.9758C401.593 24.3733 401.289 25.7516 400.725 27.0304C400.16 28.3092 399.347 29.463 398.333 30.4244C397.318 31.3858 396.122 32.1357 394.815 32.6304L173.736 113.503L169.537 103.336L387.048 13.0582C388.338 12.5223 389.722 12.2483 391.118 12.252C392.515 12.2557 393.897 12.5371 395.184 13.0798C396.471 13.6225 397.637 14.4157 398.614 15.4132C399.592 16.4108 400.361 17.5927 400.878 18.8903V18.8903Z" fill="#F7FAFB"/>
<path opacity="0.1" d="M306.383 131.518L269.564 160.631L187.363 116.964L193.355 103.689L263.567 128.52L277.895 116.691C289.48 107.13 307.188 115.711 306.435 130.713C306.422 130.983 306.405 131.251 306.383 131.518Z" fill="black"/>
<path d="M306.383 132.374L269.564 161.488L187.363 117.815L193.355 104.56L263.567 129.376L277.895 117.547C289.48 107.987 307.188 116.568 306.435 131.57C306.422 131.839 306.405 132.108 306.383 132.374Z" fill="#535461"/>
<path d="M187.575 118.031C187.575 118.031 168.836 113.677 173.924 101.514C179.013 89.3508 193.567 104.762 193.567 104.762L187.575 118.031Z" fill="#FDA57D"/>
<path d="M196.994 92.3215C196.994 92.3215 195.229 100.022 185.193 96.8121C185.193 96.8357 187.575 89.775 196.994 92.3215Z" fill="#FDA57D"/>
<path d="M93.5508 56.2323C90.7109 55.4664 87.7058 55.5766 84.9297 56.5485C82.1535 57.5204 79.7359 59.3085 77.9938 61.6785C76.3463 64.032 75.4001 66.8328 73.4561 68.9227C68.5372 74.1994 59.6595 72.5755 53.5403 68.7862C47.421 64.997 42.1726 59.4803 35.2625 57.4562C31.4968 56.3547 27.5193 56.3877 23.603 56.4253C15.7044 56.5054 7.59879 56.5336 0.203908 53.7188" stroke="#E6E6E6" stroke-width="0.470712" stroke-miterlimit="10"/>
<path d="M93.5508 66.3613C90.7109 65.5954 87.7058 65.7056 84.9297 66.6775C82.1535 67.6493 79.7359 69.4375 77.9938 71.8074C76.3463 74.161 75.4001 76.9617 73.4561 79.0517C68.5372 84.319 59.6595 82.6997 53.5403 78.9293C47.421 75.1589 42.1726 69.6233 35.2625 67.5993C31.4968 66.4978 27.5193 66.5308 23.603 66.5684C15.7044 66.6484 7.59879 66.6767 0.203908 63.8618" stroke="#E6E6E6" stroke-width="0.470712" stroke-miterlimit="10"/>
<path d="M132.403 79.1885C123.704 79.1885 116.653 72.137 116.653 63.4385C116.653 54.74 123.704 47.6885 132.403 47.6885C141.101 47.6885 148.153 54.74 148.153 63.4385C148.153 72.137 141.101 79.1885 132.403 79.1885Z" fill="url(#paint2_linear)"/>
<path d="M132.403 78.3371C124.175 78.3371 117.505 71.667 117.505 63.439C117.505 55.2111 124.175 48.541 132.403 48.541C140.631 48.541 147.301 55.2111 147.301 63.439C147.301 71.667 140.631 78.3371 132.403 78.3371Z" fill="#F5F5F5"/>
<path d="M145.126 55.606C145.126 55.606 139.61 66.9313 144.863 71.6761" stroke="#3B3F4C" stroke-width="0.470712" stroke-miterlimit="10"/>
<path d="M145.051 57.3619L144.477 57.7903C144.234 57.3075 143.839 56.9185 143.352 56.6841" stroke="#3B3F4C" stroke-width="0.235356" stroke-miterlimit="10" stroke-linecap="round"/>
<path d="M144.801 58.6184C144.394 58.7611 144.041 59.0257 143.789 59.3763C143.627 58.797 143.241 58.3059 142.716 58.0112" stroke="#3B3F4C" stroke-width="0.235356" stroke-miterlimit="10" stroke-linecap="round"/>
<path d="M143.94 60.3504C143.602 60.5041 143.338 60.7849 143.206 61.1317C142.849 60.6941 142.457 60.2863 142.034 59.9126" stroke="#3B3F4C" stroke-width="0.235356" stroke-miterlimit="10" stroke-linecap="round"/>
<path d="M143.644 61.8945C143.442 62.0191 143.271 62.1867 143.143 62.3853C143.014 62.5839 142.931 62.8086 142.9 63.0431C142.557 62.5604 142.093 62.1771 141.554 61.9322" stroke="#3B3F4C" stroke-width="0.235356" stroke-miterlimit="10" stroke-linecap="round"/>
<path d="M143.422 63.9848C143.326 63.9692 143.228 63.9819 143.139 64.0212C143.051 64.0604 142.976 64.1247 142.923 64.206C142.82 64.3713 142.751 64.5553 142.721 64.7474C142.253 64.201 141.62 63.8224 140.918 63.6694" stroke="#3B3F4C" stroke-width="0.235356" stroke-miterlimit="10" stroke-linecap="round"/>
<path d="M143.159 65.1514C143.043 65.2573 142.954 65.3885 142.898 65.5346C142.841 65.6808 142.819 65.838 142.834 65.9939L140.979 65.3632" stroke="#3B3F4C" stroke-width="0.235356" stroke-miterlimit="10" stroke-linecap="round"/>
<path d="M143.286 67.1519C143.128 67.3772 143.022 67.6343 142.975 67.905C142.443 67.6133 141.879 67.3842 141.295 67.2225" stroke="#3B3F4C" stroke-width="0.235356" stroke-miterlimit="10" stroke-linecap="round"/>
<path d="M143.723 68.5459C143.669 68.9546 143.652 69.3674 143.671 69.7792C142.987 69.6317 142.297 69.5093 141.6 69.412" stroke="#3B3F4C" stroke-width="0.235356" stroke-miterlimit="10" stroke-linecap="round"/>
<path d="M119.68 55.606C119.68 55.606 125.196 66.9313 119.943 71.6761" stroke="#3B3F4C" stroke-width="0.470712" stroke-miterlimit="10"/>
<path d="M119.754 57.3619L120.329 57.7903C120.571 57.3075 120.967 56.9185 121.454 56.6841" stroke="#3B3F4C" stroke-width="0.235356" stroke-miterlimit="10" stroke-linecap="round"/>
<path d="M120 58.6184C120.407 58.7611 120.761 59.0257 121.012 59.3763C121.175 58.797 121.561 58.3059 122.085 58.0112" stroke="#3B3F4C" stroke-width="0.235356" stroke-miterlimit="10" stroke-linecap="round"/>
<path d="M120.852 60.3504C121.19 60.5041 121.454 60.7849 121.587 61.1317C121.944 60.6941 122.336 60.2863 122.759 59.9126" stroke="#3B3F4C" stroke-width="0.235356" stroke-miterlimit="10" stroke-linecap="round"/>
<path d="M121.163 61.8945C121.364 62.0191 121.535 62.1867 121.664 62.3853C121.792 62.5839 121.875 62.8086 121.907 63.0431C122.249 62.5604 122.714 62.1771 123.253 61.9322" stroke="#3B3F4C" stroke-width="0.235356" stroke-miterlimit="10" stroke-linecap="round"/>
<path d="M121.384 63.9848C121.48 63.9692 121.578 63.9819 121.666 64.0212C121.755 64.0604 121.83 64.1247 121.883 64.206C121.986 64.3713 122.054 64.5553 122.085 64.7474C122.553 64.201 123.186 63.8224 123.888 63.6694" stroke="#3B3F4C" stroke-width="0.235356" stroke-miterlimit="10" stroke-linecap="round"/>
<path d="M121.648 65.1514C121.763 65.2573 121.852 65.3885 121.909 65.5346C121.965 65.6808 121.987 65.838 121.973 65.9939L123.827 65.3632" stroke="#3B3F4C" stroke-width="0.235356" stroke-miterlimit="10" stroke-linecap="round"/>
<path d="M121.516 67.1519C121.673 67.3772 121.779 67.6343 121.826 67.905C122.358 67.6133 122.922 67.3842 123.507 67.2225" stroke="#3B3F4C" stroke-width="0.235356" stroke-miterlimit="10" stroke-linecap="round"/>
<path d="M121.077 68.5459C121.131 68.9546 121.148 69.3674 121.129 69.7792C121.813 69.6317 122.504 69.5093 123.2 69.412" stroke="#3B3F4C" stroke-width="0.235356" stroke-miterlimit="10" stroke-linecap="round"/>
</g>
<defs>
<linearGradient id="paint0_linear" x1="257.801" y1="365.1" x2="257.801" y2="0.297865" gradientUnits="userSpaceOnUse">
<stop stop-color="#808080" stop-opacity="0.25"/>
<stop offset="0.54" stop-color="#808080" stop-opacity="0.12"/>
<stop offset="1" stop-color="#808080" stop-opacity="0.1"/>
</linearGradient>
<linearGradient id="paint1_linear" x1="183123" y1="31226.5" x2="183123" y2="8876.79" gradientUnits="userSpaceOnUse">
<stop stop-color="#808080" stop-opacity="0.25"/>
<stop offset="0.54" stop-color="#808080" stop-opacity="0.12"/>
<stop offset="1" stop-color="#808080" stop-opacity="0.1"/>
</linearGradient>
<linearGradient id="paint2_linear" x1="-905.838" y1="5327.1" x2="-905.838" y2="3218.8" gradientUnits="userSpaceOnUse">
<stop stop-color="#808080" stop-opacity="0.25"/>
<stop offset="0.54" stop-color="#808080" stop-opacity="0.12"/>
<stop offset="1" stop-color="#808080" stop-opacity="0.1"/>
</linearGradient>
<clipPath id="clip0">
<rect width="402.929" height="364.802" fill="white" transform="translate(0.204102 0.297363)"/>
</clipPath>
</defs>
</svg>
