<svg width="772" height="560" viewBox="0 0 772 560" fill="none" xmlns="http://www.w3.org/2000/svg">
<g opacity="0.75" clip-path="url(#clip0)" filter="url(#filter0_di)">
<path d="M97.791 268.714H104.592V537.346H97.791V268.714Z" fill="#3F3D56"/>
<path d="M35.0271 302.948C34.5942 396.882 100.682 473.337 100.682 473.337C100.682 473.337 167.471 397.495 167.904 303.561C168.337 209.627 102.25 133.172 102.25 133.172C102.25 133.172 35.46 209.014 35.0271 302.948Z" fill="#3F3D56"/>
<path d="M233.773 395.109H237.271V533.273H233.773V395.109Z" fill="#3F3D56"/>
<path d="M201.492 412.717C201.269 461.029 235.26 500.352 235.26 500.352C235.26 500.352 269.611 461.344 269.834 413.032C270.057 364.719 236.066 325.397 236.066 325.397C236.066 325.397 201.715 364.404 201.492 412.717Z" fill="#3F3D56"/>
<path d="M164.828 551.67C112.489 551.67 70.0601 545.166 70.0601 537.143C70.0601 529.12 112.489 522.617 164.828 522.617C217.167 522.617 259.596 529.12 259.596 537.143C259.596 545.166 217.167 551.67 164.828 551.67Z" fill="#3F3D56"/>
<path d="M157.013 198.584C165.042 185.018 180.927 184.386 180.927 184.386C180.927 184.386 196.405 182.406 206.335 203.068C215.59 222.327 228.363 240.921 208.391 245.429L204.784 234.201L202.55 246.265C199.706 246.47 196.853 246.519 194.004 246.411C172.616 245.721 152.247 246.613 152.903 238.938C153.775 228.736 149.288 211.638 157.013 198.584Z" fill="#2F2E41"/>
<path d="M185.926 224.133C185.926 224.133 175.55 238.659 181.775 250.419C188.001 262.178 167.249 274.63 167.249 274.63L152.031 241.426C152.031 241.426 170.016 229.667 165.174 218.599L185.926 224.133Z" fill="#FBBEBE"/>
<path d="M179.009 230.358C169.076 230.358 161.024 222.306 161.024 212.373C161.024 202.44 169.076 194.388 179.009 194.388C188.942 194.388 196.994 202.44 196.994 212.373C196.994 222.306 188.942 230.358 179.009 230.358Z" fill="#FBBEBE"/>
<path d="M241.251 233.164L226.221 213.772C226.221 213.772 220.929 193.446 213.264 194.476C205.599 195.506 216.291 218.853 216.291 218.853L231.225 240.318L241.251 233.164Z" fill="#FBBEBE"/>
<path d="M165.174 491.143L160.332 516.737L149.956 519.504L152.723 489.068L165.174 491.143Z" fill="#FBBEBE"/>
<path d="M60.7217 463.473L42.0448 489.067L34.4357 492.526L28.2101 482.15L46.887 457.939L60.7217 463.473Z" fill="#FBBEBE"/>
<path d="M169.325 263.562L180.864 248.372C180.864 248.372 203.22 252.494 205.296 254.569C207.371 256.644 199.762 294.69 199.762 294.69C199.762 294.69 198.378 305.066 192.153 310.6L185.927 314.75L134.739 304.374L132.814 281.598C132.113 273.302 133.153 264.952 135.866 257.081C138.58 249.21 142.908 241.993 148.573 235.892L157.48 237.11L169.325 263.562Z" fill="#575A89"/>
<path d="M202.528 255.953L205.987 254.569L221.897 253.186C221.897 253.186 227.43 251.802 226.047 249.035C224.663 246.268 223.28 245.577 226.047 244.885C228.814 244.193 229.506 243.501 228.814 241.426C228.122 239.351 223.972 235.201 223.972 235.201L235.731 225.516C235.731 225.516 236.368 225.967 237.396 226.799C243.235 231.527 261.709 248.582 248.182 265.637C232.273 285.697 213.596 297.457 198.378 293.306L202.528 255.953Z" fill="#575A89"/>
<path d="M187.31 311.292V320.976C187.31 320.976 193.535 332.735 191.46 343.803C189.385 354.871 188.693 360.405 188.693 360.405C188.468 369.818 186.835 379.144 183.851 388.074C179.009 401.909 194.919 492.526 174.859 493.91C154.798 495.293 143.731 496.677 137.505 489.759C131.279 482.842 147.881 363.863 147.881 363.863C147.881 363.863 91.1586 482.15 79.3991 477.308C67.6396 472.466 37.895 461.398 41.3537 455.172C44.8124 448.947 131.971 310.6 131.971 310.6L134.738 304.374L187.31 311.292Z" fill="#2F2E41"/>
<path d="M154.107 511.895C154.107 511.895 165.174 511.203 165.174 514.662C165.174 518.12 170.708 529.88 170.708 529.88C170.708 529.88 174.859 543.715 163.791 542.331C152.723 540.948 145.806 528.496 145.806 528.496L148.573 515.353L154.107 511.895Z" fill="#2F2E41"/>
<path d="M38.5873 487.684C38.5873 487.684 48.2716 481.458 47.5799 485.609C46.8881 489.759 46.1964 500.827 41.3542 501.519C36.5121 502.21 21.9856 506.361 21.2939 507.744C20.6022 509.128 4.00052 514.662 4.00052 505.669C4.00052 496.677 14.3766 489.759 14.3766 489.759L26.1361 480.767C26.1361 480.767 33.7452 480.075 35.1286 484.917C36.5121 489.759 38.5873 487.684 38.5873 487.684Z" fill="#2F2E41"/>
<path d="M178.982 195.94C172.639 195.94 167.497 190.798 167.497 184.454C167.497 178.111 172.639 172.969 178.982 172.969C185.326 172.969 190.468 178.111 190.468 184.454C190.468 190.798 185.326 195.94 178.982 195.94Z" fill="#2F2E41"/>
<path d="M191.677 181.432C191.676 178.595 190.627 175.859 188.729 173.75C186.832 171.642 184.221 170.31 181.4 170.011C181.802 169.969 182.205 169.947 182.609 169.947C185.655 169.947 188.577 171.157 190.731 173.311C192.885 175.464 194.095 178.386 194.095 181.432C194.095 184.478 192.885 187.399 190.731 189.553C188.577 191.707 185.655 192.917 182.609 192.917C182.205 192.917 181.802 192.895 181.4 192.853C184.221 192.554 186.832 191.222 188.729 189.113C190.627 187.005 191.676 184.269 191.677 181.432Z" fill="#2F2E41"/>
<path d="M160.563 197.277L176.255 189.056L197.927 192.419L202.411 212.222L191.249 211.793L188.131 204.518V211.673L182.981 211.475L179.992 199.892L178.124 212.222L159.815 211.849L160.563 197.277Z" fill="#2F2E41"/>
<path d="M161.502 312.894L185.704 313.548C185.704 313.548 206.355 317.567 205.196 309.232C204.038 300.896 183.891 303.812 183.891 303.812L161.838 300.447L161.502 312.894Z" fill="#FBBEBE"/>
<path d="M142.354 234.72C141.138 234.536 139.895 234.792 138.851 235.442C137.807 236.092 137.029 237.094 136.657 238.267C131.919 253.197 117.323 303.161 131.825 310.016C148.907 318.089 161.372 317.734 161.372 317.734L168.044 301.307L161.97 295.607L155.486 253.912L152.378 236.238L142.354 234.72Z" fill="#575A89"/>
<path opacity="0.4" d="M146.843 262.524L149.61 290.193L173.82 300.57L146.843 294.344V262.524Z" fill="black"/>
<path d="M277.412 171.179C269.614 173.245 262.867 178.146 258.491 184.923L256.229 188.427L256.115 188.572L216.419 200.188C215.692 200.4 215.077 200.89 214.707 201.552C214.337 202.214 214.241 202.994 214.441 203.726L217.522 215.025C217.623 215.393 217.795 215.738 218.029 216.039C218.263 216.341 218.554 216.593 218.886 216.781C219.218 216.969 219.584 217.09 219.963 217.136C220.341 217.182 220.725 217.153 221.093 217.051L260.798 205.953L260.799 205.954L264.787 207.461C272.13 210.237 280.184 210.511 287.698 208.24L277.412 171.179Z" fill="#3F3D56"/>
<path d="M235.608 203.949C235.232 202.664 236.88 201.051 239.289 200.346C241.698 199.641 243.956 200.111 244.332 201.396C244.708 202.681 243.06 204.294 240.651 204.999C238.242 205.704 235.984 205.234 235.608 203.949Z" fill="#575A89"/>
<path d="M237.636 205.133C236.716 205.133 235.97 204.387 235.97 203.467C235.97 202.547 236.716 201.8 237.636 201.8C238.557 201.8 239.303 202.547 239.303 203.467C239.303 204.387 238.557 205.133 237.636 205.133Z" fill="#3F3D56"/>
<path d="M274.092 192.581C270.782 182.373 271.841 172.884 276.457 171.387C281.073 169.891 287.499 176.953 290.809 187.161C294.119 197.369 293.06 206.858 288.444 208.355C283.828 209.852 277.402 202.79 274.092 192.581Z" fill="#3D4F91"/>
<path opacity="0.4" d="M275.327 192.22C272.137 182.384 273.004 173.217 277.202 171.223C276.949 171.254 276.7 171.309 276.458 171.387C271.841 172.884 270.783 182.373 274.093 192.582C277.403 202.79 283.828 209.852 288.445 208.355C288.612 208.3 288.776 208.235 288.935 208.159C284.394 208.737 278.462 201.891 275.327 192.22Z" fill="black"/>
<path d="M276.889 171.215L366.98 101.332C382.91 88.8855 398.198 75.6365 412.783 61.6366C438.464 37.1577 473.326 17.5864 513.915 7.16641C612.53 -18.1495 690.653 26.7387 726.185 92.6499C780.483 193.369 822.095 356.81 581.34 269.81C528.688 250.784 475.391 248.761 434.979 238.739L288.649 208.569L276.889 171.215Z" fill="#3D4F91" fill-opacity="0.85"/>
<path d="M547.358 53.62C544.684 53.62 542.516 51.4521 542.516 48.7778C542.516 46.1036 544.684 43.9357 547.358 43.9357C550.032 43.9357 552.2 46.1036 552.2 48.7778C552.2 51.4521 550.032 53.62 547.358 53.62Z" fill="#F2F2F2"/>
<path d="M453.296 59.9701H454.556V58.7097H454.802V59.9701H456.062V60.2163H454.802V61.4767H454.556V60.2163H453.296V59.9701Z" fill="#F2F2F2"/>
<path d="M326.709 165.114H327.969V163.854H328.215V165.114H329.476V165.36H328.215V166.62H327.969V165.36H326.709V165.114Z" fill="#F2F2F2"/>
<path d="M335.701 197.625H336.961V196.365H337.207V197.625H338.468V197.872H337.207V199.132H336.961V197.872H335.701V197.625Z" fill="#F2F2F2"/>
<path d="M722.381 225.295H723.641V224.035H723.887V225.295H725.147V225.541H723.887V226.801H723.641V225.541H722.381V225.295Z" fill="#F2F2F2"/>
<path d="M667.042 74.4965H668.302V73.2361H668.548V74.4965H669.809V74.7427H668.548V76.0031H668.302V74.7427H667.042V74.4965Z" fill="#F2F2F2"/>
<path d="M451.912 203.159H453.172V201.899H453.418V203.159H454.679V203.406H453.418V204.666H453.172V203.406H451.912V203.159Z" fill="#F2F2F2"/>
<path d="M584.034 30.2254H585.294V28.9651H585.54V30.2254H586.801V30.4717H585.54V31.732H585.294V30.4717H584.034V30.2254Z" fill="#F2F2F2"/>
<path d="M583.55 129.82L585.12 130.062C584.629 133.203 584.242 136.412 583.958 139.587L582.374 139.449C582.658 136.232 583.052 132.995 583.55 129.82Z" fill="#E6E6E6"/>
<path d="M587.845 110.908L589.367 111.372C588.447 114.415 587.624 117.535 586.925 120.641L585.369 120.288C586.081 117.148 586.918 113.993 587.845 110.908Z" fill="#E6E6E6"/>
<path d="M594.7 92.7708L596.146 93.4348C594.817 96.3332 593.572 99.3077 592.445 102.282L590.957 101.722C592.099 98.7127 593.351 95.6968 594.7 92.7708Z" fill="#E6E6E6"/>
<path d="M603.97 75.7679L605.312 76.6187C603.603 79.3026 601.964 82.0834 600.442 84.8711L599.044 84.1102C600.58 81.288 602.24 78.4795 603.97 75.7679Z" fill="#E6E6E6"/>
<path d="M615.493 60.1831L616.703 61.2138C614.642 63.6349 612.636 66.1666 610.74 68.726L609.468 67.7784C611.377 65.1913 613.404 62.6318 615.493 60.1831Z" fill="#E6E6E6"/>
<path d="M629.037 46.3069L630.096 47.4898C627.716 49.6134 625.385 51.8477 623.165 54.1235L622.023 53.0098C624.271 50.7063 626.63 48.4513 629.037 46.3069Z" fill="#E6E6E6"/>
<path d="M644.338 34.3952L645.23 35.7095C642.588 37.4873 639.973 39.3826 637.462 41.3402L636.48 40.0881C639.026 38.1098 641.668 36.1937 644.338 34.3952Z" fill="#E6E6E6"/>
<path d="M658.264 26.1221V27.9206C656.61 28.7853 654.971 29.6914 653.366 30.6184L652.571 29.2418C654.438 28.1627 656.336 27.1228 658.264 26.1221Z" fill="#E6E6E6"/>
<path d="M583.442 149.4L581.852 149.371C581.823 150.977 581.821 152.591 581.846 154.169L583.436 154.144C583.412 152.584 583.414 150.988 583.442 149.4Z" fill="#E6E6E6"/>
<path d="M676.934 266.092L678.504 266.334C678.013 269.475 677.625 272.684 677.342 275.859L675.758 275.721C676.041 272.504 676.436 269.267 676.934 266.092Z" fill="#E6E6E6"/>
<path d="M681.229 247.18L682.751 247.644C681.831 250.687 681.008 253.807 680.309 256.913L678.753 256.56C679.465 253.42 680.302 250.265 681.229 247.18Z" fill="#E6E6E6"/>
<path d="M688.085 229.043L689.53 229.707C688.202 232.605 686.957 235.58 685.829 238.554L684.342 237.994C685.484 234.985 686.736 231.969 688.085 229.043Z" fill="#E6E6E6"/>
<path d="M697.353 212.04L698.695 212.891C696.987 215.575 695.347 218.355 693.825 221.143L692.428 220.382C693.964 217.56 695.624 214.751 697.353 212.04Z" fill="#E6E6E6"/>
<path d="M708.877 196.455L710.088 197.486C708.027 199.907 706.02 202.439 704.125 204.998L702.852 204.05C704.762 201.463 706.788 198.904 708.877 196.455Z" fill="#E6E6E6"/>
<path d="M722.423 182.579L723.481 183.762C721.102 185.885 718.771 188.12 716.55 190.395L715.409 189.282C717.657 186.978 720.016 184.723 722.423 182.579Z" fill="#E6E6E6"/>
<path d="M737.723 170.667L738.615 171.981C735.973 173.759 733.358 175.655 730.847 177.612L729.865 176.36C732.41 174.382 735.053 172.466 737.723 170.667Z" fill="#E6E6E6"/>
<path d="M751.647 162.394V164.192C749.994 165.057 748.355 165.963 746.75 166.89L745.954 165.514C747.822 164.435 749.72 163.395 751.647 162.394Z" fill="#E6E6E6"/>
<path d="M676.826 285.672L675.236 285.643C675.207 287.249 675.205 288.863 675.23 290.441L676.82 290.416C676.795 288.856 676.797 287.26 676.826 285.672Z" fill="#E6E6E6"/>
<path d="M357.352 197.61L358.922 197.852C358.431 200.993 358.043 204.202 357.76 207.378L356.176 207.239C356.459 204.023 356.854 200.785 357.352 197.61Z" fill="#E6E6E6"/>
<path d="M361.647 178.698L363.169 179.162C362.249 182.205 361.426 185.325 360.727 188.431L359.171 188.078C359.883 184.938 360.72 181.783 361.647 178.698Z" fill="#E6E6E6"/>
<path d="M368.503 160.561L369.948 161.225C368.62 164.123 367.375 167.098 366.247 170.072L364.76 169.512C365.902 166.503 367.154 163.487 368.503 160.561Z" fill="#E6E6E6"/>
<path d="M377.772 143.558L379.114 144.409C377.406 147.093 375.766 149.874 374.244 152.661L372.847 151.9C374.383 149.078 376.043 146.27 377.772 143.558Z" fill="#E6E6E6"/>
<path d="M389.295 127.973L390.506 129.004C388.444 131.425 386.438 133.957 384.543 136.516L383.27 135.568C385.18 132.981 387.206 130.422 389.295 127.973Z" fill="#E6E6E6"/>
<path d="M402.841 114.097L403.899 115.28C401.52 117.403 399.189 119.638 396.968 121.914L395.827 120.8C398.075 118.496 400.434 116.241 402.841 114.097Z" fill="#E6E6E6"/>
<path d="M418.142 102.185L419.034 103.5C416.392 105.277 413.777 107.173 411.266 109.13L410.284 107.878C412.829 105.9 415.472 103.984 418.142 102.185Z" fill="#E6E6E6"/>
<path d="M432.066 93.9121V95.7106C430.413 96.5753 428.774 97.4815 427.169 98.4084L426.373 97.0318C428.241 95.9527 430.139 94.9128 432.066 93.9121Z" fill="#E6E6E6"/>
<path d="M357.244 217.19L355.654 217.161C355.625 218.767 355.623 220.381 355.648 221.959L357.237 221.934C357.213 220.374 357.215 218.778 357.244 217.19Z" fill="#E6E6E6"/>
<path d="M664.727 138.275H665.9V137.101H666.129V138.275H667.302V138.503H666.129V139.676H665.9V138.503H664.727V138.275Z" fill="#F2F2F2"/>
<path d="M678.245 209.079H679.417V207.905H679.646V209.079H680.819V209.308H679.646V210.48H679.417V209.308H678.245V209.079Z" fill="#F2F2F2"/>
<path d="M717.907 271.132H719.08V269.96H719.309V271.132H720.481V271.361H719.309V272.534H719.08V271.361H717.907V271.132Z" fill="#F2F2F2"/>
<path d="M496.525 178.372C485.185 161.516 480.261 141.154 482.646 120.979C485.031 100.803 494.568 82.1509 509.526 68.4037C524.484 54.6565 543.873 46.7249 564.178 46.0473C584.482 45.3697 604.357 51.9908 620.199 64.7101C636.04 77.4293 646.799 95.4045 650.524 115.376C654.249 135.347 650.694 155.992 640.503 173.567C630.312 191.142 614.161 204.483 594.977 211.171C575.794 217.859 554.849 217.45 535.941 210.02C534.715 214.395 532.423 218.399 529.271 221.671C526.119 224.944 522.204 227.383 517.878 228.772C513.551 230.16 508.948 230.454 504.48 229.628C500.012 228.801 495.818 226.879 492.275 224.034C488.732 221.189 485.95 217.51 484.177 213.327C482.405 209.143 481.697 204.585 482.118 200.06C482.539 195.536 484.076 191.187 486.59 187.402C489.104 183.617 492.517 180.514 496.525 178.372Z" fill="#3F3D56"/>
<path d="M566.377 88C585.852 88 599.251 98.8022 599.251 114.33C599.251 124.613 594.266 131.728 584.658 137.389C575.621 142.634 572.557 146.477 572.557 153.125C572.557 153.664 572.451 154.197 572.245 154.695C572.039 155.193 571.737 155.645 571.356 156.026C570.975 156.407 570.522 156.709 570.025 156.915C569.527 157.121 568.993 157.228 568.455 157.228H558.498C557.435 157.228 556.413 156.815 555.648 156.076C554.884 155.337 554.435 154.331 554.398 153.268L554.381 152.761C553.498 142.063 557.237 135.415 566.637 129.911C575.414 124.665 579.101 121.341 579.101 114.902C579.101 108.462 572.869 103.736 565.131 103.736C559.249 103.736 554.595 106.599 552.46 111.273C551.71 112.855 550.522 114.189 549.037 115.118C547.552 116.046 545.833 116.53 544.082 116.512C537.336 116.512 532.879 109.338 536.034 103.375C541.025 93.9429 551.554 88 566.377 88ZM552.719 177.014C552.719 171.042 557.704 166.316 563.832 166.316C570.013 166.316 574.998 170.99 574.998 177.014C574.998 183.039 570.013 187.713 563.832 187.713C557.652 187.713 552.719 183.039 552.719 177.014Z" fill="#F7FAFB" fill-opacity="0.85"/>
</g>
<defs>
<filter id="filter0_di" x="0" y="0" width="772" height="559.67" filterUnits="userSpaceOnUse" color-interpolation-filters="sRGB">
<feFlood flood-opacity="0" result="BackgroundImageFix"/>
<feColorMatrix in="SourceAlpha" type="matrix" values="0 0 0 0 0 0 0 0 0 0 0 0 0 0 0 0 0 0 127 0"/>
<feOffset dy="4"/>
<feGaussianBlur stdDeviation="2"/>
<feColorMatrix type="matrix" values="0 0 0 0 0 0 0 0 0 0 0 0 0 0 0 0 0 0 0.25 0"/>
<feBlend mode="normal" in2="BackgroundImageFix" result="effect1_dropShadow"/>
<feBlend mode="normal" in="SourceGraphic" in2="effect1_dropShadow" result="shape"/>
<feColorMatrix in="SourceAlpha" type="matrix" values="0 0 0 0 0 0 0 0 0 0 0 0 0 0 0 0 0 0 127 0" result="hardAlpha"/>
<feOffset dy="2.94617"/>
<feGaussianBlur stdDeviation="1.47308"/>
<feComposite in2="hardAlpha" operator="arithmetic" k2="-1" k3="1"/>
<feColorMatrix type="matrix" values="0 0 0 0 0.231373 0 0 0 0 0.247059 0 0 0 0 0.298039 0 0 0 0.25 0"/>
<feBlend mode="normal" in2="shape" result="effect2_innerShadow"/>
</filter>
<clipPath id="clip0">
<rect width="764" height="551.67" fill="white" transform="matrix(-1 0 0 1 768 0)"/>
</clipPath>
</defs>
</svg>
