<svg width="48" height="48" viewBox="0 0 48 48" fill="none" xmlns="http://www.w3.org/2000/svg">
<path d="M6 45H4.5C3.70435 45 2.94129 44.6839 2.37868 44.1213C1.81607 43.5587 1.5 42.7957 1.5 42V10.5C1.5 9.70435 1.81607 8.94129 2.37868 8.37868C2.94129 7.81607 3.70435 7.5 4.5 7.5H6C6.79565 7.5 7.55871 7.81607 8.12132 8.37868C8.68393 8.94129 9 9.70435 9 10.5V42C9 42.7957 8.68393 43.5587 8.12132 44.1213C7.55871 44.6839 6.79565 45 6 45ZM22.5 16.5C22.5 15.7044 22.1839 14.9413 21.6213 14.3787C21.0587 13.8161 20.2956 13.5 19.5 13.5H13.5C12.7044 13.5 11.9413 13.8161 11.3787 14.3787C10.8161 14.9413 10.5 15.7044 10.5 16.5V19.125C10.5 19.2245 10.5395 19.3198 10.6098 19.3902C10.6802 19.4605 10.7755 19.5 10.875 19.5H22.125C22.2245 19.5 22.3198 19.4605 22.3902 19.3902C22.4605 19.3198 22.5 19.2245 22.5 19.125V16.5ZM10.5 42C10.5 42.7957 10.8161 43.5587 11.3787 44.1213C11.9413 44.6839 12.7044 45 13.5 45H19.5C20.2956 45 21.0587 44.6839 21.6213 44.1213C22.1839 43.5587 22.5 42.7957 22.5 42V39.1875C22.5 39.1378 22.4802 39.0901 22.4451 39.0549C22.4099 39.0198 22.3622 39 22.3125 39H10.6875C10.6378 39 10.5901 39.0198 10.5549 39.0549C10.5198 39.0901 10.5 39.1378 10.5 39.1875V42Z" fill="#F7FAFB"/>
<path d="M22.3125 22.5H10.6875C10.5839 22.5 10.5 22.5839 10.5 22.6875V35.8125C10.5 35.9161 10.5839 36 10.6875 36H22.3125C22.4161 36 22.5 35.9161 22.5 35.8125V22.6875C22.5 22.5839 22.4161 22.5 22.3125 22.5Z" fill="#F7FAFB"/>
<path d="M30 45H27C26.2044 45 25.4413 44.6839 24.8787 44.1213C24.3161 43.5587 24 42.7957 24 42V6C24 5.20435 24.3161 4.44129 24.8787 3.87868C25.4413 3.31607 26.2044 3 27 3H30C30.7956 3 31.5587 3.31607 32.1213 3.87868C32.6839 4.44129 33 5.20435 33 6V42C33 42.7957 32.6839 43.5587 32.1213 44.1213C31.5587 44.6839 30.7956 45 30 45ZM46.4897 41.7609L43.4681 9.88594C43.3294 8.41875 41.88 7.35469 40.2309 7.51312L37.245 7.79437C35.5959 7.95094 34.3716 9.26719 34.5103 10.7344L37.5319 42.6094C37.6706 44.0766 39.12 45.1406 40.7691 44.9822L43.755 44.7009C45.4041 44.5444 46.6284 43.2281 46.4897 41.7609Z" fill="#F7FAFB"/>
</svg>