<svg width="34" height="27" viewBox="0 0 34 27" fill="none" xmlns="http://www.w3.org/2000/svg">
<path d="M29.1936 0.384766H4.47394C3.38163 0.385934 2.33438 0.820373 1.562 1.59276C0.789612 2.36514 0.355172 3.41239 0.354004 4.50471V22.1616C0.355172 23.2539 0.789612 24.3012 1.562 25.0735C2.33438 25.8459 3.38163 26.2804 4.47394 26.2815H29.1936C30.2859 26.2804 31.3332 25.8459 32.1055 25.0735C32.8779 24.3012 33.3124 23.2539 33.3135 22.1616V4.50471C33.3124 3.41239 32.8779 2.36514 32.1055 1.59276C31.3332 0.820373 30.2859 0.385934 29.1936 0.384766ZM28.1504 7.19959L17.5562 15.4395C17.3496 15.6001 17.0954 15.6873 16.8338 15.6873C16.5721 15.6873 16.3179 15.6001 16.1113 15.4395L5.51717 7.19959C5.3927 7.10559 5.28815 6.98779 5.2096 6.85304C5.13105 6.71829 5.08006 6.56927 5.0596 6.41464C5.03914 6.26001 5.04962 6.10286 5.09042 5.95231C5.13122 5.80177 5.20153 5.66083 5.29727 5.53769C5.39301 5.41456 5.51227 5.31168 5.64811 5.23503C5.78396 5.15838 5.93368 5.1095 6.08858 5.09122C6.24348 5.07293 6.40047 5.08562 6.55043 5.12853C6.70039 5.17145 6.84032 5.24374 6.96209 5.3412L16.8338 13.019L26.7054 5.3412C26.9523 5.15479 27.2626 5.07303 27.5692 5.11361C27.8759 5.15418 28.1542 5.31383 28.3441 5.55803C28.534 5.80223 28.6201 6.11135 28.5838 6.41854C28.5476 6.72573 28.3919 7.00631 28.1504 7.19959Z" fill="#3B3F4C"/>
</svg>
