<svg width="212" height="62" viewBox="0 0 212 62" fill="none" xmlns="http://www.w3.org/2000/svg">
<path d="M0 5.45631V44.4751C0 45.3057 6.28915 43.2515 17.6639 42.4529C22.2233 41.9198 32.6395 41.0771 52.9915 41.0771C70.8886 41.0771 91.4173 42.404 111.274 43.6873L111.288 43.6882C128.957 44.8315 145.649 45.9097 158.975 45.9097C182.981 45.9097 200.534 44.0311 205.342 43.4557C207.309 43.2208 208.983 42.8342 210.16 42.3431C211.336 41.852 211.964 41.2777 211.966 40.6905V7.56302C211.966 7.11448 211.56 6.67293 210.784 6.27774C210.009 5.88254 208.888 5.54599 207.522 5.29808C206.156 5.05018 204.586 4.89862 202.954 4.85693C201.321 4.81523 199.677 4.8847 198.166 5.05913C185.763 6.49322 172.44 7.2376 158.975 7.24891C148.514 7.24891 133.097 5.75835 116.775 4.1802L116.732 4.17607C96.473 2.21836 73.5168 0 52.9915 0C26.7055 0 13.2479 1.26554 6.56874 2.3272C4.57031 2.64639 2.91233 3.10322 1.75986 3.65221C0.607385 4.20121 0.000631886 4.82322 0 5.45631Z" fill="#3D4F91"/>
<path d="M85.3451 29.3369L87.5279 29.3369L87.5279 16.8936L84.4497 16.8936L81.0543 25.27L77.6776 16.8936L74.5995 16.8936L74.5995 29.3369L76.7822 29.3369L76.7822 19.9158L80.5879 29.3369L81.5207 29.3369L85.3451 19.9158L85.3451 29.3369ZM95.6237 29.3369L97.5825 29.3369L97.5825 23.3671C97.5825 20.9419 95.8289 20.1023 93.8327 20.1023C92.3963 20.1023 91.0904 20.5687 90.0456 21.5575L90.8478 22.9194C91.6314 22.1545 92.5082 21.7814 93.5156 21.7814C94.7655 21.7814 95.6237 22.4157 95.6237 23.4604V24.8036C94.9707 24.0387 93.926 23.6469 92.7134 23.6469C91.2396 23.6469 89.5792 24.5051 89.5792 26.5759C89.5792 28.572 91.2396 29.5608 92.7134 29.5608C93.9074 29.5608 94.9521 29.1317 95.6237 28.3668V29.3369ZM95.6237 27.2848C95.176 27.9004 94.3364 28.2176 93.4783 28.2176C92.3776 28.2176 91.5567 27.5833 91.5567 26.6132C91.5567 25.6244 92.3776 24.9901 93.4783 24.9901C94.3364 24.9901 95.176 25.3073 95.6237 25.9229L95.6237 27.2848ZM99.3386 28.1616C100.271 29.0757 101.671 29.5608 103.2 29.5608C105.626 29.5608 106.95 28.3482 106.95 26.7624C106.95 24.6357 105.029 24.1879 103.462 23.8521C102.398 23.6096 101.503 23.3671 101.503 22.6768C101.503 22.0425 102.156 21.6694 103.182 21.6694C104.301 21.6694 105.308 22.1358 105.849 22.7515L106.67 21.3709C105.849 20.6434 104.693 20.1023 103.163 20.1023C100.887 20.1023 99.6185 21.3709 99.6185 22.8447C99.6185 24.8595 101.465 25.27 103.014 25.6058C104.115 25.8483 105.066 26.1281 105.066 26.9117C105.066 27.5833 104.469 28.0124 103.294 28.0124C102.118 28.0124 100.868 27.3967 100.234 26.7438L99.3386 28.1616ZM111.627 29.5608C112.541 29.5608 113.119 29.3183 113.474 28.9825L113.007 27.5087C112.858 27.6766 112.504 27.8258 112.13 27.8258C111.571 27.8258 111.272 27.3781 111.272 26.7624L111.272 22.0425L113.101 22.0425V20.3262L111.272 20.3262V17.8637L109.313 17.8637V20.3262L107.821 20.3262V22.0425L109.313 22.0425L109.313 27.2475C109.313 28.7399 110.116 29.5608 111.627 29.5608ZM120.98 29.3369L122.938 29.3369L122.938 22.9567C122.938 21.1098 121.968 20.1023 120.028 20.1023C118.61 20.1023 117.435 20.8486 116.838 21.5575L116.838 16.8936L114.879 16.8936L114.879 29.3369L116.838 29.3369L116.838 23.0499C117.304 22.4343 118.163 21.8373 119.151 21.8373C120.252 21.8373 120.98 22.2664 120.98 23.6656L120.98 29.3369ZM124.923 24.8222C124.923 27.6766 126.937 29.5608 129.642 29.5608C131.079 29.5608 132.404 29.113 133.299 28.2549L132.404 26.9676C131.769 27.6019 130.725 27.9564 129.848 27.9564C128.15 27.9564 127.124 26.8371 126.975 25.4752L133.933 25.4752V25.0088C133.933 22.1731 132.198 20.1023 129.493 20.1023C126.825 20.1023 124.923 22.2104 124.923 24.8222ZM129.493 21.7067C131.266 21.7067 131.993 23.0313 132.03 24.0947L126.956 24.0947C127.049 22.994 127.814 21.7067 129.493 21.7067ZM141.37 29.3369L143.329 29.3369V23.3671C143.329 20.9419 141.575 20.1023 139.579 20.1023C138.143 20.1023 136.837 20.5687 135.792 21.5575L136.594 22.9194C137.378 22.1545 138.255 21.7814 139.262 21.7814C140.512 21.7814 141.37 22.4157 141.37 23.4604V24.8036C140.717 24.0387 139.673 23.6469 138.46 23.6469C136.986 23.6469 135.326 24.5051 135.326 26.5759C135.326 28.572 136.986 29.5608 138.46 29.5608C139.654 29.5608 140.699 29.1317 141.37 28.3668V29.3369ZM141.37 27.2848C140.922 27.9004 140.083 28.2176 139.225 28.2176C138.124 28.2176 137.303 27.5833 137.303 26.6132C137.303 25.6244 138.124 24.9901 139.225 24.9901C140.083 24.9901 140.922 25.3073 141.37 25.9229V27.2848ZM152.212 29.3369L154.17 29.3369L154.17 16.8936L152.212 16.8936L152.212 21.5761C151.484 20.6247 150.439 20.1023 149.32 20.1023C146.988 20.1023 145.309 21.9306 145.309 24.8409C145.309 27.8071 147.007 29.5608 149.32 29.5608C150.477 29.5608 151.521 29.0011 152.212 28.1056V29.3369ZM152.212 26.6318C151.764 27.3034 150.812 27.8258 149.88 27.8258C148.331 27.8258 147.343 26.5759 147.343 24.8409C147.343 23.0873 148.331 21.8373 149.88 21.8373C150.812 21.8373 151.764 22.3783 152.212 23.0499V26.6318Z" fill="#F7FAFB"/>
<path d="M47.8809 43.5238C47.4464 43.5561 47.0078 43.5722 46.5651 43.5722C46.0267 43.5722 45.4944 43.5475 44.9684 43.5012C42.3658 43.2705 39.8439 42.48 37.5753 41.1839C35.3066 39.8878 33.345 38.1167 31.8245 35.9919C31.7845 35.9348 31.7306 35.8888 31.6679 35.8582C31.6052 35.8276 31.5357 35.8134 31.4661 35.817C31.3964 35.8206 31.3288 35.8419 31.2696 35.8788C31.2104 35.9157 31.1615 35.967 31.1276 36.0279L23.7151 49.3499C23.433 49.8646 23.3887 50.4823 23.6862 50.9847C23.8411 51.2338 24.0569 51.4394 24.3132 51.5821C24.5695 51.7247 24.8579 51.7998 25.1512 51.8001H33.1814C33.4612 51.7898 33.7386 51.8542 33.9851 51.9869C34.2316 52.1196 34.4382 52.3156 34.5836 52.5547L38.5637 59.2126C38.7094 59.4597 38.9161 59.6651 39.1639 59.8094C39.4118 59.9536 39.6926 60.0317 39.9793 60.0362C40.5909 60.0023 41.224 59.6049 41.4783 59.0479L48.2844 44.1045C48.3138 44.0396 48.3258 43.9681 48.3194 43.8972C48.3129 43.8262 48.2881 43.7581 48.2474 43.6996C48.2067 43.6411 48.1516 43.5942 48.0873 43.5633C48.0231 43.5325 47.9519 43.5189 47.8809 43.5238V43.5238ZM69.3607 49.3169L61.9965 36.0187C61.9625 35.9583 61.9138 35.9075 61.855 35.871C61.7961 35.8345 61.7289 35.8134 61.6598 35.8097C61.5906 35.806 61.5216 35.8198 61.4592 35.8498C61.3967 35.8799 61.3429 35.9252 61.3026 35.9816C59.2775 38.8191 56.4788 41.0141 53.2405 42.3049C52.8429 42.4616 52.5213 42.7659 52.3428 43.1542L48.548 51.5036C48.4991 51.6102 48.4738 51.7261 48.4738 51.8433C48.4738 51.9606 48.4991 52.0765 48.548 52.1831L51.6643 59.0386C51.9166 59.5956 52.5487 60.0023 53.1592 60.0362C53.4461 60.0292 53.7265 59.9486 53.9734 59.8022C54.2204 59.6559 54.4256 59.4486 54.5696 59.2003L58.5363 52.5517C58.8339 52.0523 59.3733 51.797 59.955 51.8001H68.0645C68.7512 51.8001 69.2711 51.4418 69.5058 50.7706C69.5883 50.5322 69.6181 50.2788 69.593 50.0278C69.5679 49.7768 69.4887 49.5343 69.3607 49.3169V49.3169Z" fill="#E0CD89"/>
<path d="M46.5697 30.3858C49.2994 30.3858 51.5124 28.1733 51.5124 25.4441C51.5124 22.7149 49.2994 20.5024 46.5697 20.5024C43.8399 20.5024 41.627 22.7149 41.627 25.4441C41.627 28.1733 43.8399 30.3858 46.5697 30.3858Z" fill="#E0CD89"/>
<path d="M46.5696 10.6162C38.3932 10.6162 31.7446 17.2658 31.7446 25.4412C31.7446 33.6166 38.3963 40.2662 46.5696 40.2662C54.743 40.2662 61.3947 33.6156 61.3947 25.4412C61.3947 17.2669 54.745 10.6162 46.5696 10.6162ZM46.5696 33.6773C44.9407 33.6773 43.3483 33.1943 41.9939 32.2893C40.6395 31.3843 39.5838 30.098 38.9605 28.5931C38.3371 27.0881 38.174 25.4321 38.4918 23.8344C38.8096 22.2368 39.594 20.7693 40.7458 19.6174C41.8977 18.4656 43.3652 17.6812 44.9629 17.3634C46.5605 17.0456 48.2165 17.2087 49.7215 17.832C51.2264 18.4554 52.5127 19.5111 53.4177 20.8655C54.3227 22.2199 54.8058 23.8123 54.8058 25.4412C54.803 27.6247 53.9344 29.7181 52.3905 31.262C50.8465 32.806 48.7532 33.6746 46.5696 33.6773V33.6773Z" fill="#E0CD89"/>
</svg>