<svg width="307" height="329" viewBox="0 0 307 329" fill="none" xmlns="http://www.w3.org/2000/svg">
<path d="M162.361 218.763C159.485 218.976 156.581 219.083 153.65 219.083C150.085 219.083 146.561 218.92 143.077 218.613C125.846 217.085 109.148 211.852 94.1278 203.27C79.1074 194.689 66.1191 182.962 56.0524 168.894C55.7873 168.516 55.4304 168.211 55.0152 168.009C54.6001 167.806 54.1403 167.712 53.679 167.736C53.2177 167.76 52.7701 167.901 52.378 168.145C51.986 168.389 51.6624 168.729 51.4377 169.133L2.35958 257.337C0.491884 260.745 0.19878 264.835 2.16872 268.161C3.19419 269.811 4.62275 271.172 6.31975 272.116C8.01676 273.061 9.92632 273.558 11.8685 273.56H65.0364C66.8885 273.491 68.7253 273.918 70.3573 274.797C71.9893 275.675 73.3574 276.973 74.3204 278.556L100.673 322.638C101.637 324.274 103.005 325.634 104.646 326.589C106.288 327.544 108.147 328.061 110.045 328.091C114.094 327.866 118.286 325.235 119.97 321.547L165.033 222.607C165.228 222.178 165.307 221.705 165.264 221.235C165.221 220.765 165.057 220.314 164.788 219.927C164.519 219.539 164.154 219.229 163.728 219.024C163.303 218.82 162.832 218.73 162.361 218.763ZM304.579 257.119L255.821 169.071C255.596 168.672 255.273 168.335 254.883 168.093C254.494 167.852 254.049 167.712 253.591 167.687C253.133 167.663 252.676 167.755 252.263 167.953C251.85 168.152 251.493 168.453 251.227 168.826C237.818 187.613 219.288 202.146 197.847 210.692C195.215 211.73 193.085 213.745 191.903 216.316L166.778 271.597C166.455 272.303 166.287 273.07 166.287 273.846C166.287 274.623 166.455 275.39 166.778 276.096L187.411 321.486C189.081 325.174 193.267 327.866 197.309 328.091C199.209 328.044 201.065 327.511 202.7 326.542C204.335 325.573 205.694 324.201 206.647 322.556L232.911 278.536C234.881 275.23 238.453 273.54 242.304 273.56H295.997C300.543 273.56 303.986 271.188 305.54 266.744C306.086 265.165 306.283 263.487 306.117 261.826C305.951 260.164 305.426 258.558 304.579 257.119Z" fill="#E0CD89"/>
<path d="M153.677 131.781C171.751 131.781 186.402 117.133 186.402 99.0625C186.402 80.9924 171.751 66.3438 153.677 66.3438C135.603 66.3438 120.951 80.9924 120.951 99.0625C120.951 117.133 135.603 131.781 153.677 131.781Z" fill="#E0CD89"/>
<path d="M153.677 0.90625C99.5409 0.90625 55.5205 44.9334 55.5205 99.0625C55.5205 153.192 99.5613 197.219 153.677 197.219C207.792 197.219 251.833 153.185 251.833 99.0625C251.833 44.9402 207.806 0.90625 153.677 0.90625ZM153.677 153.594C142.892 153.594 132.348 150.396 123.381 144.404C114.413 138.412 107.424 129.895 103.296 119.931C99.1691 109.966 98.0892 99.002 100.193 88.424C102.297 77.846 107.491 68.1294 115.117 60.5031C122.744 52.8768 132.46 47.6832 143.038 45.5791C153.616 43.475 164.581 44.5549 174.545 48.6822C184.509 52.8095 193.026 59.7989 199.018 68.7666C205.01 77.7342 208.208 88.2772 208.208 99.0625C208.19 113.52 202.439 127.379 192.216 137.602C181.994 147.825 168.134 153.576 153.677 153.594Z" fill="#E0CD89"/>
</svg>
