<svg width="729" height="677" viewBox="0 0 729 677" fill="none" xmlns="http://www.w3.org/2000/svg">
<g filter="url(#filter0_i)">
<path d="M548.285 570.745H-11.2047L-70.397 344.181C-72.1065 337.643 -71.8187 330.743 -69.5677 324.368L-7.50939 148.41C-3.02426 135.688 8.59194 126.842 22.053 125.899L471.022 94.5149C485.459 93.505 498.943 101.787 504.568 115.124L594.953 329.332C597.672 335.781 598.327 342.917 596.826 349.755L548.285 570.745Z" fill="#F3F3F3"/>
<path d="M238.699 311.821H23.6608C20.2194 311.821 17.4268 309.028 17.4268 305.587V160.618C17.4268 157.177 20.2194 154.384 23.6608 154.384H238.699C242.14 154.384 244.933 157.177 244.933 160.618V305.592C244.933 309.034 242.146 311.821 238.699 311.821Z" fill="white"/>
<path d="M235.636 163.675H26.7246V302.602H235.636V163.675Z" fill="#ECECEC"/>
<path d="M83.9995 190.717H40.8125V241.893H83.9995V190.717Z" fill="white"/>
<path opacity="0.15" d="M63.9594 194.198C63.9594 195.056 63.2654 195.749 62.4079 195.749C61.5504 195.749 60.8564 195.056 60.8564 194.198C60.8564 193.34 61.5504 192.647 62.4079 192.647C63.2654 192.647 63.9594 193.34 63.9594 194.198Z" fill="black"/>
<path d="M167.851 216.651H116.749V277.203H167.851V216.651Z" fill="white"/>
<path opacity="0.15" d="M143.852 224.82C143.852 225.678 143.158 226.372 142.3 226.372C141.443 226.372 140.749 225.678 140.749 224.82C140.749 223.963 141.443 223.269 142.3 223.269C143.158 223.269 143.852 223.963 143.852 224.82Z" fill="black"/>
<path d="M106.013 176.651H80.0273V202.637H106.013V176.651Z" fill="#D9DCDE"/>
<path d="M94.5717 179.286C94.5717 180.143 93.8777 180.837 93.0202 180.837C92.1627 180.837 91.4688 180.143 91.4688 179.286C91.4688 178.428 92.1627 177.734 93.0202 177.734C93.8777 177.734 94.5717 178.428 94.5717 179.286Z" fill="#B1B5BA"/>
<path opacity="0.15" d="M63.9594 194.198C63.9594 195.056 63.2654 195.749 62.4079 195.749C61.5504 195.749 60.8564 195.056 60.8564 194.198C60.8564 193.34 61.5504 192.647 62.4079 192.647C63.2654 192.647 63.9594 193.34 63.9594 194.198Z" fill="black"/>
<path opacity="0.15" d="M143.852 224.82C143.852 225.678 143.158 226.372 142.3 226.372C141.443 226.372 140.749 225.678 140.749 224.82C140.749 223.963 141.443 223.269 142.3 223.269C143.158 223.269 143.852 223.963 143.852 224.82Z" fill="black"/>
<path opacity="0.15" d="M94.5717 179.286C94.5717 180.143 93.8777 180.837 93.0202 180.837C92.1627 180.837 91.4688 180.143 91.4688 179.286C91.4688 178.428 92.1627 177.734 93.0202 177.734C93.8777 177.734 94.5717 178.428 94.5717 179.286Z" fill="black"/>
<path d="M267.527 391.154H-13.0391V539.902H267.527V391.154Z" fill="#D9DCDE"/>
<path d="M260.725 533.099V397.958H-6.2334V533.099H260.725Z" fill="#F3F3F3"/>
<path d="M260.341 533.099V397.958H-6.2334V533.099H260.341Z" fill="#F3F3F3"/>
<path d="M284.452 539.902V391.154H267.521V539.902H284.452Z" fill="#B1B5BA"/>
<path d="M260.725 469.156V461.9H-6.2334V469.156H260.725Z" fill="#D9DCDE"/>
<path d="M32.1186 402.9H17.9072V461.9H32.1186V402.9Z" fill="#B1B5BA"/>
<path d="M32.1182 461.9H70.1035V402.9H32.1182V461.9Z" fill="#D9DCDE"/>
<path d="M44.7321 409.652H36.7266V461.9H44.7321V409.652Z" fill="#B1B5BA"/>
<path d="M44.7324 461.894H66.1313V409.646H44.7324V461.894Z" fill="#D9DCDE"/>
<path d="M69.0883 461.9H57.2295L50.3975 412.659H62.2562L69.0883 461.9Z" fill="#B1B5BA"/>
<path d="M69.0879 461.9H100.788L93.9564 412.659H62.2559L69.0879 461.9Z" fill="#D9DCDE"/>
<path d="M21.4213 533.098H9.56252L2.73047 483.863H14.5892L21.4213 533.098Z" fill="#B1B5BA"/>
<path d="M21.4209 533.098H53.1214L46.2894 483.863H14.5889L21.4209 533.098Z" fill="#D9DCDE"/>
<path d="M191.732 533.099V517.793H118.887V533.099H191.732Z" fill="#D9DCDE"/>
<path d="M170.265 505.861V493.488H118.887V505.861H170.265Z" fill="#D9DCDE"/>
<path d="M182.429 517.798V505.866H118.887V517.798H182.429Z" fill="#D9DCDE"/>
<path d="M178.965 414.098H167.45V461.9H178.965V414.098Z" fill="#B1B5BA"/>
<path d="M178.96 461.9H209.735V414.098H178.96V461.9Z" fill="#D9DCDE"/>
<path d="M204.414 419.565H193.362V461.9H204.414V419.565Z" fill="#B1B5BA"/>
<path d="M204.414 461.9H223.314V419.565H204.414V461.9Z" fill="#D9DCDE"/>
<path d="M170.265 503.801H118.887V505.866H170.265V503.801Z" fill="#B1B5BA"/>
<path d="M182.429 515.733H118.887V517.798H182.429V515.733Z" fill="#B1B5BA"/>
<path d="M191.732 531.038H118.887V533.103H191.732V531.038Z" fill="#B1B5BA"/>
<path d="M548.28 191.76H356.339V197.255H548.28V191.76Z" fill="white"/>
<path d="M280.408 539.902L283.02 568.894C283.223 569.949 282.416 570.954 281.361 570.954C280.656 570.954 280.007 570.502 279.753 569.797L272.165 539.902H280.408Z" fill="#D9DCDE"/>
<path d="M279.454 556.787L276.289 556.032L272.222 539.953H280.464L283.076 568.945C283.229 569.746 282.777 570.553 282.072 570.852L279.454 556.787Z" fill="#B1B5BA"/>
<path d="M250.812 539.902L253.424 568.894C253.627 569.949 252.82 570.954 251.765 570.954C251.06 570.954 250.411 570.502 250.157 569.797L242.569 539.902H250.812Z" fill="#D9DCDE"/>
<path d="M248.052 543.118L243.33 542.215L242.523 539.902H250.766L253.378 568.894C253.53 569.696 253.079 570.502 252.374 570.801L248.052 543.118Z" fill="#B1B5BA"/>
<path d="M31.334 539.902L28.7219 568.894C28.5188 569.949 29.3255 570.954 30.3805 570.954C31.0857 570.954 31.7345 570.502 31.9884 569.797L39.5765 539.902H31.334Z" fill="#D9DCDE"/>
<path d="M32.7898 555.327L29.9746 554.621L31.3286 539.896H39.5711L31.983 569.791C31.7292 570.497 31.0804 570.948 30.3752 570.948C30.3244 570.948 30.3244 570.948 30.2736 570.948L32.7898 555.327Z" fill="#B1B5BA"/>
<path d="M0.936503 539.902L-1.67557 568.894C-1.87867 569.949 -1.07191 570.954 -0.0169226 570.954C0.688286 570.954 1.33706 570.502 1.59094 569.797L9.17899 539.902H0.936503Z" fill="#D9DCDE"/>
<path d="M4.15258 542.412L0.536271 541.758L0.936825 539.896H9.17931L1.59126 569.791C1.33739 570.497 0.688607 570.948 -0.016601 570.948C-0.067376 570.948 -0.0673891 570.948 -0.118164 570.948L4.15258 542.412Z" fill="#B1B5BA"/>
<path d="M223.314 418.076H193.362V419.571H223.314V418.076Z" fill="#B1B5BA"/>
<path opacity="0.15" d="M223.314 418.076H193.362V419.571H223.314V418.076Z" fill="black"/>
<path opacity="0.15" d="M70.1027 408.518H36.7266V409.652H70.1027V408.518Z" fill="black"/>
<path d="M62.2558 412.66H70.1033V411.565H50.2334L50.397 412.66H62.2558Z" fill="#B1B5BA"/>
<path opacity="0.15" d="M70.1027 408.518H36.7266V409.652H70.1027V408.518Z" fill="black"/>
<path opacity="0.15" d="M62.2558 412.66H70.1033V411.565H50.2334L50.397 412.66H62.2558Z" fill="black"/>
<path d="M360.18 226.457L302.455 288.324C298.162 292.927 290.489 290.733 289.219 284.583L282.912 252.933L299.781 214.034L306.19 254.671L346.973 220.313L360.18 226.457Z" fill="#FB9C9C"/>
<path d="M508.676 571.422H328.041C323.561 571.422 319.99 567.794 319.99 563.371V232.938C319.99 228.459 323.618 224.888 328.041 224.888H508.676C513.155 224.888 516.726 228.515 516.726 232.938V563.371C516.726 567.851 513.155 571.422 508.676 571.422Z" fill="#3D4F91"/>
<path opacity="0.5" d="M508.676 571.422H328.041C323.561 571.422 319.99 567.794 319.99 563.371V232.938C319.99 228.459 323.618 224.888 328.041 224.888H508.676C513.155 224.888 516.726 228.515 516.726 232.938V563.371C516.726 567.851 513.155 571.422 508.676 571.422Z" fill="white"/>
<path d="M503.118 571.422H322.489C318.01 571.422 314.438 567.794 314.438 563.371V232.938C314.438 228.459 318.066 224.888 322.489 224.888H503.124C507.603 224.888 511.175 228.515 511.175 232.938V563.371C511.169 567.851 507.598 571.422 503.118 571.422Z" fill="#3D4F91"/>
<path opacity="0.7" d="M503.118 571.422H322.489C318.01 571.422 314.438 567.794 314.438 563.371V232.938C314.438 228.459 318.066 224.888 322.489 224.888H503.124C507.603 224.888 511.175 228.515 511.175 232.938V563.371C511.169 567.851 507.598 571.422 503.118 571.422Z" fill="white"/>
<path d="M477.579 338.788H357.157C355.826 338.788 354.782 337.711 354.782 336.413V298.964C354.782 297.632 355.86 296.589 357.157 296.589H477.584C478.916 296.589 479.96 297.666 479.96 298.964V336.413C479.954 337.745 478.91 338.788 477.579 338.788Z" fill="#3D4F91"/>
<path opacity="0.5" d="M477.579 338.788H357.157C355.826 338.788 354.782 337.711 354.782 336.413V298.964C354.782 297.632 355.86 296.589 357.157 296.589H477.584C478.916 296.589 479.96 297.666 479.96 298.964V336.413C479.954 337.745 478.91 338.788 477.579 338.788Z" fill="white"/>
<path d="M474.475 338.788H354.048C352.717 338.788 351.673 337.711 351.673 336.413V298.964C351.673 297.632 352.75 296.589 354.048 296.589H474.475C475.806 296.589 476.85 297.666 476.85 298.964V336.413C476.884 337.745 475.806 338.788 474.475 338.788Z" fill="white"/>
<path d="M444.535 312.441H409.128C407.864 312.441 406.871 311.583 406.871 310.573C406.871 309.529 407.904 308.706 409.128 308.706H444.535C445.799 308.706 446.792 309.563 446.792 310.573C446.792 311.617 445.799 312.441 444.535 312.441Z" fill="#61656D"/>
<path d="M461.894 319.759H408.056C407.407 319.759 406.871 319.313 406.871 318.777C406.871 318.241 407.407 317.796 408.056 317.796H461.894C462.543 317.796 463.079 318.241 463.079 318.777C463.119 319.319 462.543 319.759 461.894 319.759Z" fill="#B0B4B9"/>
<path d="M440.14 325.846H408.062C407.413 325.846 406.877 325.4 406.877 324.864C406.877 324.328 407.413 323.882 408.062 323.882H440.14C440.789 323.882 441.325 324.328 441.325 324.864C441.325 325.4 440.789 325.846 440.14 325.846Z" fill="#B0B4B9"/>
<path d="M381.8 304.379H379.267V304.632C373.372 305.806 368.909 311.031 368.909 317.276C368.909 323.516 373.344 328.745 379.267 329.918V330.173H381.8C388.931 330.173 394.697 324.407 394.697 317.276C394.692 310.145 388.926 304.379 381.8 304.379Z" fill="#3D4F91"/>
<path d="M379.26 330.14C386.38 330.14 392.157 324.363 392.157 317.243C392.157 310.123 386.38 304.346 379.26 304.346C372.14 304.346 366.363 310.117 366.363 317.243C366.363 324.368 372.135 330.14 379.26 330.14Z" fill="#3D4F91"/>
<path opacity="0.4" d="M379.26 330.14C386.38 330.14 392.157 324.363 392.157 317.243C392.157 310.123 386.38 304.346 379.26 304.346C372.14 304.346 366.363 310.117 366.363 317.243C366.363 324.368 372.135 330.14 379.26 330.14Z" fill="white"/>
<path d="M376.858 322.631L372.52 318.292C372.299 318.072 372.299 317.689 372.52 317.435L373.659 316.295C373.879 316.075 374.263 316.075 374.517 316.295L377.304 319.082L384.023 312.335C384.243 312.115 384.627 312.115 384.88 312.335L386.02 313.474C386.24 313.694 386.24 314.078 386.02 314.332L377.721 322.631C377.49 322.879 377.112 322.879 376.858 322.631Z" fill="white"/>
<path d="M477.579 405.241H357.157C355.826 405.241 354.782 404.163 354.782 402.866V365.416C354.782 364.085 355.86 363.041 357.157 363.041H477.584C478.916 363.041 479.96 364.119 479.96 365.416V402.866C479.954 404.197 478.91 405.241 477.579 405.241Z" fill="#3D4F91"/>
<path opacity="0.5" d="M477.579 405.241H357.157C355.826 405.241 354.782 404.163 354.782 402.866V365.416C354.782 364.085 355.86 363.041 357.157 363.041H477.584C478.916 363.041 479.96 364.119 479.96 365.416V402.866C479.954 404.197 478.91 405.241 477.579 405.241Z" fill="white"/>
<path d="M474.475 405.241H354.048C352.717 405.241 351.673 404.163 351.673 402.866V365.416C351.673 364.085 352.75 363.041 354.048 363.041H474.475C475.806 363.041 476.85 364.119 476.85 365.416V402.866C476.884 404.197 475.806 405.241 474.475 405.241Z" fill="white"/>
<path d="M444.535 378.894H409.128C407.864 378.894 406.871 378.037 406.871 377.027C406.871 375.983 407.904 375.16 409.128 375.16H444.535C445.799 375.16 446.792 376.017 446.792 377.027C446.792 378.071 445.799 378.894 444.535 378.894Z" fill="#61656D"/>
<path d="M461.894 386.212H408.056C407.407 386.212 406.871 385.766 406.871 385.23C406.871 384.694 407.407 384.248 408.056 384.248H461.894C462.543 384.248 463.079 384.694 463.079 385.23C463.119 385.772 462.543 386.212 461.894 386.212Z" fill="#B0B4B9"/>
<path d="M440.14 392.293H408.062C407.413 392.293 406.877 391.847 406.877 391.311C406.877 390.775 407.413 390.329 408.062 390.329H440.14C440.789 390.329 441.325 390.775 441.325 391.311C441.325 391.853 440.789 392.293 440.14 392.293Z" fill="#B0B4B9"/>
<path d="M381.8 370.833H379.267V371.087C373.372 372.26 368.909 377.484 368.909 383.73C368.909 389.975 373.344 395.199 379.267 396.373V396.627H381.8C388.931 396.627 394.697 390.861 394.697 383.73C394.692 376.599 388.926 370.833 381.8 370.833Z" fill="#3D4F91"/>
<path d="M379.26 396.592C386.38 396.592 392.157 390.821 392.157 383.695C392.157 376.57 386.38 370.799 379.26 370.799C372.14 370.799 366.363 376.57 366.363 383.695C366.363 390.821 372.135 396.592 379.26 396.592Z" fill="#3D4F91"/>
<path opacity="0.4" d="M379.26 396.592C386.38 396.592 392.157 390.821 392.157 383.695C392.157 376.57 386.38 370.799 379.26 370.799C372.14 370.799 366.363 376.57 366.363 383.695C366.363 390.821 372.135 396.592 379.26 396.592Z" fill="white"/>
<path d="M376.858 389.078L372.52 384.739C372.299 384.519 372.299 384.135 372.52 383.882L373.659 382.742C373.879 382.522 374.263 382.522 374.517 382.742L377.304 385.529L384.023 378.781C384.243 378.561 384.627 378.561 384.88 378.781L386.02 379.921C386.24 380.141 386.24 380.525 386.02 380.779L377.721 389.078C377.49 389.331 377.112 389.331 376.858 389.078Z" fill="white"/>
<path d="M477.579 471.694H357.157C355.826 471.694 354.782 470.616 354.782 469.318V431.869C354.782 430.538 355.86 429.494 357.157 429.494H477.584C478.916 429.494 479.96 430.571 479.96 431.869V469.318C479.954 470.644 478.91 471.694 477.579 471.694Z" fill="#3D4F91"/>
<path opacity="0.5" d="M477.579 471.694H357.157C355.826 471.694 354.782 470.616 354.782 469.318V431.869C354.782 430.538 355.86 429.494 357.157 429.494H477.584C478.916 429.494 479.96 430.571 479.96 431.869V469.318C479.954 470.644 478.91 471.694 477.579 471.694Z" fill="white"/>
<path d="M474.475 471.694H354.048C352.717 471.694 351.673 470.616 351.673 469.318V431.869C351.673 430.538 352.75 429.494 354.048 429.494H474.475C475.806 429.494 476.85 430.571 476.85 431.869V469.318C476.884 470.644 475.806 471.694 474.475 471.694Z" fill="white"/>
<path d="M444.535 445.348H409.128C407.864 445.348 406.871 444.49 406.871 443.48C406.871 442.436 407.904 441.613 409.128 441.613H444.535C445.799 441.613 446.792 442.47 446.792 443.48C446.792 444.524 445.799 445.348 444.535 445.348Z" fill="#61656D"/>
<path d="M461.894 452.665H408.056C407.407 452.665 406.871 452.22 406.871 451.684C406.871 451.148 407.407 450.702 408.056 450.702H461.894C462.543 450.702 463.079 451.148 463.079 451.684C463.119 452.225 462.543 452.665 461.894 452.665Z" fill="#B0B4B9"/>
<path d="M440.14 458.747H408.062C407.413 458.747 406.877 458.301 406.877 457.765C406.877 457.229 407.413 456.783 408.062 456.783H440.14C440.789 456.783 441.325 457.229 441.325 457.765C441.325 458.306 440.789 458.747 440.14 458.747Z" fill="#B0B4B9"/>
<path d="M381.8 437.286H379.267V437.54C373.372 438.713 368.909 443.937 368.909 450.183C368.909 456.422 373.344 461.652 379.267 462.825V463.079H381.8C388.931 463.079 394.697 457.314 394.697 450.183C394.692 443.051 388.926 437.286 381.8 437.286Z" fill="#3D4F91"/>
<path d="M379.26 463.045C386.38 463.045 392.157 457.273 392.157 450.148C392.157 443.023 386.38 437.251 379.26 437.251C372.14 437.251 366.363 443.023 366.363 450.148C366.363 457.273 372.135 463.045 379.26 463.045Z" fill="#3D4F91"/>
<path opacity="0.4" d="M379.26 463.045C386.38 463.045 392.157 457.273 392.157 450.148C392.157 443.023 386.38 437.251 379.26 437.251C372.14 437.251 366.363 443.023 366.363 450.148C366.363 457.273 372.135 463.045 379.26 463.045Z" fill="white"/>
<path d="M376.858 455.531L372.52 451.193C372.299 450.973 372.299 450.589 372.52 450.335L373.659 449.196C373.879 448.976 374.263 448.976 374.517 449.196L377.304 451.983L384.023 445.235C384.243 445.015 384.627 445.015 384.88 445.235L386.02 446.375C386.24 446.595 386.24 446.979 386.02 447.232L377.721 455.531C377.49 455.785 377.112 455.785 376.858 455.531Z" fill="white"/>
<path d="M477.579 539.563H357.157C355.826 539.563 354.782 538.486 354.782 537.188V499.739C354.782 498.407 355.86 497.364 357.157 497.364H477.584C478.916 497.364 479.96 498.441 479.96 499.739V537.188C479.954 538.52 478.91 539.563 477.579 539.563Z" fill="#3D4F91"/>
<path opacity="0.5" d="M477.579 539.563H357.157C355.826 539.563 354.782 538.486 354.782 537.188V499.739C354.782 498.407 355.86 497.364 357.157 497.364H477.584C478.916 497.364 479.96 498.441 479.96 499.739V537.188C479.954 538.52 478.91 539.563 477.579 539.563Z" fill="white"/>
<path d="M474.475 539.563H354.048C352.717 539.563 351.673 538.486 351.673 537.188V499.739C351.673 498.407 352.75 497.364 354.048 497.364H474.475C475.806 497.364 476.85 498.441 476.85 499.739V537.188C476.884 538.52 475.806 539.563 474.475 539.563Z" fill="white"/>
<path d="M444.535 513.217H409.128C407.864 513.217 406.871 512.359 406.871 511.349C406.871 510.306 407.904 509.482 409.128 509.482H444.535C445.799 509.482 446.792 510.34 446.792 511.349C446.792 512.393 445.799 513.217 444.535 513.217Z" fill="#61656D"/>
<path d="M461.894 520.534H408.056C407.407 520.534 406.871 520.088 406.871 519.552C406.871 519.016 407.407 518.571 408.056 518.571H461.894C462.543 518.571 463.079 519.016 463.079 519.552C463.119 520.094 462.543 520.534 461.894 520.534Z" fill="#B0B4B9"/>
<path d="M440.14 526.622H408.062C407.413 526.622 406.877 526.176 406.877 525.64C406.877 525.104 407.413 524.659 408.062 524.659H440.14C440.789 524.659 441.325 525.104 441.325 525.64C441.325 526.176 440.789 526.622 440.14 526.622Z" fill="#B0B4B9"/>
<path d="M381.8 505.155H379.267V505.409C373.372 506.582 368.909 511.806 368.909 518.052C368.909 524.297 373.344 529.521 379.267 530.695V530.949H381.8C388.931 530.949 394.697 525.183 394.697 518.052C394.692 510.921 388.926 505.155 381.8 505.155Z" fill="#3D4F91"/>
<path d="M379.26 530.915C386.38 530.915 392.157 525.143 392.157 518.018C392.157 510.892 386.38 505.121 379.26 505.121C372.14 505.121 366.363 510.898 366.363 518.018C366.363 525.138 372.135 530.915 379.26 530.915Z" fill="#3D4F91"/>
<path opacity="0.4" d="M379.26 530.915C386.38 530.915 392.157 525.143 392.157 518.018C392.157 510.892 386.38 505.121 379.26 505.121C372.14 505.121 366.363 510.898 366.363 518.018C366.363 525.138 372.135 530.915 379.26 530.915Z" fill="white"/>
<path d="M376.858 523.406L372.52 519.067C372.299 518.847 372.299 518.464 372.52 518.21L373.659 517.07C373.879 516.85 374.263 516.85 374.517 517.07L377.304 519.857L384.023 513.11C384.243 512.89 384.627 512.89 384.88 513.11L386.02 514.249C386.24 514.469 386.24 514.853 386.02 515.107L377.721 523.406C377.49 523.654 377.112 523.654 376.858 523.406Z" fill="white"/>
<path d="M364.079 272.363C363.831 272.363 363.611 272.278 363.408 272.103C363.233 271.906 363.148 271.68 363.148 271.432V252.183H356.536C356.288 252.183 356.068 252.098 355.865 251.923C355.69 251.726 355.605 251.5 355.605 251.257V247.28C355.605 247.009 355.69 246.783 355.865 246.609C356.062 246.434 356.288 246.349 356.536 246.349H376.53C376.801 246.349 377.027 246.434 377.202 246.609C377.377 246.783 377.461 247.003 377.461 247.28V251.257C377.461 251.528 377.377 251.754 377.202 251.923C377.027 252.098 376.807 252.183 376.53 252.183H369.913V271.432C369.913 271.68 369.828 271.9 369.653 272.103C369.478 272.278 369.258 272.363 368.982 272.363H364.079ZM376.694 272.363C376.497 272.363 376.31 272.289 376.136 272.137C375.989 271.962 375.915 271.776 375.915 271.579C375.915 271.432 375.927 271.319 375.955 271.246L384.688 247.387C384.762 247.088 384.925 246.84 385.173 246.642C385.422 246.445 385.743 246.343 386.138 246.343H391.633C392.034 246.343 392.355 246.439 392.604 246.642C392.852 246.84 393.01 247.088 393.083 247.387L401.783 271.246L401.856 271.579C401.856 271.776 401.766 271.962 401.596 272.137C401.444 272.284 401.258 272.363 401.038 272.363H396.468C395.87 272.363 395.475 272.103 395.278 271.584L393.828 267.793H383.904L382.494 271.584C382.296 272.103 381.884 272.363 381.269 272.363H376.694ZM392.344 262.439L388.886 252.628L385.427 262.439H392.344ZM414.081 272.73C411.729 272.73 409.709 272.385 408.028 271.691C406.341 270.998 405.066 270.095 404.197 268.978C403.357 267.838 402.911 266.603 402.86 265.26C402.86 265.062 402.933 264.888 403.086 264.741C403.255 264.566 403.458 264.481 403.678 264.481H408.361C408.66 264.481 408.891 264.543 409.066 264.668C409.263 264.763 409.461 264.927 409.664 265.153C409.986 265.796 410.505 266.332 411.221 266.749C411.943 267.172 412.897 267.381 414.081 267.381C415.497 267.381 416.575 267.161 417.314 266.71C418.059 266.264 418.431 265.655 418.431 264.888C418.431 264.34 418.234 263.895 417.839 263.551C417.466 263.206 416.868 262.896 416.056 262.62C415.238 262.349 414.019 262.039 412.411 261.689C409.438 261.068 407.21 260.166 405.72 258.975C404.259 257.762 403.531 256.041 403.531 253.813C403.531 252.301 403.949 250.953 404.795 249.762C405.636 248.572 406.837 247.641 408.4 246.975C409.957 246.304 411.78 245.971 413.861 245.971C416.016 245.971 417.884 246.343 419.475 247.088C421.06 247.833 422.262 248.775 423.074 249.915C423.92 251.032 424.366 252.132 424.417 253.221C424.417 253.446 424.338 253.627 424.191 253.779C424.045 253.926 423.858 254.005 423.633 254.005H418.73C418.431 254.005 418.183 253.954 417.985 253.858C417.811 253.757 417.652 253.599 417.5 253.373C417.353 252.803 416.947 252.318 416.276 251.923C415.633 251.528 414.826 251.331 413.861 251.331C412.744 251.331 411.892 251.528 411.294 251.923C410.702 252.318 410.403 252.905 410.403 253.672C410.403 254.191 410.567 254.625 410.888 254.975C411.232 255.319 411.78 255.641 412.524 255.94C413.292 256.211 414.38 256.498 415.791 256.792C418.098 257.215 419.932 257.745 421.291 258.388C422.679 259.009 423.695 259.827 424.338 260.843C424.987 261.835 425.308 263.082 425.308 264.594C425.308 266.253 424.823 267.703 423.858 268.944C422.916 270.157 421.59 271.099 419.881 271.77C418.194 272.408 416.265 272.73 414.081 272.73ZM429.957 272.363C429.709 272.363 429.483 272.278 429.286 272.103C429.111 271.906 429.026 271.68 429.026 271.432V247.274C429.026 247.003 429.111 246.778 429.286 246.603C429.483 246.428 429.709 246.343 429.957 246.343H434.64C434.91 246.343 435.13 246.428 435.305 246.603C435.48 246.778 435.565 246.998 435.565 247.274V255.522L442.442 247.049C442.741 246.58 443.221 246.343 443.892 246.343H449.24C449.466 246.343 449.652 246.428 449.799 246.603C449.945 246.75 450.024 246.925 450.024 247.122C450.024 247.297 449.985 247.444 449.912 247.568L440.992 258.789L450.577 271.127C450.679 271.229 450.73 271.375 450.73 271.573C450.73 271.77 450.656 271.957 450.504 272.131C450.357 272.278 450.171 272.357 449.945 272.357H444.411C443.819 272.357 443.322 272.109 442.922 271.612L435.565 262.433V271.426C435.565 271.697 435.48 271.923 435.305 272.098C435.13 272.273 434.91 272.357 434.64 272.357H429.957V272.363ZM462.639 272.73C460.287 272.73 458.267 272.385 456.586 271.691C454.899 270.998 453.624 270.095 452.755 268.978C451.914 267.838 451.469 266.603 451.418 265.26C451.418 265.062 451.491 264.888 451.638 264.741C451.813 264.566 452.01 264.481 452.236 264.481H456.918C457.217 264.481 457.449 264.543 457.624 264.668C457.821 264.763 458.019 264.927 458.216 265.153C458.538 265.796 459.062 266.332 459.779 266.749C460.495 267.172 461.449 267.381 462.639 267.381C464.055 267.381 465.133 267.161 465.872 266.71C466.617 266.264 466.989 265.655 466.989 264.888C466.989 264.34 466.791 263.895 466.397 263.551C466.024 263.206 465.426 262.896 464.608 262.62C463.79 262.349 462.577 262.039 460.969 261.689C457.996 261.068 455.768 260.166 454.278 258.975C452.817 257.762 452.089 256.041 452.089 253.813C452.089 252.301 452.507 250.953 453.347 249.762C454.194 248.572 455.395 247.641 456.952 246.975C458.515 246.304 460.337 245.971 462.419 245.971C464.574 245.971 466.442 246.343 468.027 247.088C469.612 247.833 470.814 248.775 471.632 249.915C472.478 251.032 472.924 252.132 472.969 253.221C472.969 253.446 472.896 253.627 472.749 253.779C472.602 253.926 472.416 254.005 472.191 254.005H467.288C466.989 254.005 466.741 253.954 466.543 253.858C466.368 253.757 466.21 253.599 466.058 253.373C465.911 252.803 465.499 252.318 464.834 251.923C464.191 251.528 463.384 251.331 462.419 251.331C461.302 251.331 460.45 251.528 459.852 251.923C459.26 252.318 458.961 252.905 458.961 253.672C458.961 254.191 459.124 254.625 459.446 254.975C459.79 255.319 460.337 255.641 461.082 255.94C461.849 256.211 462.938 256.498 464.349 256.792C466.656 257.215 468.49 257.745 469.849 258.388C471.237 259.009 472.253 259.827 472.896 260.843C473.539 261.835 473.866 263.082 473.866 264.594C473.866 266.253 473.381 267.703 472.416 268.944C471.474 270.157 470.148 271.099 468.439 271.77C466.752 272.408 464.822 272.73 462.639 272.73Z" fill="white"/>
<path d="M252.526 146.311C245.643 144.98 241.841 152.246 240.035 161.56C238.23 170.875 239.234 176.731 246.117 178.062C253 179.394 259.635 175.021 261.44 165.707C263.245 156.393 259.409 147.648 252.526 146.311Z" fill="#3F4249"/>
<path d="M268.019 558.92L306.912 559.789L292.656 549.188C291.285 548.201 290.343 546.824 289.767 545.273C289.135 543.586 289.795 542.401 289.97 541.465C290.444 538.937 291.736 530.734 291.736 530.734L269.965 530.791L268.019 558.92Z" fill="#F79898"/>
<path opacity="0.15" d="M275.172 544.725V544.499C275.06 543.219 275.951 542.102 277.181 541.932L289.97 541.464L290.444 538.937H269.401L269.395 539.01L268.453 552.595L287.482 556.403L282.292 554.338C278.67 552.894 275.511 548.578 275.172 544.725Z" fill="black"/>
<path d="M226.869 556.579L244.662 554.232L245.712 538.943L246.095 530.604L225.131 530.745L225.402 538.943L226.869 556.579Z" fill="#F79898"/>
<path opacity="0.15" d="M230.237 553.623L230.626 545.144C230.683 544.027 231.518 543.135 232.635 542.966L245.549 541.268L245.706 538.949H225.396L226.987 557.945L230.237 553.623Z" fill="black"/>
<path d="M214.496 313.558L225.396 538.943H245.706L254.055 355.188C254.168 353.958 255.173 353.067 256.397 353.067C257.57 353.067 258.574 353.958 258.687 355.188L277.254 436.981L269.395 538.943H290.439L305.716 441.827C306.207 438.696 306.309 435.52 306.004 432.366L293.959 305.547L214.496 313.558Z" fill="#3D4F91"/>
<path opacity="0.2" d="M214.439 318.676L225.396 538.949H245.706L254.055 355.194C254.168 353.964 255.172 353.073 256.397 353.073C257.57 353.073 258.574 353.964 258.687 355.194L277.254 436.987L269.395 538.949H290.438L305.88 440.79C306.263 438.352 306.337 435.876 306.105 433.422L295.301 319.674L214.49 313.57L214.439 318.676Z" fill="white"/>
<path d="M228.419 548.545L228.921 548.043C232.718 544.246 239.245 544.303 242.929 548.213L243.206 548.545C244.153 549.55 244.656 550.836 244.656 552.117V554.238C244.656 555.468 244.825 556.692 245.214 557.865L246.946 563.614C247.392 565.007 247.617 566.457 247.617 567.913V568.64C247.617 569.757 246.613 570.649 245.44 570.649H225.406C224.176 570.649 223.229 569.757 223.229 568.64V568.364C223.229 566.688 223.505 565.018 224.064 563.4L226.072 557.764C226.518 556.483 226.8 555.141 226.8 553.747L226.856 552.128C226.913 550.83 227.471 549.55 228.419 548.545Z" fill="#3F4249"/>
<path opacity="0.5" d="M223.229 568.353V568.629C223.229 569.746 224.233 570.638 225.406 570.638H245.44C246.67 570.638 247.617 569.746 247.617 568.629V567.901C247.617 567.625 247.617 567.343 247.561 567.066H223.229C223.229 567.461 223.229 567.907 223.229 568.353Z" fill="black"/>
<path d="M267.115 552.505V566.621C267.115 568.911 268.954 570.751 271.245 570.751H319.233C320.181 570.751 320.965 569.972 320.965 569.019C320.965 565.673 318.787 562.655 315.605 561.594L304.779 558.023L291.053 547.365C289.659 546.248 287.651 546.305 286.252 547.479L280.17 552.669C279.279 553.448 278.049 553.673 276.932 553.34L269.231 550.943C268.119 550.661 267.115 551.445 267.115 552.505Z" fill="#3F4249"/>
<path d="M271.245 570.751H319.233C320.181 570.751 320.965 569.972 320.965 569.019C320.965 568.404 320.909 567.845 320.74 567.287H267.172C267.505 569.244 269.18 570.751 271.245 570.751Z" fill="black"/>
<path d="M290.777 553.007C290.665 553.007 290.552 552.951 290.501 552.894C290.332 552.725 290.332 552.448 290.501 552.279L293.401 549.154C293.57 548.984 293.846 548.984 294.016 549.154C294.185 549.323 294.185 549.599 294.016 549.769L291.116 552.894C291.003 552.951 290.89 553.007 290.777 553.007Z" fill="white"/>
<path d="M293.068 554.79C292.956 554.79 292.843 554.733 292.792 554.677C292.623 554.508 292.623 554.231 292.792 554.062L295.692 550.936C295.861 550.767 296.137 550.767 296.307 550.936C296.476 551.106 296.476 551.382 296.307 551.551L293.407 554.677C293.288 554.733 293.176 554.79 293.068 554.79Z" fill="white"/>
<path d="M295.353 556.578C295.24 556.578 295.127 556.522 295.076 556.465C294.907 556.296 294.907 556.02 295.076 555.85L297.976 552.725C298.145 552.556 298.422 552.556 298.591 552.725C298.76 552.894 298.76 553.171 298.591 553.34L295.691 556.465C295.635 556.522 295.522 556.578 295.353 556.578Z" fill="white"/>
<path d="M239.585 553.283C239.529 553.283 239.416 553.283 239.359 553.227C235.563 551.331 231.991 553.227 231.991 553.227C231.766 553.34 231.433 553.283 231.32 553.001C231.207 552.776 231.264 552.443 231.546 552.33C231.715 552.217 235.563 550.209 239.862 552.33C240.087 552.443 240.194 552.776 240.087 553.001C239.974 553.176 239.805 553.283 239.585 553.283Z" fill="white"/>
<path d="M239.585 555.851C239.529 555.851 239.416 555.851 239.359 555.794C235.512 553.899 231.991 555.794 231.991 555.794C231.766 555.907 231.433 555.851 231.32 555.569C231.207 555.343 231.264 555.01 231.546 554.897C231.715 554.784 235.563 552.776 239.862 554.897C240.087 555.01 240.194 555.343 240.087 555.569C239.974 555.744 239.805 555.851 239.585 555.851Z" fill="white"/>
<path d="M239.585 558.361C239.529 558.361 239.416 558.361 239.359 558.304C235.563 556.409 231.991 558.304 231.991 558.304C231.766 558.417 231.433 558.361 231.32 558.079C231.207 557.853 231.264 557.52 231.546 557.407C231.715 557.295 235.563 555.286 239.862 557.407C240.087 557.52 240.194 557.853 240.087 558.079C239.974 558.254 239.805 558.361 239.585 558.361Z" fill="white"/>
<path d="M271.33 171.462C271.33 171.462 251.697 153.104 247.5 170.085L246.309 174.457L239.765 200.037C239.635 200.697 265.175 206.981 265.226 206.141L265.666 201.571L266.823 187.98C267.319 186.88 267.737 185.6 268.024 184.121C269.548 177.425 271.33 171.462 271.33 171.462Z" fill="#F79898"/>
<path d="M274.562 173.025C278.816 173.025 282.263 169.578 282.263 165.324C282.263 161.07 278.816 157.623 274.562 157.623C270.308 157.623 266.861 161.07 266.861 165.324C266.861 169.578 270.308 173.025 274.562 173.025Z" fill="#3F4249"/>
<path d="M276.194 159.845C276.194 159.845 277.683 194.694 260.154 193.628C244.978 192.731 247.805 169.352 247.805 169.352L251.416 154.537L276.194 159.845Z" fill="#F79898"/>
<path d="M251.15 165.904C249.418 173.921 251.709 179.111 251.709 179.111C270.501 180.183 272.69 184.098 272.69 184.098C272.69 184.098 269.807 193.018 261.875 193.531C253.943 194.045 243.449 187.173 245.492 176.854C245.994 174.304 252.848 161.323 252.848 161.323L251.15 165.904Z" fill="#3F4249"/>
<path d="M261.808 185.131C257.712 184.917 256.64 180.646 256.905 180.522C257.165 180.454 264.471 183.698 264.538 183.952C264.55 184.195 262.959 185.278 261.808 185.131Z" fill="white"/>
<path d="M280.775 155.524C281.807 150.21 277.209 144.85 270.513 143.553C263.816 142.255 257.548 145.51 256.516 150.819C255.489 156.134 260.081 161.493 266.778 162.791C273.48 164.094 279.742 160.839 280.775 155.524Z" fill="#3F4249"/>
<path d="M253.56 146.678C249.362 145.865 245.131 149.498 244.104 154.79C243.078 160.082 245.424 166.181 249.622 166.993C253.819 167.806 258.271 163.027 259.297 157.735C260.33 152.443 257.757 147.49 253.56 146.678Z" fill="#3F4249"/>
<path opacity="0.15" d="M246.095 175.552C246.095 175.552 247.5 175.936 248.38 175.485L245.249 178.74L246.095 175.552Z" fill="black"/>
<path d="M249.931 167.004C249.931 167.004 248.148 163.501 244.583 164.29C240.538 165.21 239.669 173.797 245.875 175.512C249.107 176.42 248.825 174.378 248.774 171.698C249.31 168.606 249.931 167.004 249.931 167.004Z" fill="#F79898"/>
<path opacity="0.3" d="M243.997 166.446C244.741 166.136 245.373 166.085 245.898 166.305C246.423 166.519 246.846 166.999 247.1 167.732C247.353 168.466 247.427 169.273 247.258 170.153L247.173 170.875C247.128 171.095 246.936 171.225 246.716 171.185C246.496 171.14 246.366 170.948 246.406 170.728L246.49 170.006C246.535 169.786 246.637 168.669 246.366 167.992C246.18 167.501 245.904 167.163 245.593 166.988C245.277 166.869 244.815 166.892 244.324 167.084C244.138 167.163 243.873 167.055 243.799 166.869C243.703 166.79 243.799 166.582 243.997 166.446Z" fill="black"/>
<path d="M275.787 162.548C275.031 162.914 273.457 163.299 273.457 163.299C273.294 163.327 273.051 163.253 273.017 163.033C272.978 162.813 273.062 162.627 273.282 162.593C273.282 162.593 275.5 161.797 275.714 161.707C276.126 161.47 276.775 161.165 277.531 160.579C277.677 160.443 277.909 160.46 278.044 160.607C278.179 160.754 278.162 160.985 278.016 161.12C277.282 161.809 276.047 162.424 275.787 162.548Z" fill="#F79898"/>
<path opacity="0.15" d="M265.977 197.266L266.485 192.064C264.312 193.463 261.029 194.242 256.414 192.837C256.414 192.837 253.266 191.985 250.214 189.486C250 189.283 249.853 189.238 249.672 189.334C249.526 189.469 249.548 189.633 249.661 189.779C250.22 190.479 252.521 192.245 256.408 193.599C261.289 198.259 265.977 197.266 265.977 197.266Z" fill="black"/>
<path d="M276.323 172.369L270.354 171.213L269.531 171.055L264.329 170.045L264.273 170.034L257.537 168.73C256.442 168.516 255.393 169.227 255.184 170.321L254.885 171.856C254.31 174.812 256.256 177.689 259.212 178.265C262.168 178.84 265.046 176.894 265.621 173.938L265.92 172.403C266.005 171.963 265.926 171.495 265.717 171.111L267.799 171.517C267.46 171.794 267.268 172.211 267.184 172.646L266.885 174.18C266.309 177.136 268.256 180.014 271.212 180.589C274.168 181.165 277.045 179.218 277.621 176.262L277.92 174.727C278.129 173.633 277.418 172.584 276.323 172.369ZM265.153 172.251L264.854 173.785C264.363 176.307 261.937 177.994 259.415 177.503C256.893 177.012 255.207 174.586 255.697 172.065L255.996 170.53C256.126 169.87 256.781 169.43 257.435 169.56L264.171 170.863L264.228 170.874C264.826 170.998 265.277 171.596 265.153 172.251ZM276.848 176.11C276.357 178.632 273.931 180.318 271.409 179.828C268.888 179.337 267.201 176.911 267.692 174.389L267.991 172.854C268.12 172.194 268.775 171.754 269.429 171.884L270.253 172.042L276.222 173.199C276.882 173.328 277.322 173.983 277.192 174.637L276.848 176.11Z" fill="#21252B"/>
<g opacity="0.15">
<path opacity="0.15" d="M285.649 319.143H238.276C237.999 319.143 237.83 318.917 237.83 318.697C237.83 318.477 238.056 318.252 238.276 318.252H285.649C285.925 318.252 286.095 318.477 286.095 318.697C286.095 318.917 285.925 319.143 285.649 319.143Z" fill="black"/>
</g>
<path d="M339.29 221.78C339.245 223.466 340.588 224.815 342.213 224.86L346.337 224.967L347.081 234.992C347.126 235.743 347.798 236.386 348.548 236.408C349.361 236.431 350.004 235.822 350.083 235.009L350.951 225.464C350.957 225.339 351.081 225.215 351.273 225.221C351.397 225.227 351.521 225.351 351.578 225.48L351.961 234.936C352.001 235.81 352.672 236.516 353.547 236.538C354.421 236.561 355.188 235.895 355.211 234.953L355.769 225.396L355.217 234.705C355.126 235.703 355.984 236.6 356.982 236.628C357.919 236.651 358.686 235.985 358.839 235.049L359.956 225.571L359.149 232.617C359.064 233.492 359.73 234.321 360.604 234.344C361.355 234.36 361.992 233.881 362.139 233.131L363.482 227.162C363.837 225.605 363.312 223.968 362.15 222.936C357.445 218.626 350.59 217.633 344.887 220.555L339.544 221.481C339.426 221.407 339.296 221.593 339.29 221.78Z" fill="#FB9C9C"/>
<g opacity="0.15">
<path opacity="0.15" d="M355.414 225.385L354.895 234.186L355.769 234.236L356.288 225.435L355.414 225.385Z" fill="black"/>
</g>
<g opacity="0.15">
<path opacity="0.15" d="M359.437 226.05L358.664 233.142L359.533 233.238L360.306 226.146L359.437 226.05Z" fill="black"/>
</g>
<path opacity="0.2" d="M346.336 225.023L342.212 224.916L344.773 222.603C345.287 222.117 346.155 222.45 346.195 223.201L346.336 225.023Z" fill="black"/>
<path d="M295.571 324.198H215.234L205.857 258.721L221.417 219.827L232.317 200.532L239.555 200.86C239.555 200.86 238.523 208.487 253.507 210.552C266.274 212.318 265.665 201.565 265.665 201.565L288.525 203.082L295.571 324.198Z" fill="#21252B"/>
<path d="M265.361 205.684C266.134 201.706 260.989 197.368 253.874 195.986C246.76 194.604 240.368 196.714 239.595 200.685C238.822 204.663 243.968 209.001 251.082 210.383C258.196 211.766 264.588 209.656 265.361 205.684Z" fill="#F79898"/>
<path d="M202.411 210.716L191.968 268.171C191.376 271.432 191.917 274.794 193.497 277.7L222.326 330.669C222.326 330.669 219.736 338.218 225.852 344.283C225.852 344.283 233.446 337.343 236.735 330.308L214.501 273.542L221.762 248.685L202.411 210.716Z" fill="#F79898"/>
<path d="M282.09 246.518L304.73 245.429L299.844 214.185C298.874 207.963 293.695 203.257 287.41 202.879L265.56 201.565L282.09 246.518Z" fill="#21252B"/>
<path d="M230.383 219.986L221.125 250.806H194.892L202.406 210.722C203.636 204.155 209.515 199.501 216.183 199.805L239.551 200.866L230.383 219.986Z" fill="#21252B"/>
<path opacity="0.15" d="M285.846 230.462C288.791 236.25 290.518 242.58 290.918 249.063L295.302 319.662L306.027 432.609C306.309 435.599 306.218 438.617 305.75 441.585L290.433 538.948H279.663L296.21 437.15L284.176 324.198L281.722 222.378L285.846 230.462Z" fill="black"/>
<path opacity="0.15" d="M229.497 222.942L214.496 273.548L232.262 318.89H240.233L225.892 270.913L229.497 222.942Z" fill="black"/>
<path opacity="0.15" d="M252.611 354.302L252.594 354.314C247.815 356.976 244.746 361.913 244.47 367.374L235.793 538.943H245.705L254.123 355.38C254.168 354.342 254.856 353.445 255.843 353.129C254.715 353.349 253.621 353.744 252.611 354.302Z" fill="black"/>
<path opacity="0.15" d="M240.233 318.89L243.128 327.809C243.128 327.809 234.462 339.256 225.858 344.283C225.858 344.283 233.661 337.09 236.741 330.308L232.267 318.89H240.233Z" fill="black"/>
<path d="M55.2092 361.901L63.4009 321.501L63.1526 321.456L54.9609 361.85L55.2092 361.901Z" fill="#3F4249"/>
<path d="M52.9306 307.9L52.6768 307.905L53.7543 360.401L54.0082 360.395L52.9306 307.9Z" fill="#3F4249"/>
<path d="M40.9191 317.546L40.7217 317.704L53.2405 333.433L53.438 333.275L40.9191 317.546Z" fill="#3F4249"/>
<path d="M48.828 371.949L50.0861 370.088C51.3442 368.226 51.993 366.02 51.993 363.758V359.284H56.8166V363.758C56.8166 366.02 57.471 368.232 58.7235 370.088L59.9816 371.949C62.5936 375.87 63.4004 380.745 62.2439 385.315L60.8391 390.843H47.9761L46.5713 385.315C45.4148 380.745 46.2667 375.87 48.828 371.949Z" fill="#858990"/>
<path d="M48.8286 371.949L50.0867 370.088C51.3448 368.226 51.9936 366.02 51.9936 363.758V359.284H53.3983V363.352C53.3983 365.862 52.6424 368.328 51.2884 370.437C49.1784 374.308 49.1784 378.731 49.9344 382.347C50.3857 384.508 51.2432 386.567 52.3941 388.429L53.3476 389.986C53.6974 390.539 54.301 390.889 54.9554 390.889H47.9203L46.5155 385.36C45.4154 380.745 46.2673 375.87 48.8286 371.949Z" fill="#61656D"/>
<path d="M43.48 333.71L43.3164 333.908L58.2048 346.263L58.3684 346.065L43.48 333.71Z" fill="#3F4249"/>
<path d="M56.417 355.87L69.5846 343.413L69.4323 343.261L56.2646 355.673L56.417 355.87Z" fill="#3F4249"/>
<path d="M48.2761 326.979L46.2169 317.936C45.4609 314.72 41.6472 313.366 39.0295 315.425C36.4681 317.484 36.9195 321.557 39.8813 322.962L48.2761 326.979Z" fill="#3D4F91"/>
<path opacity="0.3" d="M48.2761 326.979L46.2169 317.936C45.4609 314.72 41.6472 313.366 39.0295 315.425C36.4681 317.484 36.9195 321.557 39.8813 322.962L48.2761 326.979Z" fill="white"/>
<path d="M37.3753 318.991C37.3753 320.598 38.2779 322.206 39.9366 322.962L48.3257 326.985L39.079 315.431C37.8774 316.328 37.3245 317.687 37.3753 318.991Z" fill="#3D4F91"/>
<path d="M53.0487 322.963L58.9781 310.703C61.0881 306.331 57.9231 301.259 53.0487 301.259C48.2251 301.259 45.0093 306.337 47.1193 310.703L53.0487 322.963Z" fill="#3D4F91"/>
<path opacity="0.3" d="M53.0487 322.963L58.9781 310.703C61.0881 306.331 57.9231 301.259 53.0487 301.259C48.2251 301.259 45.0093 306.337 47.1193 310.703L53.0487 322.963Z" fill="white"/>
<path opacity="0.3" d="M52.7496 301.304L53.0486 322.963L47.1192 310.703C45.06 306.433 48.0783 301.457 52.7496 301.304Z" fill="white"/>
<path d="M59.6313 339.29L68.2236 329.039C71.287 325.372 69.4817 319.741 64.8555 318.585C60.235 317.428 55.9642 321.502 56.9177 326.173L59.6313 339.29Z" fill="#3D4F91"/>
<path opacity="0.3" d="M56.9177 326.178C55.9642 321.507 60.235 317.433 64.8555 318.59L59.5805 339.238L56.9177 326.178Z" fill="white"/>
<path d="M60.8398 351.505L64.7608 341.705C66.1656 338.19 70.741 337.384 73.2515 340.148C75.8128 342.912 74.5604 347.386 70.9384 348.486L60.8398 351.505Z" fill="#3D4F91"/>
<path opacity="0.3" d="M60.8398 351.505L64.7608 341.705C66.1656 338.19 70.741 337.384 73.2515 340.148C75.8128 342.912 74.5604 347.386 70.9384 348.486L60.8398 351.505Z" fill="white"/>
<path opacity="0.3" d="M73.0992 339.944L60.8398 351.498L64.7608 341.698C66.1148 338.285 70.5379 337.434 73.0992 339.944Z" fill="white"/>
<path d="M54.3071 342.912L50.0364 332.559C48.5301 328.892 43.6557 328.035 40.9928 331.002C38.3299 333.964 39.684 338.692 43.5541 339.798L54.3071 342.912Z" fill="#3D4F91"/>
<path opacity="0.3" d="M54.3071 342.912L50.0364 332.559C48.5301 328.892 43.6557 328.035 40.9928 331.002C38.3299 333.964 39.684 338.692 43.5541 339.798L54.3071 342.912Z" fill="white"/>
<path d="M53.8036 355.623L53.9559 355.42L33.5556 344.266L33.4541 344.469L53.8036 355.623Z" fill="#3F4249"/>
<path d="M50.5382 353.665L43.1533 343.566C40.5412 339.95 35.0124 340.35 32.9532 344.271C30.8432 348.192 33.6076 352.965 38.0307 353.163L50.5382 353.665Z" fill="#3D4F91"/>
<path opacity="0.3" d="M50.5382 353.665L43.1533 343.566C40.5412 339.95 35.0124 340.35 32.9532 344.271C30.8432 348.192 33.6076 352.965 38.0307 353.163L50.5382 353.665Z" fill="white"/>
<path d="M32.7491 349.592C33.6518 351.55 35.5643 353.062 38.0241 353.158L50.5373 353.66L32.9522 344.266C31.9988 346.077 32.0496 347.984 32.7491 349.592Z" fill="#3D4F91"/>
<path opacity="0.3" d="M50.0358 332.559L54.3065 342.912L40.9922 331.002C43.6551 328.086 48.4787 328.892 50.0358 332.559Z" fill="white"/>
<path d="M487.768 197.256H483.198V210.61H487.768V197.256Z" fill="white"/>
<path d="M412.8 197.256H408.23V210.61H412.8V197.256Z" fill="white"/>
<path d="M500.4 144.506H443.803V191.467H500.4V144.506Z" fill="#3D4F91"/>
<path opacity="0.8" d="M500.4 144.506H443.803V191.467H500.4V144.506Z" fill="white"/>
<path d="M495.157 149.882H448.946V185.994H495.157V149.882Z" fill="white"/>
<path d="M501.567 144.506H500.349V191.467H501.567V144.506Z" fill="#B1B5BA"/>
<path opacity="0.2" d="M454.381 180.065L468.389 157.741L489.816 180.065H454.381Z" fill="black"/>
<path d="M596.736 571.473H-42.1378C-42.3353 571.473 -42.4707 571.337 -42.4707 571.14C-42.4707 570.942 -42.3353 570.807 -42.1378 570.807H596.803C597.001 570.807 597.136 570.942 597.136 571.14C597.136 571.337 596.939 571.473 596.736 571.473Z" fill="#B2B6BB"/>
<path d="M260.938 175.174C261.706 175.174 262.332 174.548 262.332 173.781C262.332 173.008 261.706 172.387 260.938 172.387C260.171 172.387 259.545 173.008 259.545 173.781C259.545 174.548 260.171 175.174 260.938 175.174Z" fill="#21252B"/>
<path d="M261.627 173.736C261.779 173.736 261.903 173.612 261.903 173.459C261.903 173.307 261.779 173.183 261.627 173.183C261.475 173.183 261.351 173.307 261.351 173.459C261.351 173.612 261.475 173.736 261.627 173.736Z" fill="white"/>
<path d="M271.776 177.329C272.544 177.329 273.17 176.703 273.17 175.936C273.17 175.169 272.544 174.542 271.776 174.542C271.009 174.542 270.383 175.169 270.383 175.936C270.383 176.703 271.009 177.329 271.776 177.329Z" fill="#21252B"/>
<path d="M272.464 175.89C272.616 175.89 272.74 175.766 272.74 175.613C272.74 175.461 272.616 175.337 272.464 175.337C272.312 175.337 272.188 175.461 272.188 175.613C272.188 175.766 272.312 175.89 272.464 175.89Z" fill="white"/>
<g opacity="0.15">
<path opacity="0.15" d="M264.853 180.217L263.132 179.744C262.929 179.676 262.828 179.467 262.845 179.247C262.912 179.044 263.121 178.942 263.341 178.959L265.062 179.433C265.485 179.524 265.964 179.287 266.055 178.863C266.145 178.44 265.908 177.961 265.485 177.871C265.282 177.803 265.18 177.594 265.197 177.374C265.214 177.154 265.474 177.069 265.694 177.086C266.529 177.318 267.031 178.175 266.85 179.021C266.54 179.941 265.682 180.443 264.853 180.217Z" fill="black"/>
</g>
</g>
<defs>
<filter id="filter0_i" x="-174" y="0" width="902.667" height="680.314" filterUnits="userSpaceOnUse" color-interpolation-filters="sRGB">
<feFlood flood-opacity="0" result="BackgroundImageFix"/>
<feBlend mode="normal" in="SourceGraphic" in2="BackgroundImageFix" result="shape"/>
<feColorMatrix in="SourceAlpha" type="matrix" values="0 0 0 0 0 0 0 0 0 0 0 0 0 0 0 0 0 0 127 0" result="hardAlpha"/>
<feOffset dy="3.31355"/>
<feGaussianBlur stdDeviation="1.65678"/>
<feComposite in2="hardAlpha" operator="arithmetic" k2="-1" k3="1"/>
<feColorMatrix type="matrix" values="0 0 0 0 0.231373 0 0 0 0 0.247059 0 0 0 0 0.298039 0 0 0 0.25 0"/>
<feBlend mode="normal" in2="shape" result="effect1_innerShadow"/>
</filter>
</defs>
</svg>
