<svg width="580" height="405" viewBox="0 0 580 405" fill="none" xmlns="http://www.w3.org/2000/svg">
<g opacity="0.75" clip-path="url(#clip0)" filter="url(#filter0_i)">
<path d="M555.48 270.508C551.073 275.323 545.607 278.907 539.677 281.69H539.669C539.111 281.954 538.553 282.212 537.988 282.455H537.981L537.974 282.462L537.967 282.455H537.96C537.96 282.456 537.959 282.457 537.959 282.458C537.959 282.459 537.958 282.46 537.957 282.46C537.957 282.461 537.956 282.462 537.955 282.462C537.954 282.462 537.953 282.462 537.952 282.462H537.945L537.938 282.455C537.931 282.462 537.931 282.462 537.924 282.455L537.917 282.462L537.909 282.455H537.902C537.895 282.462 537.895 282.462 537.888 282.455H537.881C533.911 284.172 529.834 285.63 525.676 286.819C501.222 293.757 475.521 295.099 450.478 290.747C449.998 290.661 449.526 290.575 449.047 290.489V232.462C449.519 232.261 449.998 232.061 450.478 231.868C453.604 230.573 456.769 229.383 459.971 228.298C464.579 226.724 469.25 225.374 473.986 224.249C489.438 220.509 505.381 219.22 521.233 220.428C524.116 220.643 526.992 220.953 529.861 221.358C535.863 222.195 542.159 223.655 547.696 226.187H547.703C548.512 226.567 549.306 226.96 550.093 227.382C555.015 230.051 559.164 233.721 561.697 238.75C562.607 240.557 563.262 242.48 563.643 244.466V244.481C563.786 245.168 563.886 245.862 563.965 246.548C564.866 255.019 561.354 264.083 555.48 270.508Z" fill="#F2F2F2"/>
<path d="M563.965 246.548C563.895 246.566 563.823 246.575 563.75 246.577C551.495 247.113 539.257 247.91 527.035 248.966H527.013C526.963 248.974 526.921 248.974 526.871 248.981C514.322 250.068 501.8 251.43 489.304 253.066C488.774 253.137 488.252 253.209 487.73 253.273C479.088 254.425 470.462 255.703 461.853 257.108C458.054 257.73 454.262 258.379 450.478 259.054C449.998 259.14 449.526 259.218 449.047 259.311V257.144C449.526 257.051 450.005 256.972 450.478 256.886C463.084 254.654 475.732 252.706 488.424 251.041C491.614 250.612 494.81 250.206 498.01 249.825C507.253 248.709 516.511 247.745 525.783 246.935C526.463 246.877 527.135 246.82 527.815 246.763C539.683 245.754 551.569 244.989 563.471 244.466C563.529 244.464 563.587 244.469 563.643 244.481C564.788 244.581 565.031 246.298 563.965 246.548Z" fill="white"/>
<path d="M538.519 280.347C523.252 280.459 508.211 273.986 497.412 263.27C494.365 260.235 491.68 256.858 489.411 253.204C488.683 252.037 486.98 253.324 487.702 254.482C496.089 267.932 510.058 277.513 525.461 281.036C529.834 282.027 534.309 282.506 538.793 282.463C540.162 282.453 539.879 280.337 538.519 280.347V280.347Z" fill="white"/>
<path d="M473.986 224.249C473.921 224.45 473.804 224.63 473.647 224.772C473.49 224.914 473.299 225.012 473.092 225.057C469.593 225.974 466.213 227.294 463.019 228.992C458.355 231.455 454.12 234.656 450.478 238.471C450.285 238.664 450.099 238.857 449.92 239.058C449.619 239.373 449.333 239.695 449.047 240.024V236.904C449.505 236.418 449.984 235.939 450.478 235.481C453.354 232.727 456.54 230.317 459.971 228.298C464.579 226.724 469.25 225.374 473.986 224.249Z" fill="white"/>
<path d="M548.961 225.624C539.25 229.798 531.124 236.962 525.766 246.074C525.657 246.335 525.656 246.628 525.762 246.89C525.868 247.151 526.073 247.361 526.333 247.472C526.594 247.575 526.885 247.574 527.145 247.468C527.406 247.363 527.615 247.161 527.731 246.905C532.845 238.299 540.559 231.539 549.763 227.6C551.026 227.061 550.227 225.083 548.961 225.624L548.961 225.624Z" fill="white"/>
<path d="M578.238 164.862C576.578 171.172 573.394 176.888 569.438 182.103L569.431 182.11C569.066 182.597 568.687 183.09 568.293 183.563V183.57C565.547 186.954 562.581 190.154 559.415 193.149C548.035 203.994 535.181 213.178 521.233 220.428C499.291 231.889 474.766 238.664 450.478 239.051C450.292 239.058 450.106 239.058 449.92 239.058C449.626 239.065 449.333 239.065 449.047 239.065V206.549C449.512 205.662 449.991 204.775 450.478 203.895C456.79 192.537 464.487 182.007 473.393 172.545C473.607 172.309 473.829 172.073 474.051 171.844C477.399 168.31 480.909 164.945 484.582 161.749C498.71 149.327 515.038 139.658 532.722 133.24C538.424 131.194 544.677 129.556 550.758 129.234C551.652 129.184 552.54 129.162 553.434 129.169C559.036 129.248 564.408 130.571 568.994 133.848C570.637 135.028 572.11 136.426 573.373 138.005C573.816 138.556 574.224 139.121 574.618 139.7V139.707C579.354 146.79 580.456 156.441 578.238 164.862Z" fill="#F2F2F2"/>
<path d="M574.618 139.7V139.707C574.565 139.754 574.507 139.794 574.446 139.829C563.858 145.989 553.403 152.373 543.082 158.981C543.067 158.988 543.06 158.995 543.046 159.002C543.005 159.031 542.962 159.057 542.917 159.081C532.307 165.877 521.848 172.903 511.539 180.157C511.11 180.458 510.673 180.765 510.237 181.073C503.118 186.102 496.074 191.239 489.103 196.483C475.939 206.399 463.064 216.682 450.478 227.332C449.998 227.733 449.526 228.141 449.047 228.548V225.765C449.519 225.358 449.998 224.95 450.478 224.549C455.3 220.478 460.165 216.465 465.072 212.509C466.539 211.328 468.013 210.148 469.486 208.982C482.579 198.558 495.964 188.523 509.643 178.877H509.65C512.34 176.981 515.035 175.102 517.734 173.239C525.404 167.959 533.159 162.806 541 157.779C541.565 157.414 542.138 157.049 542.71 156.684C552.747 150.274 562.916 144.074 573.215 138.083C573.266 138.053 573.318 138.027 573.373 138.005C574.446 137.575 575.455 138.992 574.618 139.7Z" fill="white"/>
<path d="M567.788 181.455C554.32 188.646 537.993 189.9 523.453 185.427C519.345 184.155 515.398 182.411 511.691 180.23C510.504 179.534 509.594 181.465 510.771 182.155C524.446 190.17 541.268 192.166 556.544 188.131C560.877 186.977 565.062 185.322 569.013 183.201C570.221 182.556 568.987 180.814 567.788 181.455V181.455Z" fill="white"/>
<path d="M467.021 207.631C466.354 203.886 466.125 200.076 466.339 196.278C466.821 187.616 469.474 179.214 474.052 171.845C477.404 168.312 480.915 164.947 484.585 161.749C484.62 161.958 484.6 162.173 484.526 162.372C484.453 162.571 484.328 162.747 484.166 162.883C481.495 165.321 479.116 168.059 477.075 171.044C469.786 181.683 466.941 194.748 469.147 207.454C469.182 207.598 469.18 207.749 469.141 207.892C469.102 208.035 469.026 208.166 468.922 208.271C468.769 208.405 468.584 208.495 468.385 208.535C468.186 208.574 467.98 208.561 467.788 208.496C467.595 208.432 467.423 208.318 467.289 208.166C467.154 208.014 467.062 207.829 467.021 207.631Z" fill="white"/>
<path d="M551.615 128.141C544.954 136.348 541.086 146.468 540.574 157.026C540.599 157.307 540.734 157.567 540.95 157.749C541.165 157.932 541.444 158.022 541.726 158C542.005 157.97 542.262 157.834 542.443 157.619C542.625 157.405 542.717 157.129 542.7 156.849C543.231 146.852 546.923 137.282 553.244 129.519C554.111 128.454 552.485 127.074 551.615 128.141Z" fill="white"/>
<path d="M477.528 151.648V151.655C477.478 152.27 477.421 152.878 477.356 153.486V153.501C476.859 157.829 476.082 162.121 475.031 166.35C474.53 168.424 473.986 170.485 473.393 172.545C473.321 172.81 473.242 173.075 473.164 173.332V173.339C471.416 179.332 469.329 185.22 466.911 190.975C462.463 201.57 456.957 211.689 450.478 221.18C450.013 221.874 449.533 222.568 449.047 223.254V111.219C449.526 111.191 449.998 111.191 450.478 111.205C450.707 111.205 450.935 111.212 451.165 111.227C453.183 111.333 455.177 111.72 457.088 112.378C457.761 112.6 458.412 112.851 459.056 113.13C466.861 116.549 472.992 124.09 475.653 132.382C477.649 138.591 478.05 145.123 477.528 151.648Z" fill="#F2F2F2"/>
<path d="M459.056 113.129C459.039 113.2 459.012 113.267 458.977 113.33C456.08 118.96 453.246 124.619 450.478 130.307C449.998 131.287 449.519 132.274 449.047 133.254V128.389C449.519 127.416 449.996 126.443 450.478 125.47C452.617 121.135 454.792 116.819 457.002 112.521C457.027 112.471 457.056 112.423 457.088 112.378C457.747 111.434 459.378 112.078 459.056 113.129Z" fill="white"/>
<path d="M477.757 152.8C477.628 153.028 477.499 153.257 477.356 153.486C475.255 157.147 472.755 160.564 469.901 163.674C464.42 169.62 457.82 174.427 450.478 177.818C450.005 178.047 449.526 178.261 449.047 178.462V176.137C449.526 175.922 450.005 175.7 450.478 175.471C461.105 170.402 469.933 162.211 475.782 151.991C475.867 151.845 475.981 151.719 476.119 151.621C476.256 151.524 476.413 151.457 476.578 151.425C476.744 151.393 476.914 151.397 477.078 151.437C477.242 151.476 477.395 151.551 477.528 151.655C477.618 151.715 477.696 151.792 477.756 151.882C477.816 151.972 477.858 152.073 477.88 152.18C477.901 152.286 477.901 152.396 477.88 152.502C477.859 152.608 477.817 152.709 477.757 152.8Z" fill="white"/>
<path d="M450.478 23.6089V77.9809H449.047V77.4014H-29.5692V77.9809H-31V23.6089C-30.9939 17.3493 -28.5045 11.3479 -24.0783 6.92167C-19.6521 2.49547 -13.6507 0.0061443 -7.39111 0H426.869C433.129 0.0061443 439.13 2.49547 443.557 6.92167C447.983 11.3479 450.472 17.3493 450.478 23.6089Z" fill="#3D4F91"/>
<path d="M426.869 0H-7.39111C-13.6507 0.0061443 -19.6521 2.49547 -24.0783 6.92167C-28.5045 11.3479 -30.9939 17.3493 -31 23.6089V334.102C-30.9939 340.361 -28.5045 346.363 -24.0783 350.789C-19.6521 355.215 -13.6507 357.704 -7.39111 357.71H426.869C433.129 357.704 439.13 355.215 443.557 350.789C447.983 346.363 450.472 340.361 450.478 334.102V23.6089C450.472 17.3493 447.983 11.3479 443.557 6.92167C439.13 2.49547 433.129 0.0061443 426.869 0ZM449.047 334.102C449.04 339.981 446.701 345.618 442.543 349.776C438.386 353.933 432.749 356.272 426.869 356.28H-7.39111C-13.2708 356.272 -18.9075 353.933 -23.0651 349.776C-27.2226 345.618 -29.5617 339.981 -29.5692 334.102V23.6089C-29.5617 17.7292 -27.2226 12.0925 -23.0651 7.93493C-18.9075 3.77737 -13.2708 1.43834 -7.39111 1.43084H426.869C432.749 1.43835 438.386 3.77737 442.543 7.93493C446.701 12.0925 449.04 17.7292 449.047 23.6089V334.102Z" fill="#3F3D56"/>
<path d="M66.2947 53.2989C74.1971 53.2989 80.6032 46.8928 80.6032 38.9905C80.6032 31.0882 74.1971 24.6821 66.2947 24.6821C58.3924 24.6821 51.9863 31.0882 51.9863 38.9905C51.9863 46.8928 58.3924 53.2989 66.2947 53.2989Z" fill="white"/>
<path d="M353.183 53.2989C361.086 53.2989 367.492 46.8928 367.492 38.9905C367.492 31.0882 361.086 24.6821 353.183 24.6821C345.281 24.6821 338.875 31.0882 338.875 38.9905C338.875 46.8928 345.281 53.2989 353.183 53.2989Z" fill="white"/>
<path d="M107.639 198.531H22.5211C18.9151 198.527 15.458 197.092 12.9081 194.542C10.3583 191.993 8.924 188.535 8.91992 184.929V144.699C8.924 141.093 10.3583 137.636 12.9081 135.086C15.458 132.537 18.9151 131.102 22.5211 131.098H107.639C111.245 131.102 114.702 132.537 117.252 135.086C119.802 137.636 121.236 141.093 121.24 144.699V184.929C121.236 188.535 119.802 191.993 117.252 194.542C114.702 197.092 111.245 198.527 107.639 198.531Z" fill="#3D4F91"/>
<path d="M252.438 198.531H167.32C163.714 198.527 160.257 197.092 157.707 194.542C155.157 191.993 153.723 188.535 153.719 184.929V144.699C153.723 141.093 155.157 137.636 157.707 135.086C160.257 132.537 163.714 131.102 167.32 131.098H252.438C256.044 131.102 259.501 132.537 262.051 135.086C264.601 137.636 266.035 141.093 266.039 144.699V184.929C266.035 188.535 264.601 191.993 262.051 194.542C259.501 197.092 256.044 198.527 252.438 198.531Z" fill="#3D4F91"/>
<path d="M252.438 302.475H167.32C163.605 302.471 160.043 300.993 157.416 298.366C154.789 295.739 153.311 292.177 153.307 288.462V248.231C153.311 244.516 154.789 240.954 157.416 238.327C160.043 235.7 163.605 234.222 167.32 234.218H252.438C256.153 234.222 259.715 235.7 262.342 238.327C264.969 240.954 266.447 244.516 266.451 248.231V288.462C266.447 292.177 264.969 295.739 262.342 298.366C259.715 300.993 256.153 302.471 252.438 302.475Z" fill="#F2F2F2"/>
<path d="M107.358 302.475H22.2399C18.5246 302.471 14.9627 300.993 12.3356 298.366C9.70848 295.739 8.23074 292.177 8.22656 288.462V248.231C8.23074 244.516 9.70848 240.954 12.3356 238.327C14.9627 235.7 18.5246 234.222 22.2399 234.218H107.358C111.073 234.222 114.635 235.7 117.262 238.327C119.889 240.954 121.367 244.516 121.371 248.231V288.462C121.367 292.177 119.889 295.739 117.262 298.366C114.635 300.993 111.073 302.471 107.358 302.475Z" fill="#F2F2F2"/>
<path d="M397.237 302.475H312.119C308.404 302.471 304.842 300.993 302.214 298.366C299.587 295.739 298.11 292.177 298.105 288.462V248.231C298.11 244.516 299.587 240.954 302.214 238.327C304.842 235.7 308.404 234.222 312.119 234.218H397.237C400.952 234.222 404.514 235.7 407.141 238.327C409.768 240.954 411.246 244.516 411.25 248.231V288.462C411.246 292.177 409.768 295.739 407.141 298.366C404.514 300.993 400.952 302.471 397.237 302.475Z" fill="#F2F2F2"/>
<path d="M397.237 198.612H312.119C308.404 198.607 304.842 197.13 302.214 194.503C299.587 191.875 298.11 188.314 298.105 184.598V144.368C298.11 140.653 299.587 137.091 302.214 134.464C304.842 131.836 308.404 130.359 312.119 130.354H397.237C400.952 130.359 404.514 131.836 407.141 134.464C409.768 137.091 411.246 140.653 411.25 144.368V184.598C411.246 188.314 409.768 191.875 407.141 194.503C404.514 197.13 400.952 198.607 397.237 198.612Z" fill="#F2F2F2"/>
<path d="M65.0808 187.895C77.828 187.895 88.1616 177.562 88.1616 164.814C88.1616 152.067 77.828 141.734 65.0808 141.734C52.3336 141.734 42 152.067 42 164.814C42 177.562 52.3336 187.895 65.0808 187.895Z" fill="white"/>
<path d="M62.7894 173.619C62.2701 173.62 61.7646 173.452 61.3491 173.141L61.3233 173.122L55.8992 168.969C55.6476 168.776 55.4365 168.536 55.2777 168.262C55.119 167.988 55.0158 167.686 54.9741 167.372C54.9324 167.058 54.953 166.739 55.0346 166.433C55.1163 166.127 55.2575 165.84 55.4501 165.589C55.6427 165.337 55.8829 165.126 56.1571 164.968C56.4312 164.809 56.734 164.707 57.0479 164.665C57.3618 164.624 57.6809 164.645 57.9867 164.727C58.2926 164.809 58.5793 164.95 58.8305 165.143L62.3439 167.837L70.6465 157.009C70.839 156.758 71.0791 156.547 71.3532 156.389C71.6272 156.231 71.9297 156.128 72.2434 156.086C72.5572 156.045 72.876 156.066 73.1817 156.147C73.4874 156.229 73.774 156.37 74.0251 156.563L73.9735 156.633L74.0264 156.564C74.533 156.953 74.8645 157.528 74.9481 158.161C75.0317 158.795 74.8606 159.435 74.4724 159.943L64.7066 172.679C64.4807 172.972 64.1903 173.21 63.8578 173.373C63.5253 173.536 63.1597 173.62 62.7894 173.619Z" fill="#3D4F91"/>
<path d="M210.292 187.564C223.039 187.564 233.373 177.23 233.373 164.483C233.373 151.736 223.039 141.402 210.292 141.402C197.545 141.402 187.211 151.736 187.211 164.483C187.211 177.23 197.545 187.564 210.292 187.564Z" fill="white"/>
<path d="M208.004 173.288C207.485 173.289 206.98 173.121 206.564 172.809L206.538 172.79L201.114 168.637C200.607 168.248 200.275 167.674 200.191 167.041C200.107 166.407 200.278 165.766 200.667 165.259C201.056 164.751 201.63 164.419 202.264 164.335C202.897 164.251 203.538 164.423 204.045 164.811L207.559 167.505L215.861 156.678C216.054 156.426 216.294 156.216 216.568 156.057C216.842 155.899 217.145 155.796 217.458 155.755C217.772 155.713 218.091 155.734 218.397 155.816C218.702 155.898 218.989 156.039 219.24 156.232L219.188 156.302L219.241 156.233C219.748 156.622 220.079 157.196 220.163 157.83C220.247 158.463 220.076 159.104 219.687 159.611L209.922 172.347C209.696 172.641 209.405 172.878 209.073 173.041C208.74 173.205 208.375 173.289 208.004 173.288Z" fill="#3D4F91"/>
<path d="M366.284 273.398C367.042 272.569 367.61 271.583 367.946 270.511C368.282 269.439 368.379 268.307 368.23 267.193C368.082 266.079 367.69 265.012 367.084 264.066C366.478 263.119 365.672 262.318 364.723 261.717L351.837 192.913L336.166 198.724L353.76 264.529C352.856 266.191 352.593 268.126 353.022 269.969C353.45 271.812 354.539 273.433 356.083 274.526C357.626 275.62 359.518 276.108 361.398 275.901C363.278 275.693 365.017 274.802 366.284 273.398Z" fill="#A0616A"/>
<path d="M241.238 168.41C241.277 168.837 241.282 169.267 241.254 169.695L271.723 193.146L280.364 189.598L287.423 201.939L272.737 209.706C271.551 210.334 270.193 210.56 268.867 210.35C267.541 210.14 266.319 209.506 265.385 208.542L234.929 177.143C233.317 177.506 231.632 177.371 230.099 176.753C228.566 176.136 227.257 175.067 226.346 173.688C225.436 172.308 224.967 170.685 225.002 169.032C225.037 167.38 225.574 165.778 226.542 164.438C227.509 163.098 228.862 162.085 230.42 161.533C231.978 160.981 233.666 160.916 235.262 161.347C236.857 161.779 238.284 162.685 239.351 163.947C240.419 165.209 241.077 166.765 241.238 168.41H241.238Z" fill="#A0616A"/>
<path d="M312.422 395.52H303.652L299.479 368.843L312.424 368.844L312.422 395.52Z" fill="#A0616A"/>
<path d="M314.662 404.022L286.381 404.021V403.663C286.381 402.218 286.666 400.786 287.219 399.451C287.772 398.115 288.583 396.902 289.605 395.879C290.627 394.857 291.841 394.047 293.176 393.493C294.512 392.94 295.943 392.655 297.389 392.656H297.389L314.662 392.656L314.662 404.022Z" fill="#2F2E41"/>
<path d="M345.332 395.52H336.562L332.389 368.843L345.334 368.844L345.332 395.52Z" fill="#A0616A"/>
<path d="M347.572 404.022L319.291 404.021V403.663C319.291 402.218 319.576 400.786 320.129 399.451C320.682 398.115 321.493 396.902 322.515 395.879C323.537 394.857 324.751 394.047 326.086 393.493C327.422 392.94 328.853 392.655 330.299 392.656H330.3L347.573 392.656L347.572 404.022Z" fill="#2F2E41"/>
<path d="M301.829 390.247C301.028 390.248 300.256 389.95 299.664 389.411C299.072 388.872 298.702 388.131 298.628 387.334L290.984 284.535L291.346 284.506L343.944 280.183L343.958 280.557L348.139 387.047C348.156 387.48 348.084 387.912 347.93 388.316C347.776 388.72 347.541 389.09 347.241 389.401C346.941 389.713 346.58 389.961 346.182 390.13C345.784 390.3 345.355 390.387 344.922 390.387H334.609C333.839 390.391 333.094 390.117 332.509 389.615C331.925 389.114 331.541 388.419 331.427 387.657L317.422 301.632C317.408 301.543 317.362 301.462 317.291 301.406C317.221 301.35 317.132 301.323 317.042 301.329C316.953 301.336 316.869 301.376 316.807 301.441C316.746 301.507 316.711 301.593 316.711 301.683L316.075 386.621C316.069 387.441 315.75 388.228 315.183 388.821C314.616 389.414 313.845 389.769 313.025 389.813L302.002 390.242C301.944 390.246 301.886 390.247 301.829 390.247Z" fill="#2F2E41"/>
<path d="M310.81 154.621C320.514 154.621 328.381 146.754 328.381 137.049C328.381 127.345 320.514 119.478 310.81 119.478C301.105 119.478 293.238 127.345 293.238 137.049C293.238 146.754 301.105 154.621 310.81 154.621Z" fill="#A0616A"/>
<path d="M314.213 291.092C306.533 291.069 298.89 290.024 291.485 287.985C290.772 287.778 290.153 287.331 289.731 286.72C289.31 286.11 289.112 285.372 289.17 284.632C291.536 249.081 292.092 221.492 287.117 202.403C284.997 194.267 285.96 185.698 289.758 178.894C295.474 168.654 305.981 162.422 317.188 162.637C317.723 162.647 318.264 162.666 318.81 162.694C335.818 163.57 349.071 178.956 348.353 196.993L344.932 282.964C344.919 283.591 344.722 284.201 344.363 284.716C344.005 285.231 343.502 285.628 342.918 285.857C333.741 289.31 324.018 291.083 314.213 291.092Z" fill="#3F3D56"/>
<path d="M290.006 209.004L276.844 192.875C276.47 192.416 276.199 191.882 276.049 191.308C275.9 190.735 275.876 190.137 275.979 189.553C276.081 188.97 276.309 188.416 276.645 187.928C276.981 187.441 277.419 187.031 277.928 186.728L295.757 176.104C298.116 174.201 301.133 173.311 304.147 173.629C307.161 173.947 309.926 175.448 311.835 177.801C313.745 180.155 314.643 183.17 314.332 186.185C314.022 189.2 312.529 191.969 310.18 193.884L296.246 209.175C295.846 209.612 295.358 209.959 294.813 210.191C294.268 210.423 293.679 210.534 293.087 210.518C292.495 210.502 291.913 210.358 291.381 210.097C290.85 209.835 290.381 209.463 290.006 209.004Z" fill="#3F3D56"/>
<path d="M331.413 206.98C330.872 206.738 330.39 206.382 330 205.937C329.609 205.492 329.319 204.968 329.15 204.4L323.224 184.579C321.938 181.834 321.793 178.692 322.821 175.84C323.848 172.989 325.965 170.661 328.706 169.368C331.448 168.075 334.59 167.922 337.444 168.943C340.299 169.963 342.631 172.074 343.931 174.812L355.39 192.117C355.717 192.611 355.933 193.17 356.025 193.755C356.116 194.34 356.081 194.938 355.921 195.508C355.76 196.079 355.479 196.608 355.096 197.059C354.713 197.511 354.237 197.875 353.7 198.126L334.846 206.951C334.309 207.203 333.725 207.335 333.133 207.34C332.54 207.345 331.954 207.222 331.413 206.98Z" fill="#3F3D56"/>
<path d="M319.493 151.467L306.468 148.486C305.124 148.178 303.51 147.592 303.324 146.226C303.074 144.391 305.715 143.112 305.471 141.276C305.235 139.498 302.829 139.269 301.114 138.744C299.516 138.183 298.199 137.023 297.442 135.509C296.684 133.995 296.546 132.245 297.056 130.631C295.2 133.246 290.959 133.47 288.552 131.351C286.144 129.232 285.683 125.387 287.128 122.525C287.909 121.118 289.011 119.916 290.344 119.016C291.678 118.116 293.204 117.543 294.801 117.345C298.01 116.981 301.255 117.586 304.117 119.081C304.308 117.054 306.839 116.233 308.875 116.215C313.104 116.264 317.213 117.63 320.629 120.124C324.046 122.617 326.6 126.114 327.936 130.127C330.434 138.177 328.763 147.001 321.773 151.711L319.493 151.467Z" fill="#2F2E41"/>
<path d="M450.685 404.213H178.11C177.92 404.213 177.738 404.137 177.604 404.003C177.47 403.869 177.395 403.687 177.395 403.497C177.395 403.308 177.47 403.126 177.604 402.992C177.738 402.857 177.92 402.782 178.11 402.782H450.685C450.875 402.782 451.057 402.857 451.191 402.992C451.325 403.126 451.401 403.308 451.401 403.497C451.401 403.687 451.325 403.869 451.191 404.003C451.057 404.137 450.875 404.213 450.685 404.213Z" fill="#3F3D56"/>
</g>
<defs>
<filter id="filter0_i" x="-31" y="0" width="610.338" height="407.746" filterUnits="userSpaceOnUse" color-interpolation-filters="sRGB">
<feFlood flood-opacity="0" result="BackgroundImageFix"/>
<feBlend mode="normal" in="SourceGraphic" in2="BackgroundImageFix" result="shape"/>
<feColorMatrix in="SourceAlpha" type="matrix" values="0 0 0 0 0 0 0 0 0 0 0 0 0 0 0 0 0 0 127 0" result="hardAlpha"/>
<feOffset dy="3.53307"/>
<feGaussianBlur stdDeviation="1.76654"/>
<feComposite in2="hardAlpha" operator="arithmetic" k2="-1" k3="1"/>
<feColorMatrix type="matrix" values="0 0 0 0 0.231373 0 0 0 0 0.247059 0 0 0 0 0.298039 0 0 0 0.25 0"/>
<feBlend mode="normal" in2="shape" result="effect1_innerShadow"/>
</filter>
<clipPath id="clip0">
<rect width="610.338" height="404.213" fill="white" transform="translate(-31)"/>
</clipPath>
</defs>
</svg>
