<svg width="652" height="550" viewBox="0 0 652 550" fill="none" xmlns="http://www.w3.org/2000/svg">
<g clip-path="url(#clip0)" filter="url(#filter0_i)">
<path d="M72.0445 523.958C72.0445 541.274 61.7511 547.32 49.0525 547.32C48.7584 547.32 48.4646 547.317 48.1714 547.31C47.583 547.297 47.0003 547.269 46.4246 547.23C34.9643 546.419 26.0605 540.062 26.0605 523.958C26.0605 507.292 47.3575 486.263 48.9573 484.707L48.9601 484.704C49.0217 484.643 49.0525 484.614 49.0525 484.614C49.0525 484.614 72.0445 506.642 72.0445 523.958Z" fill="#3D4F91"/>
<path d="M48.216 544.671L56.6252 532.921L48.1949 545.961L48.1725 547.31C47.5842 547.297 47.0014 547.269 46.4257 547.23L47.332 529.906L47.325 529.771L47.3404 529.746L47.4259 528.11L38.9746 515.037L47.4525 526.883L47.4721 527.23L48.1571 514.141L40.9218 500.633L48.2454 511.844L48.9584 484.706L48.9612 484.614V484.704L48.8421 506.103L56.0453 497.619L48.8127 507.946L48.6222 519.666L55.3476 508.418L48.5942 521.39L48.4877 527.905L58.2516 512.251L48.4513 530.179L48.216 544.671Z" fill="#3F3D56"/>
<path d="M564.969 303.942C564.969 439.717 503.322 546.828 427.405 549.785C328.403 553.641 199.013 454.927 289.841 303.942C359.831 187.596 351.431 58.0992 427.405 58.0992C503.38 58.0992 564.969 168.167 564.969 303.942Z" fill="#F2F2F2"/>
<path d="M485.102 376.123H288.957V546.46H485.102V376.123Z" fill="#3D4F91"/>
<path d="M0 546.46H652" stroke="#3F3D56" stroke-width="1.54133" stroke-miterlimit="10"/>
<path d="M430.585 5.87972e-06C426.273 0.000378856 422.093 1.48455 418.746 4.20324C415.399 6.92193 413.09 10.7095 412.206 14.9299C411.322 19.1502 411.917 23.5462 413.891 27.3795C415.866 31.2128 419.099 34.2498 423.049 35.9806C422.97 34.5362 423.08 33.0876 423.375 31.6717C423.736 30.1459 425.79 21.4358 425.79 21.4358C425.38 20.5008 425.174 19.4891 425.186 18.4682C425.186 15.6849 426.796 13.6059 428.808 13.6059C430.518 13.6059 431.339 14.8885 431.339 16.4227C431.339 18.1412 430.241 20.7065 429.68 23.0873C429.568 23.5283 429.561 23.9895 429.66 24.4336C429.759 24.8777 429.961 25.2923 430.25 25.644C430.539 25.9956 430.906 26.2744 431.323 26.4579C431.739 26.6414 432.193 26.7245 432.647 26.7004C436.202 26.7004 438.599 22.1316 438.599 16.7161C438.599 12.5999 435.824 9.5233 430.786 9.5233C429.58 9.47593 428.378 9.67429 427.251 10.1063C426.124 10.5384 425.097 11.1951 424.232 12.0365C423.367 12.8778 422.683 13.8864 422.22 15.0007C421.757 16.115 421.525 17.3119 421.54 18.5185C421.484 19.8564 421.926 21.1676 422.78 22.1987C422.93 22.3224 423.037 22.4906 423.085 22.6789C423.133 22.8672 423.121 23.066 423.049 23.2466C422.956 23.5903 422.755 24.4202 422.663 24.7555C422.647 24.8569 422.607 24.953 422.546 25.0359C422.486 25.1187 422.406 25.1858 422.314 25.2317C422.222 25.2777 422.121 25.301 422.018 25.2998C421.916 25.2986 421.815 25.273 421.724 25.225C419.1 24.1519 417.876 21.2849 417.876 18.049C417.876 12.7173 422.378 6.32091 431.298 6.32091C438.465 6.32091 443.185 11.5101 443.185 17.0765C443.185 24.4454 439.086 29.9447 433.05 29.9447C431.021 29.9447 429.118 28.8465 428.464 27.6058C428.464 27.6058 427.374 31.9316 427.14 32.7699C426.706 34.1943 426.071 35.5493 425.253 36.7938C427.836 37.5566 430.553 37.7551 433.219 37.3758C435.885 36.9964 438.439 36.0482 440.706 34.5952C442.974 33.1423 444.902 31.2187 446.361 28.955C447.82 26.6912 448.775 24.1402 449.161 21.475C449.547 18.8097 449.356 16.0926 448.599 13.5079C447.843 10.9231 446.54 8.53127 444.778 6.49446C443.016 4.45765 440.837 2.82356 438.388 1.70301C435.939 0.582457 433.278 0.00165941 430.585 0L430.585 5.87972e-06Z" fill="#3F3D56"/>
<path d="M615.974 135.809C614.492 136.465 612.922 136.897 611.313 137.092C613.009 136.077 614.279 134.48 614.884 132.599C613.292 133.547 611.548 134.213 609.729 134.569C608.617 133.379 607.172 132.551 605.583 132.193C603.993 131.835 602.333 131.964 600.819 132.563C599.304 133.162 598.004 134.203 597.089 135.55C596.174 136.898 595.685 138.489 595.687 140.118C595.684 140.742 595.754 141.364 595.897 141.971C592.667 141.811 589.508 140.972 586.625 139.509C583.742 138.046 581.199 135.991 579.164 133.479C578.125 135.269 577.808 137.387 578.277 139.402C578.746 141.418 579.965 143.179 581.687 144.327C580.393 144.295 579.127 143.946 577.998 143.312V143.413C577.998 145.288 578.647 147.106 579.834 148.558C581.021 150.009 582.674 151.005 584.512 151.377C583.815 151.566 583.097 151.662 582.375 151.662C581.862 151.663 581.351 151.612 580.849 151.511C581.367 153.125 582.377 154.537 583.738 155.548C585.098 156.56 586.741 157.121 588.436 157.153C585.56 159.413 582.008 160.638 578.351 160.632C577.703 160.631 577.057 160.592 576.414 160.515C580.11 162.92 584.428 164.196 588.838 164.186C603.785 164.186 611.95 151.804 611.95 141.066C611.95 140.714 611.942 140.361 611.925 140.018C613.514 138.866 614.885 137.441 615.974 135.809Z" fill="#3F3D56"/>
<path d="M303.582 23.9033H274.945C274.474 23.9036 274.022 24.0909 273.689 24.4241C273.356 24.7574 273.168 25.2093 273.168 25.6806V54.3175C273.168 54.7888 273.356 55.2407 273.689 55.5739C274.022 55.9072 274.474 56.0945 274.945 56.0947H289.264V43.3523H285.416V38.6577H289.264V35.1871C289.264 31.029 292.148 28.7656 295.861 28.7656C297.639 28.7656 299.55 28.8997 299.994 28.9584V33.3009H297.035C295.015 33.3009 294.629 34.2565 294.629 35.6649V38.6577H299.441L298.812 43.3523H294.629V56.0947H303.582C304.054 56.0945 304.505 55.9072 304.839 55.5739C305.172 55.2407 305.359 54.7888 305.359 54.3175V25.6806C305.359 25.2093 305.172 24.7574 304.839 24.4241C304.505 24.0909 304.053 23.9035 303.582 23.9033Z" fill="#3F3D56"/>
<path d="M307.195 143.107C308.972 143.112 310.675 143.82 311.931 145.077C313.188 146.334 313.896 148.036 313.901 149.814V163.227C313.896 165.004 313.188 166.707 311.931 167.963C310.675 169.22 308.972 169.928 307.195 169.933H293.782C292.005 169.928 290.302 169.22 289.045 167.963C287.789 166.707 287.08 165.004 287.075 163.227V149.814C287.08 148.036 287.789 146.334 289.045 145.077C290.302 143.82 292.005 143.112 293.782 143.107H307.195ZM307.195 140.424H293.782C291.294 140.432 288.91 141.423 287.151 143.182C285.391 144.942 284.4 147.326 284.393 149.814V163.227C284.4 165.715 285.391 168.098 287.151 169.858C288.91 171.617 291.294 172.608 293.782 172.616H307.195C309.683 172.608 312.067 171.617 313.826 169.858C315.585 168.098 316.577 165.715 316.584 163.227V149.814C316.577 147.326 315.585 144.942 313.826 143.182C312.067 141.423 309.683 140.432 307.195 140.424Z" fill="#3F3D56"/>
<path d="M309.206 149.814C308.808 149.814 308.419 149.696 308.088 149.474C307.757 149.253 307.499 148.939 307.347 148.572C307.195 148.204 307.155 147.799 307.233 147.409C307.31 147.019 307.502 146.66 307.783 146.379C308.065 146.098 308.423 145.906 308.813 145.828C309.204 145.751 309.608 145.79 309.976 145.943C310.343 146.095 310.658 146.353 310.879 146.684C311.1 147.015 311.218 147.404 311.218 147.802C311.218 148.066 311.167 148.328 311.066 148.572C310.965 148.817 310.817 149.039 310.63 149.226C310.443 149.413 310.221 149.561 309.977 149.662C309.732 149.763 309.47 149.814 309.206 149.814ZM300.487 151.155C301.548 151.155 302.586 151.47 303.468 152.059C304.35 152.649 305.038 153.487 305.444 154.467C305.85 155.447 305.957 156.526 305.75 157.567C305.542 158.608 305.031 159.564 304.281 160.314C303.531 161.064 302.575 161.575 301.534 161.782C300.493 161.989 299.415 161.883 298.434 161.477C297.454 161.071 296.616 160.383 296.026 159.501C295.437 158.619 295.122 157.581 295.122 156.52C295.123 155.098 295.689 153.734 296.695 152.728C297.701 151.722 299.065 151.156 300.487 151.155ZM300.487 148.472C298.896 148.472 297.34 148.944 296.016 149.829C294.693 150.713 293.661 151.97 293.052 153.44C292.443 154.911 292.284 156.529 292.594 158.09C292.905 159.651 293.671 161.085 294.797 162.211C295.922 163.336 297.356 164.103 298.917 164.413C300.478 164.724 302.097 164.564 303.567 163.955C305.038 163.346 306.295 162.315 307.179 160.991C308.063 159.668 308.535 158.112 308.535 156.52C308.535 154.386 307.687 152.339 306.177 150.83C304.668 149.321 302.622 148.473 300.487 148.472Z" fill="#3F3D56"/>
<path d="M541.457 8.1017H514.597C514.252 8.085 513.907 8.13667 513.582 8.25373C513.256 8.37079 512.957 8.55093 512.702 8.78383C512.446 9.01672 512.239 9.29777 512.093 9.61086C511.946 9.92395 511.863 10.2629 511.848 10.6083V37.5267C511.866 38.2509 512.162 38.9404 512.673 39.4534C513.185 39.9665 513.873 40.264 514.597 40.2847H541.449C542.155 40.2571 542.823 39.9521 543.306 39.4358C543.789 38.9195 544.05 38.2336 544.031 37.5267V10.6083C544.036 10.2718 543.973 9.93781 543.845 9.62672C543.717 9.31564 543.526 9.03406 543.285 8.79929C543.044 8.56453 542.758 8.38154 542.443 8.26158C542.129 8.14161 541.793 8.0872 541.457 8.1017ZM521.824 34.9278H517.213V20.5926H521.824V34.9278ZM519.678 18.413H519.644C518.981 18.4085 518.346 18.1413 517.879 17.6699C517.413 17.1985 517.152 16.5612 517.154 15.8979C517.156 15.2345 517.421 14.599 517.891 14.1307C518.361 13.6624 518.997 13.3994 519.661 13.3994C520.324 13.3994 520.961 13.6624 521.43 14.1307C521.9 14.599 522.165 15.2345 522.168 15.8979C522.17 16.5612 521.909 17.1985 521.442 17.6699C520.976 18.1413 520.341 18.4085 519.678 18.413ZM538.674 34.9278H534.063V27.0896C534.063 25.2117 533.392 23.9291 531.724 23.9291C531.203 23.9335 530.695 24.0995 530.272 24.4043C529.848 24.7091 529.53 25.1376 529.36 25.6309C529.237 25.995 529.183 26.3788 529.201 26.7626V34.9278H524.59V20.5926H529.201V22.5878C529.621 21.8616 530.228 21.2618 530.96 20.8517C531.692 20.4416 532.52 20.2363 533.359 20.2573C536.385 20.2573 538.674 22.2525 538.674 26.5531V34.9278Z" fill="#3F3D56"/>
<path d="M414.189 206.63C414.189 206.63 446.824 207.517 452.213 209.478C457.603 211.439 460.013 225.462 460.013 225.462L434.675 233.426L415.722 232.352L401.459 233.36L409.423 212.502L414.189 206.63Z" fill="#2F2E41"/>
<path d="M415.598 195.922C415.598 195.922 417.745 204.215 412.979 210.086C408.214 215.958 433.465 236.882 433.465 236.882L446.787 234.593C446.787 234.593 443.851 209.111 447.794 202.659C451.738 196.206 415.598 195.922 415.598 195.922Z" fill="#9F616A"/>
<path opacity="0.1" d="M415.598 195.922C415.598 195.922 417.745 204.215 412.979 210.086C408.214 215.958 433.465 236.882 433.465 236.882L446.787 234.593C446.787 234.593 443.851 209.111 447.794 202.659C451.738 196.206 415.598 195.922 415.598 195.922Z" fill="black"/>
<path d="M504.194 438.389L474.803 477.367L494.861 489.078L522.468 443.91L504.194 438.389Z" fill="#9F616A"/>
<path d="M483.578 478.024C483.578 478.024 472.754 465.447 473.236 468.252C473.718 471.056 465.535 494.84 473.149 497.14C480.762 499.441 546.054 505.543 546.952 498.17C547.851 490.797 527.474 485.637 527.474 485.637C527.474 485.637 515.369 474.003 512.685 475.186C510.001 476.369 483.578 478.024 483.578 478.024Z" fill="#2F2E41"/>
<path d="M497.598 475.613L521.074 515.61L538.8 505.346L515.126 472.601L497.598 475.613Z" fill="#9F616A"/>
<path d="M534.662 380.458L527.694 390.318C527.694 390.318 494.479 436.449 498.006 440.174C501.534 443.899 516.225 457.976 523.696 455.248C531.167 452.52 557.711 405.37 557.711 405.37L550.787 377.687L534.662 380.458Z" fill="#2F2E41"/>
<path d="M391.575 371.125C391.575 371.125 399.014 385.005 417.867 389.705C436.721 394.404 456.418 404.012 457.119 403.891C457.82 403.771 459.803 402.708 460.285 405.513C460.767 408.317 465.938 413.203 465.938 413.203C465.938 413.203 486.764 483.972 494.717 484.049C502.67 484.126 519.015 478.429 519.355 476.205C519.694 473.981 495.002 401.711 494.761 400.309L491.868 383.482C491.868 383.482 524.525 388.696 527.571 389.617C530.616 390.537 557.708 405.37 557.708 405.37C557.708 405.37 585.326 385.465 559.494 365.362C533.662 345.26 489.261 330.514 489.261 330.514L473.332 326.034L459.45 325.205L457.406 317.367L424.528 319.264L390.217 333.823L391.575 371.125Z" fill="#2F2E41"/>
<path d="M434.968 212.428C449.112 212.428 460.578 200.962 460.578 186.818C460.578 172.674 449.112 161.208 434.968 161.208C420.824 161.208 409.357 172.674 409.357 186.818C409.357 200.962 420.824 212.428 434.968 212.428Z" fill="#9F616A"/>
<path d="M411.798 207.402L414.878 206.873C414.878 206.873 420.442 228.294 437.652 231.832C437.652 231.832 446.144 221.659 445.781 219.942C445.419 218.226 452.507 209.067 456.275 214.194C460.044 219.321 455.355 309.634 458.521 311.256C461.687 312.877 468.479 314.597 463.013 320.589C457.546 326.582 435.834 334.645 431.024 331.862C426.215 329.08 416.388 305.504 412.138 297.573C407.887 289.642 401.084 262.66 401.084 262.66C401.084 262.66 392.397 233.114 397.743 226.42C403.089 219.727 411.798 207.402 411.798 207.402Z" fill="#D0CDE1"/>
<path d="M436.311 318.587C435.738 324.878 434.758 331.125 433.377 337.29C432.121 342.305 430.659 345.333 428.99 345.204C424.731 344.886 422.796 351.132 421.798 358.332C420.731 365.972 420.731 374.686 420.146 377.766C419.372 381.835 414.416 384.941 404.515 384.029C398.617 383.358 392.83 381.939 387.292 379.805C373.923 374.944 374.318 335.526 376.555 306.276C377.923 288.348 379.979 274.231 379.979 274.231C379.979 274.231 375.919 262.118 374.62 253.816C374.361 252.301 374.231 250.767 374.232 249.231C374.43 241.979 387.67 222.381 395.671 210.174C403.68 197.966 414.606 206.922 414.606 206.922L410.803 218.398C410.803 218.398 416.696 227.491 416.739 236.146C416.782 244.8 430.848 251.046 435.898 255.236C439.072 257.868 438.995 293.011 436.311 318.587Z" fill="#2F2E41"/>
<path d="M447.429 211.023C447.429 211.023 448.352 212.114 452.578 211.582C457.646 210.943 464.615 212.697 466.234 217.536C469.203 226.409 477.572 262.506 477.572 262.506C477.572 262.506 481.056 303.773 482.623 312.888C484.189 322.003 483.411 330.076 484.956 334.864C486.501 339.651 469.707 325.935 463.517 327.721C457.328 329.507 453.351 306.37 454.129 298.296C454.906 290.222 455.564 281.447 453.417 273.154C451.269 264.861 455.076 242.913 454.934 237.885C454.791 232.856 441.286 220.183 447.429 211.023Z" fill="#2F2E41"/>
<path d="M465.552 339.282C465.552 339.282 492.668 354.075 495.263 375.131C497.859 396.187 458.994 354.744 458.994 354.744L465.552 339.282Z" fill="#9F616A"/>
<path d="M481.031 324.35C481.031 324.35 489.34 366.232 502.284 364.007C515.228 361.782 495.054 321.94 495.054 321.94L481.031 324.35Z" fill="#9F616A"/>
<path d="M525.358 506.934C525.358 506.934 518.731 514.57 517.087 513.408C515.444 512.247 511.665 528.055 515.072 531.079C518.479 534.102 531.603 539.065 531.745 544.093C531.888 549.122 567.086 548.125 568.346 542.855C569.606 537.586 563.931 525.568 559.943 523.366C555.956 521.164 541.211 500.898 541.211 500.898C541.211 500.898 529.664 502.585 525.358 506.934Z" fill="#2F2E41"/>
<path opacity="0.1" d="M461.231 364.896C454.942 360.457 437.384 359.356 421.795 358.332C414.956 357.893 408.495 357.463 403.531 356.767C398.748 356.104 394.447 351.734 390.627 345.221C384.837 335.354 380.157 320.557 376.553 306.276C377.921 288.348 379.977 274.231 379.977 274.231C379.977 274.231 375.916 262.118 374.617 253.816C375.533 252.542 376.712 251.479 378.076 250.702C394.61 243.604 410.396 313.451 412.401 324.411C412.435 324.592 412.461 324.764 412.487 324.91C413.459 330.554 423.963 335.38 433.375 337.29C439.173 338.468 444.567 338.546 447.053 337.014C453.583 333.005 473.662 349.05 475.185 349.506C476.707 349.97 470.264 371.288 461.231 364.896Z" fill="black"/>
<path d="M378.08 246.402C378.08 246.402 366.063 252.077 371.343 278.599C376.623 305.121 387.261 350.212 403.529 352.469C419.797 354.725 452.191 354.21 461.229 360.597C470.267 366.984 476.708 345.665 475.186 345.205C473.663 344.745 453.582 328.707 447.053 332.717C440.524 336.726 414.057 329.726 412.49 320.611C410.923 311.497 394.885 239.183 378.08 246.402Z" fill="#2F2E41"/>
<path d="M464.68 233.683L477.887 264.33C477.887 264.33 479.217 263.667 480.762 268.454C482.306 273.242 483.029 277.449 485.735 280.593C488.441 283.737 500.481 328.586 500.842 330.69C501.204 332.793 484.214 340.044 480.417 334.2C476.621 328.356 464.68 233.683 464.68 233.683Z" fill="#2F2E41"/>
<path d="M420.397 186.461C421.378 186.199 421.522 184.896 421.555 183.881C421.731 178.444 425.006 172.864 430.21 171.281C432.208 170.734 434.299 170.619 436.344 170.944C439.263 171.333 442.082 172.273 444.65 173.715C446.006 174.477 447.336 175.395 448.873 175.628C449.889 175.781 454.286 177.06 455.297 177.24C457.52 177.635 459.586 179.624 461.719 178.884C463.76 178.176 464.212 175.534 464.262 173.374C464.374 168.453 460.639 161.643 457.349 157.983C454.852 155.205 451.093 153.923 447.418 153.256C443.125 152.567 438.775 152.302 434.43 152.466C428.549 152.571 422.505 153.025 417.202 155.57C411.899 158.114 407.444 163.179 407.19 169.055C407.137 170.279 407.263 171.509 407.16 172.73C406.909 175.708 405.328 178.398 404.586 181.294C404.055 183.418 403.976 185.631 404.353 187.788C404.73 189.945 405.555 191.999 406.774 193.818C408.742 196.714 411.836 199.334 411.722 202.833L415.99 198.412C416.627 197.926 417.078 197.235 417.268 196.456C417.457 195.677 417.374 194.856 417.032 194.131L415.521 188.239C415.133 187.187 415.087 186.039 415.39 184.96C417.01 180.959 418.76 186.898 420.397 186.461Z" fill="#2F2E41"/>
<path d="M225.482 361.392C225.482 443.043 176.942 471.553 117.064 471.553C57.1869 471.553 8.64648 443.043 8.64648 361.392C8.64648 279.741 117.064 175.867 117.064 175.867C117.064 175.867 225.482 279.741 225.482 361.392Z" fill="#F2F2F2"/>
<path d="M113.114 459.062L114.225 390.728L160.435 306.188L114.399 380.008L114.897 349.282L146.746 288.119L115.03 341.151L115.928 285.889L150.031 237.195L116.069 277.199L116.63 175.868L113.105 310.012L113.394 304.478L78.7208 251.405L112.838 315.101L109.608 376.82L109.511 375.182L69.5391 319.33L109.39 380.968L108.986 388.687L108.914 388.803L108.947 389.437L100.75 546.022H111.701L113.015 465.142L152.769 403.655L113.114 459.062Z" fill="#3F3D56"/>
</g>
<defs>
<filter id="filter0_i" x="0" y="0" width="652" height="553.894" filterUnits="userSpaceOnUse" color-interpolation-filters="sRGB">
<feFlood flood-opacity="0" result="BackgroundImageFix"/>
<feBlend mode="normal" in="SourceGraphic" in2="BackgroundImageFix" result="shape"/>
<feColorMatrix in="SourceAlpha" type="matrix" values="0 0 0 0 0 0 0 0 0 0 0 0 0 0 0 0 0 0 127 0" result="hardAlpha"/>
<feOffset dy="4"/>
<feGaussianBlur stdDeviation="2"/>
<feComposite in2="hardAlpha" operator="arithmetic" k2="-1" k3="1"/>
<feColorMatrix type="matrix" values="0 0 0 0 0.231373 0 0 0 0 0.247059 0 0 0 0 0.298039 0 0 0 0.25 0"/>
<feBlend mode="normal" in2="shape" result="effect1_innerShadow"/>
</filter>
<clipPath id="clip0">
<rect width="652" height="549.894" fill="white"/>
</clipPath>
</defs>
</svg>
