<svg width="597" height="441" viewBox="0 0 597 441" fill="none" xmlns="http://www.w3.org/2000/svg">
<g clip-path="url(#clip0)" filter="url(#filter0_i)">
<path d="M0.00227356 163.609H250.943V170.97H0.00227356V163.609Z" fill="#E6E6E6"/>
<path d="M166.626 102.045H230.197V165.616H166.626V102.045Z" fill="#E6E6E6"/>
<path d="M179.337 114.759H217.48V152.902H179.337V114.759Z" fill="#CCCCCC"/>
<path d="M71.6009 102.045H87.6611V165.616H71.6009V102.045Z" fill="#E6E6E6"/>
<path d="M71.6009 112.082H87.6611V119.443H71.6009V112.082Z" fill="#CCCCCC"/>
<path d="M71.6009 144.203H87.6611V151.564H71.6009V144.203Z" fill="#CCCCCC"/>
<path d="M96.3626 102.045H112.423V165.616H96.3626V102.045Z" fill="#E6E6E6"/>
<path d="M96.3626 112.082H112.423V119.443H96.3626V112.082Z" fill="#CCCCCC"/>
<path d="M96.3626 144.203H112.423V151.564H96.3626V144.203Z" fill="#CCCCCC"/>
<path d="M57.7653 101.782L72.1582 108.907L43.952 165.879L29.5591 158.753L57.7653 101.782Z" fill="#E6E6E6"/>
<path d="M53.3102 110.777L67.7031 117.903L64.4371 124.5L50.0443 117.374L53.3102 110.777Z" fill="#CCCCCC"/>
<path d="M39.0583 139.563L53.4512 146.689L50.1852 153.286L35.7923 146.16L39.0583 139.563Z" fill="#CCCCCC"/>
<path d="M206.44 127.562L198.352 141.571L190.264 155.579H206.44H222.615L214.528 141.571L206.44 127.562Z" fill="#E6E6E6"/>
<path d="M192.387 130.239L184.3 144.247L176.212 158.256H192.387H208.562L200.475 144.247L192.387 130.239Z" fill="#E6E6E6"/>
<path d="M186.701 126.135C184.113 126.135 182.016 124.038 182.016 121.451C182.016 118.864 184.113 116.766 186.701 116.766C189.288 116.766 191.385 118.864 191.385 121.451C191.385 124.038 189.288 126.135 186.701 126.135Z" fill="#E6E6E6"/>
<path d="M250.941 69.9242L0 69.9242L0 62.5633L250.941 62.5633V69.9242Z" fill="#E6E6E6"/>
<path d="M84.3159 64.5707L20.7441 64.5707L20.7441 0.99894L84.3159 0.99894V64.5707Z" fill="#E6E6E6"/>
<path d="M71.602 51.8564L33.459 51.8564L33.459 13.7133L71.602 13.7133V51.8564Z" fill="#CCCCCC"/>
<path d="M179.341 64.5707H163.281V0.99894H179.341V64.5707Z" fill="#E6E6E6"/>
<path d="M179.341 18.3976L163.281 18.3976V11.0367L179.341 11.0367V18.3976Z" fill="#CCCCCC"/>
<path d="M179.341 50.518H163.281V43.1571H179.341V50.518Z" fill="#CCCCCC"/>
<path d="M154.58 64.5707H138.52V0.99894H154.58V64.5707Z" fill="#E6E6E6"/>
<path d="M154.58 18.3976L138.52 18.3976V11.0367L154.58 11.0367V18.3976Z" fill="#CCCCCC"/>
<path d="M154.58 50.518H138.52V43.1571H154.58V50.518Z" fill="#CCCCCC"/>
<path d="M221.383 57.7079L206.99 64.8336L178.784 7.8619L193.177 0.736134L221.383 57.7079Z" fill="#E6E6E6"/>
<path d="M200.897 16.3285L186.504 23.4542L183.238 16.8575L197.631 9.73173L200.897 16.3285Z" fill="#CCCCCC"/>
<path d="M215.149 45.1142L200.756 52.2399L197.49 45.6432L211.883 38.5174L215.149 45.1142Z" fill="#CCCCCC"/>
<path d="M44.4988 26.5165L52.5863 40.5247L60.6738 54.5329H44.4988H28.323L36.4113 40.5247L44.4988 26.5165Z" fill="#E6E6E6"/>
<path d="M58.5535 29.1931L66.641 43.2013L74.7285 57.2095H58.5535H42.3777L50.4652 43.2013L58.5535 29.1931Z" fill="#E6E6E6"/>
<path d="M64.2416 25.0893C61.6545 25.0893 59.5574 22.9921 59.5574 20.4051C59.5574 17.8181 61.6545 15.7209 64.2416 15.7209C66.8286 15.7209 68.9258 17.8181 68.9258 20.4051C68.9258 22.9921 66.8286 25.0893 64.2416 25.0893Z" fill="#E6E6E6"/>
<path d="M250.941 272.015L0 272.015L0 264.654L250.941 264.654V272.015Z" fill="#E6E6E6"/>
<path d="M84.3159 266.662H20.7441L20.7441 203.09H84.3159V266.662Z" fill="#E6E6E6"/>
<path d="M71.602 253.948H33.459L33.459 215.804H71.602V253.948Z" fill="#CCCCCC"/>
<path d="M179.341 266.662H163.281V203.09H179.341V266.662Z" fill="#E6E6E6"/>
<path d="M179.341 220.489H163.281V213.128H179.341V220.489Z" fill="#CCCCCC"/>
<path d="M179.341 252.609H163.281V245.248H179.341V252.609Z" fill="#CCCCCC"/>
<path d="M154.58 266.662H138.52V203.09H154.58V266.662Z" fill="#E6E6E6"/>
<path d="M154.58 220.489H138.52V213.128H154.58V220.489Z" fill="#CCCCCC"/>
<path d="M154.58 252.609H138.52V245.248H154.58V252.609Z" fill="#CCCCCC"/>
<path d="M221.383 259.799L206.99 266.925L178.784 209.953L193.177 202.827L221.383 259.799Z" fill="#E6E6E6"/>
<path d="M200.897 218.42L186.504 225.545L183.238 218.949L197.631 211.823L200.897 218.42Z" fill="#CCCCCC"/>
<path d="M215.149 247.205L200.756 254.331L197.49 247.734L211.883 240.609L215.149 247.205Z" fill="#CCCCCC"/>
<path d="M44.4988 228.608L52.5863 242.616L60.6738 256.625H44.4988H28.323L36.4113 242.616L44.4988 228.608Z" fill="#E6E6E6"/>
<path d="M58.5535 231.284L66.641 245.292L74.7285 259.301H58.5535H42.3777L50.4652 245.292L58.5535 231.284Z" fill="#E6E6E6"/>
<path d="M64.2416 227.181C61.6545 227.181 59.5574 225.083 59.5574 222.496C59.5574 219.909 61.6545 217.812 64.2416 217.812C66.8286 217.812 68.9258 219.909 68.9258 222.496C68.9258 225.083 66.8286 227.181 64.2416 227.181Z" fill="#E6E6E6"/>
<path d="M301.391 440.593C138.131 440.593 5.78235 431.193 5.78235 419.598C5.78235 408.003 138.131 398.603 301.391 398.603C464.651 398.603 597 408.003 597 419.598C597 431.193 464.651 440.593 301.391 440.593Z" fill="#E6E6E6"/>
<path d="M70.446 431.355C118.647 422.776 171.358 424.202 226.648 431.355C201.448 410.08 179.698 388.805 204.899 367.531C155.741 377.672 148.856 376.645 94.173 367.531C106.856 388.805 83.1295 410.08 70.446 431.355Z" fill="#3D4F91"/>
<path opacity="0.2" d="M70.446 431.355C118.647 422.776 171.358 424.202 226.648 431.355C201.448 410.08 179.698 388.805 204.899 367.531C155.741 377.672 148.856 376.645 94.173 367.531C106.856 388.805 83.1295 410.08 70.446 431.355Z" fill="black"/>
<path d="M82.2045 422.279C123.15 415.431 167.925 416.569 214.893 422.279C193.485 405.297 175.01 388.315 196.417 371.333C154.66 379.427 148.811 378.608 102.36 371.333C113.134 388.315 92.9786 405.297 82.2045 422.279Z" fill="#3D4F91"/>
<path d="M97.7986 394.917C85.7496 394.917 75.982 385.149 75.982 373.1C75.982 361.051 85.7496 351.283 97.7986 351.283C109.848 351.283 119.615 361.051 119.615 373.1C119.615 385.149 109.848 394.917 97.7986 394.917Z" fill="#2F2E41"/>
<path d="M196.835 347.795L181.719 350.315L174.161 372.149L195.995 385.587L221.189 347.795H197.675H196.835Z" fill="#A0616A"/>
<path d="M154.008 381.388C134.528 381.388 118.736 365.596 118.736 346.116C118.736 326.636 134.528 310.844 154.008 310.844C173.488 310.844 189.279 326.636 189.279 346.116C189.279 365.596 173.488 381.388 154.008 381.388Z" fill="#A0616A"/>
<path d="M348.84 217.627C348.84 217.627 434.5 226.864 449.616 225.185C464.732 223.505 471.451 221.826 471.451 221.826C471.451 221.826 481.528 235.262 476.49 241.141C473.668 244.528 470.253 247.374 466.412 249.539C466.412 249.539 457.174 247.02 450.456 249.539C443.737 252.058 375.714 262.976 363.957 252.898C352.199 242.821 348.84 217.627 348.84 217.627Z" fill="#2F2E41"/>
<path d="M342.962 404.902C342.962 404.902 399.228 388.945 409.306 318.402V311.684C409.306 311.684 420.439 331.215 424.422 335.198C429.041 339.817 445.417 381.387 444.578 385.586C443.738 389.785 444.578 391.465 444.578 391.465L468.932 388.945V381.387C468.932 381.387 455.915 342.337 455.075 333.099C454.235 323.861 422.743 259.616 422.743 259.616C422.743 259.616 410.986 235.262 390.83 259.616C370.675 283.971 368.996 300.767 368.996 300.767L342.962 351.154L342.962 404.902Z" fill="#2F2E41"/>
<path d="M468.93 219.306L495.803 210.068C495.803 210.068 520.997 191.593 515.119 210.068C509.24 228.544 482.367 268.854 474.808 264.655C467.25 260.456 458.16 250.034 460.186 248.526C462.211 247.019 475.648 236.102 468.93 219.306Z" fill="#2F2E41"/>
<path d="M465.681 376.429L487.375 387.024C487.375 387.024 513.609 391.06 498.979 398.627C484.348 406.195 443.988 414.267 441.97 407.204C439.952 400.141 440.753 388.419 442.875 388.73C444.997 389.042 459.627 390.555 465.681 376.429Z" fill="#2F2E41"/>
<path d="M353.877 349.475C353.877 349.475 364.794 396.504 346.319 406.581C327.843 416.659 198.514 418.338 188.437 399.863C178.359 381.387 183.398 381.387 183.398 381.387L210.271 351.154L188.437 349.475C188.437 349.475 188.437 342.756 195.995 341.917C203.553 341.077 227.067 332.679 247.223 338.557C267.378 344.436 279.135 326.8 279.135 326.8L353.877 349.475Z" fill="#575A89"/>
<path d="M368.155 202.51L382.432 280.612L284.175 268.854L266.539 198.311L368.155 202.51Z" fill="#3F3D56"/>
<path d="M365.215 205.45L376.973 275.153L287.534 264.656L270.319 201.251L365.215 205.45Z" fill="white"/>
<path d="M379.075 281.452L382.434 280.612L384.113 283.97L357.24 358.713L354.712 357.747L353.881 352.835L379.075 281.452Z" fill="#B3B3B3"/>
<path d="M382.432 279.771L355.558 357.873L253.943 342.757L284.175 268.855L382.432 279.771Z" fill="#D0CDE1"/>
<path d="M368.994 277.252V281.451L294.253 273.054L295.092 268.855L368.994 277.252Z" fill="#3F3D56"/>
<path d="M367.314 285.65L355.557 318.402L279.136 309.165L292.572 278.092L367.314 285.65Z" fill="#3F3D56"/>
<path d="M271.578 331.839L274.098 325.121C274.098 325.121 293.413 291.529 303.491 298.247C313.568 304.966 282.496 337.718 282.496 337.718H272.418L271.578 331.839Z" fill="#A0616A"/>
<path d="M335.404 336.878L337.923 326.8C337.923 326.8 344.641 295.728 332.884 297.407C321.127 299.087 317.768 328.48 317.768 328.48L318.608 335.198L335.404 336.878Z" fill="#A0616A"/>
<path d="M315.249 332.679C315.249 332.679 337.083 329.32 337.923 334.359C338.763 339.397 342.962 414.979 321.967 417.499C300.972 420.018 196.837 430.935 207.754 404.902C218.672 378.868 235.468 382.227 235.468 382.227L306.851 389.785L315.249 332.679Z" fill="#575A89"/>
<path d="M249.322 342.337L271.577 326.8L286.273 338.138L267.798 358.293L249.322 342.337Z" fill="#575A89"/>
<path opacity="0.2" d="M308.949 357.453L305.591 389.366L247.644 386.006L298.032 385.167L308.949 357.453Z" fill="black"/>
<path d="M136.596 394.515C113.406 394.515 94.6062 375.715 94.6062 352.525C94.6062 329.334 113.406 310.535 136.596 310.535C159.786 310.535 178.586 329.334 178.586 352.525C178.586 375.715 159.786 394.515 136.596 394.515Z" fill="#2F2E41"/>
<path d="M352.619 229.804L300.552 227.991L295.513 208.809L349.26 210.431L352.619 229.804Z" fill="#3D4F91"/>
<path d="M366.055 240.721L287.114 238.202L286.274 234.842L365.215 237.622L366.055 240.721Z" fill="#E6E6E6"/>
<path d="M367.734 249.119L288.793 246.6L287.953 243.24L366.895 246.02L367.734 249.119Z" fill="#E6E6E6"/>
<path d="M368.574 255.837L289.634 253.318L288.793 249.959L367.735 252.738L368.574 255.837Z" fill="#E6E6E6"/>
</g>
<defs>
<filter id="filter0_i" x="0" y="0.736206" width="597" height="443.857" filterUnits="userSpaceOnUse" color-interpolation-filters="sRGB">
<feFlood flood-opacity="0" result="BackgroundImageFix"/>
<feBlend mode="normal" in="SourceGraphic" in2="BackgroundImageFix" result="shape"/>
<feColorMatrix in="SourceAlpha" type="matrix" values="0 0 0 0 0 0 0 0 0 0 0 0 0 0 0 0 0 0 127 0" result="hardAlpha"/>
<feOffset dy="4"/>
<feGaussianBlur stdDeviation="2"/>
<feComposite in2="hardAlpha" operator="arithmetic" k2="-1" k3="1"/>
<feColorMatrix type="matrix" values="0 0 0 0 0.231373 0 0 0 0 0.247059 0 0 0 0 0.298039 0 0 0 0.25 0"/>
<feBlend mode="normal" in2="shape" result="effect1_innerShadow"/>
</filter>
<clipPath id="clip0">
<rect width="597" height="439.857" fill="white" transform="matrix(-1 0 0 1 597 0.736206)"/>
</clipPath>
</defs>
</svg>
