<svg width="87" height="66" viewBox="0 0 87 66" fill="none" xmlns="http://www.w3.org/2000/svg">
<g filter="url(#filter0_di)">
<path d="M56.1589 28.6875C52.8077 28.6875 49.5673 27.1912 47.0311 24.4756C44.5649 21.8269 43.0588 18.2948 42.7931 14.5328C42.5095 10.5198 43.7336 6.82958 46.2389 4.14013C48.7442 1.45067 52.247 0 56.1589 0C60.0431 0 63.5557 1.47675 66.0528 4.15969C68.5744 6.8687 69.8018 10.5524 69.5181 14.5312C69.2459 18.2981 67.7415 21.8286 65.2802 24.474C62.7505 27.1912 59.5117 28.6875 56.1589 28.6875ZM77.6468 57.375H34.6726C33.9817 57.3787 33.2991 57.2238 32.6774 56.9223C32.0558 56.6208 31.5115 56.1807 31.0867 55.6358C30.636 55.0451 30.3248 54.3602 30.1763 53.6322C30.0278 52.9042 30.0459 52.1521 30.2293 51.4321C31.6017 45.9212 35.0019 41.3507 40.0613 38.2163C44.5519 35.4356 50.2682 33.9034 56.1589 33.9034C62.1653 33.9034 67.7317 35.3704 72.2483 38.1495C77.3192 41.2676 80.7242 45.8641 82.0901 51.4419C82.2713 52.1624 82.2874 52.9145 82.1372 53.6421C81.9871 54.3697 81.6745 55.054 81.223 55.644C80.7985 56.1863 80.2556 56.6243 79.6357 56.9243C79.0158 57.2244 78.3355 57.3785 77.6468 57.375ZM25.3524 29.3395C19.6166 29.3395 14.5734 24.0062 14.1056 17.4521C13.8742 14.0944 14.9206 10.9893 17.0396 8.7122C19.1357 6.45794 22.0925 5.21591 25.3524 5.21591C28.6124 5.21591 31.5463 6.46447 33.6539 8.73176C35.7891 11.0268 36.8323 14.1253 36.5878 17.4554C36.12 24.0078 31.0785 29.3395 25.3524 29.3395ZM36.0548 34.4657C33.1877 33.064 29.4665 32.3631 25.3541 32.3631C20.5522 32.3631 15.8888 33.6149 12.2214 35.8871C8.06333 38.4673 5.2663 42.2244 4.13673 46.7606C3.97143 47.4131 3.95579 48.0945 4.091 48.7538C4.2262 49.4132 4.50874 50.0335 4.91749 50.5682C5.30534 51.0661 5.80221 51.4684 6.3699 51.7442C6.93759 52.02 7.56097 52.1619 8.1921 52.1591H26.2848C26.5902 52.159 26.8858 52.0518 27.1203 51.8561C27.3547 51.6604 27.513 51.3886 27.5676 51.0882C27.5855 50.9855 27.6083 50.8828 27.6344 50.7817C29.0166 45.2301 32.2554 40.539 37.041 37.1193C37.217 36.9925 37.3586 36.8237 37.4529 36.6283C37.5471 36.4328 37.5912 36.217 37.581 36.0002C37.5708 35.7835 37.5067 35.5727 37.3944 35.387C37.2822 35.2013 37.1254 35.0466 36.9383 34.9368C36.6824 34.7868 36.389 34.6287 36.0548 34.4657Z" fill="#F7FAFB"/>
</g>
<defs>
<filter id="filter0_di" x="0" y="0" width="86.239" height="65.375" filterUnits="userSpaceOnUse" color-interpolation-filters="sRGB">
<feFlood flood-opacity="0" result="BackgroundImageFix"/>
<feColorMatrix in="SourceAlpha" type="matrix" values="0 0 0 0 0 0 0 0 0 0 0 0 0 0 0 0 0 0 127 0"/>
<feOffset dy="4"/>
<feGaussianBlur stdDeviation="2"/>
<feColorMatrix type="matrix" values="0 0 0 0 0 0 0 0 0 0 0 0 0 0 0 0 0 0 0.25 0"/>
<feBlend mode="normal" in2="BackgroundImageFix" result="effect1_dropShadow"/>
<feBlend mode="normal" in="SourceGraphic" in2="effect1_dropShadow" result="shape"/>
<feColorMatrix in="SourceAlpha" type="matrix" values="0 0 0 0 0 0 0 0 0 0 0 0 0 0 0 0 0 0 127 0" result="hardAlpha"/>
<feOffset dy="4"/>
<feGaussianBlur stdDeviation="2"/>
<feComposite in2="hardAlpha" operator="arithmetic" k2="-1" k3="1"/>
<feColorMatrix type="matrix" values="0 0 0 0 0 0 0 0 0 0 0 0 0 0 0 0 0 0 0.25 0"/>
<feBlend mode="normal" in2="shape" result="effect2_innerShadow"/>
</filter>
</defs>
</svg>
