<svg width="492" height="343" viewBox="0 0 492 343" fill="none" xmlns="http://www.w3.org/2000/svg">
<g opacity="0.75" clip-path="url(#clip0)" filter="url(#filter0_di)">
<path d="M4 0V162.211H166.211V0H4ZM86.4276 158.684C85.5558 158.684 84.7036 158.426 83.9787 157.941C83.2539 157.457 82.6889 156.769 82.3553 155.963C82.0216 155.158 81.9344 154.271 82.1044 153.416C82.2745 152.561 82.6943 151.776 83.3108 151.159C83.9272 150.543 84.7126 150.123 85.5677 149.953C86.4227 149.783 87.309 149.87 88.1145 150.204C88.9199 150.538 89.6083 151.103 90.0927 151.827C90.577 152.552 90.8355 153.405 90.8355 154.276C90.8355 155.445 90.3711 156.567 89.5445 157.393C88.7178 158.22 87.5967 158.684 86.4276 158.684Z" fill="#3D4F91" fill-opacity="0.55"/>
<path d="M487.105 189.539C487.105 261.78 434.435 321.728 365.403 333.069C357.549 334.357 349.603 335.003 341.644 335C322.541 335.004 303.624 331.244 285.974 323.936C268.324 316.627 252.287 305.913 238.779 292.405C225.271 278.897 214.556 262.86 207.248 245.21C199.939 227.56 196.18 208.643 196.184 189.539C196.184 109.206 261.31 44.079 341.644 44.079C372.005 44.0325 401.613 53.5311 426.28 71.2316C463.108 97.6173 487.105 140.775 487.105 189.539Z" fill="#3D4F91" fill-opacity="0.55"/>
<path d="M442.615 48.4401L455.248 44.5011L456.338 33.375C456.338 33.375 425.612 21.7682 415.788 42.2984C412.32 49.5474 407.949 53.9008 403.744 56.4997C397.953 60.0796 390.815 60.4997 384.419 58.1641C363.124 50.3868 358.109 72.5034 358.109 72.5034C358.109 72.5034 359.95 75.6518 373.077 76.4258C379.61 76.8111 384.955 81.7271 388.677 86.5689C396.647 96.9367 413.017 93.9404 417.037 81.4964C417.102 81.2959 417.165 81.0927 417.228 80.8871C423.508 60.3167 452.095 76.6947 452.095 76.6947L453.92 58.0633L442.615 48.4401Z" fill="#2F2E41"/>
<path d="M356.536 98.792C365.082 98.792 372.009 91.8646 372.009 83.3191C372.009 74.7736 365.082 67.8461 356.536 67.8461C347.991 67.8461 341.063 74.7736 341.063 83.3191C341.063 91.8646 347.991 98.792 356.536 98.792Z" fill="#2F2E41"/>
<path d="M348.8 165.841C371.588 165.841 390.061 147.368 390.061 124.58C390.061 101.792 371.588 83.319 348.8 83.319C326.012 83.319 307.539 101.792 307.539 124.58C307.539 147.368 326.012 165.841 348.8 165.841Z" fill="#2F2E41"/>
<path d="M347.511 167.99C363.177 167.99 375.878 155.29 375.878 139.623C375.878 123.957 363.177 111.256 347.511 111.256C331.844 111.256 319.144 123.957 319.144 139.623C319.144 155.29 331.844 167.99 347.511 167.99Z" fill="#A0616A"/>
<path d="M336.336 161.114L341.494 188.621L367.282 185.183C367.282 185.183 362.984 163.692 365.563 157.675L336.336 161.114Z" fill="#A0616A"/>
<path d="M209.113 267.705C209.113 267.705 179.887 250.513 177.308 262.547C174.729 274.582 206.535 279.74 206.535 279.74L209.113 267.705Z" fill="#A0616A"/>
<path d="M387.052 100.941C387.052 100.941 366.422 85.468 357.826 91.4853C349.23 97.5026 381.035 117.274 384.474 115.554C387.912 113.835 387.052 100.941 387.052 100.941Z" fill="#A0616A"/>
<path d="M367.282 170.569L336.336 175.727V189.481C336.336 189.481 307.109 198.936 307.109 203.234C307.109 207.532 299.373 223.865 299.373 223.865C299.373 223.865 280.462 237.619 295.934 253.951C295.934 253.951 301.952 263.407 297.654 264.267C293.356 265.126 283.9 267.705 288.198 271.143C292.496 274.582 356.967 297.791 362.124 296.072C367.282 294.353 406.824 233.321 406.824 217.848C406.824 202.375 390.491 180.025 390.491 180.025L371.58 177.446L367.282 170.569Z" fill="#D0CDE1"/>
<path d="M309.687 202.375C309.687 202.375 297.653 200.656 293.355 215.269C289.057 229.882 274.443 277.161 274.443 277.161C274.443 277.161 222.007 276.301 208.254 263.407L202.236 283.178C202.236 283.178 281.32 311.545 288.197 306.387C295.074 301.23 325.16 217.848 325.16 217.848L309.687 202.375Z" fill="#D0CDE1"/>
<path d="M387.912 182.604L390.491 180.025C390.491 180.025 423.156 144.781 422.297 136.185C422.297 136.185 405.105 114.695 383.614 120.712C383.614 120.712 374.159 97.5026 388.772 98.3622C403.385 99.2218 457.541 95.7834 456.681 120.712C455.821 145.641 404.245 222.146 404.245 222.146L387.912 182.604Z" fill="#D0CDE1"/>
<path d="M365.403 333.069C357.549 334.357 349.604 335.003 341.645 335C316.356 335.039 291.498 328.454 269.545 315.901L274.654 305.555L290.914 272.602L291.637 271.143L303.481 274.713L362.983 292.636L363.147 295.382L365.403 333.069Z" fill="#2F2E41"/>
<path d="M375.655 126.841C378.866 117.403 369.446 105.66 354.615 100.614C339.783 95.5671 325.156 99.1272 321.945 108.566C318.733 118.004 328.153 129.746 342.985 134.793C357.816 139.84 372.443 136.279 375.655 126.841Z" fill="#2F2E41"/>
<path d="M87.1318 155.403C93.1056 144.458 107.414 137.527 119.118 143.774C124.386 146.586 128.574 151.56 129.904 157.439C131.448 164.268 128.196 170.78 124.84 176.517C123.019 179.631 121.023 182.682 119.515 185.967C117.954 189.368 116.839 193.3 118.014 197C119.073 200.334 121.725 202.759 124.63 204.541C127.836 206.432 131.246 207.955 134.795 209.079C142.1 211.508 149.806 212.505 157.489 212.015C161.307 211.755 165.094 211.143 168.799 210.186C172.742 209.182 176.61 207.908 180.559 206.927C187.151 205.289 194.668 204.475 200.919 207.766C206.992 210.962 209.71 217.648 210.551 224.152C212.104 236.161 207.341 248.624 198.744 257.035C194.619 261.071 189.428 264.404 183.774 265.768C178.841 266.958 172.507 266.882 168.582 263.194C164.201 259.078 165.23 252.479 168.711 248.137C173.152 242.596 180.675 241.266 187.389 241.131C195.026 240.977 202.656 242.115 210.289 241.408C214.015 241.118 217.67 240.236 221.118 238.796C224.15 237.462 226.915 235.591 229.28 233.273C233.992 228.695 237.168 222.596 238.75 216.255C240.653 208.629 240.238 200.614 238.761 192.955C237.974 189.005 236.96 185.104 235.725 181.271C235.215 179.653 232.661 180.344 233.175 181.974C237.724 196.398 240.26 213.077 231.471 226.47C227.834 232.149 222.168 236.228 215.628 237.874C208.021 239.765 200.039 238.83 192.306 238.549C184.953 238.282 176.88 238.57 170.575 242.853C165.405 246.365 161.788 253.047 163.351 259.355C164.858 265.438 170.704 268.522 176.55 268.998C182.685 269.498 188.721 267.439 193.873 264.22C204.59 257.523 211.716 245.745 213.207 233.258C213.984 226.751 213.194 219.743 210.243 213.837C208.688 210.64 206.268 207.943 203.258 206.052C200.256 204.212 196.789 203.306 193.307 202.985C185.396 202.257 177.794 204.973 170.29 207.051C166.456 208.163 162.526 208.913 158.552 209.291C154.696 209.611 150.817 209.548 146.972 209.103C143.157 208.653 139.398 207.818 135.751 206.612C132.177 205.507 128.755 203.961 125.565 202.007C122.751 200.208 120.317 197.63 120.178 194.119C120.028 190.311 121.949 186.748 123.775 183.536C127.384 177.193 131.84 170.988 132.783 163.562C133.607 157.067 130.993 150.664 126.48 146.031C124.218 143.679 121.495 141.82 118.481 140.57C115.467 139.319 112.227 138.705 108.964 138.765C102.267 138.956 95.8552 141.868 90.9294 146.341C88.4869 148.561 86.4317 151.172 84.8482 154.068C84.0325 155.563 86.3153 156.899 87.1318 155.403Z" fill="#3F3D56"/>
<path d="M91.7174 14.9868C87.5207 14.987 83.4383 16.3548 80.0886 18.883C76.7389 21.4112 74.3043 24.9621 73.1535 28.9979C72.0028 33.0338 72.1985 37.3347 73.7111 41.2493C75.2236 45.1639 77.9707 48.4791 81.5362 50.6926C81.5923 50.7275 81.6517 50.7574 81.7082 50.7917C82.4209 48.703 83.7691 46.8897 85.564 45.6056C87.3588 44.3215 89.5105 43.6311 91.7174 43.6311C93.9242 43.6311 96.0759 44.3215 97.8707 45.6056C99.6656 46.8897 101.014 48.703 101.726 50.7917C101.783 50.7574 101.842 50.7275 101.899 50.6926C105.464 48.4791 108.211 45.1639 109.724 41.2493C111.236 37.3347 111.432 33.0338 110.281 28.9979C109.13 24.9621 106.696 21.4112 103.346 18.883C99.9964 16.3548 95.914 14.987 91.7174 14.9868ZM91.7174 41.763C90.3626 41.763 89.0383 41.3613 87.9118 40.6086C86.7854 39.856 85.9074 38.7862 85.389 37.5346C84.8706 36.2829 84.7349 34.9057 84.9992 33.577C85.2635 32.2482 85.9159 31.0277 86.8738 30.0698C87.8318 29.1118 89.0523 28.4595 90.381 28.1952C91.7097 27.9309 93.087 28.0665 94.3386 28.585C95.5903 29.1034 96.66 29.9813 97.4127 31.1078C98.1653 32.2342 98.5671 33.5585 98.5671 34.9133C98.5671 36.7299 97.8454 38.4722 96.5608 39.7568C95.2763 41.0413 93.534 41.763 91.7174 41.763Z" fill="#3F3D56"/>
<path d="M58.6582 72.2895C60.6057 72.2895 62.1845 70.7107 62.1845 68.7632C62.1845 66.8157 60.6057 65.2369 58.6582 65.2369C56.7106 65.2369 55.1318 66.8157 55.1318 68.7632C55.1318 70.7107 56.7106 72.2895 58.6582 72.2895Z" fill="#3F3D56"/>
<path d="M58.6582 88.1579C60.6057 88.1579 62.1845 86.5791 62.1845 84.6316C62.1845 82.6841 60.6057 81.1053 58.6582 81.1053C56.7106 81.1053 55.1318 82.6841 55.1318 84.6316C55.1318 86.5791 56.7106 88.1579 58.6582 88.1579Z" fill="#3F3D56"/>
<path d="M58.6582 104.026C60.6057 104.026 62.1845 102.448 62.1845 100.5C62.1845 98.5525 60.6057 96.9737 58.6582 96.9737C56.7106 96.9737 55.1318 98.5525 55.1318 100.5C55.1318 102.448 56.7106 104.026 58.6582 104.026Z" fill="#3F3D56"/>
<path d="M58.6582 119.895C60.6057 119.895 62.1845 118.316 62.1845 116.368C62.1845 114.421 60.6057 112.842 58.6582 112.842C56.7106 112.842 55.1318 114.421 55.1318 116.368C55.1318 118.316 56.7106 119.895 58.6582 119.895Z" fill="#3F3D56"/>
<path d="M111.552 96.9737H71.8813C69.9338 96.9737 68.355 98.5525 68.355 100.5V100.5C68.355 102.448 69.9338 104.026 71.8813 104.026H111.552C113.5 104.026 115.079 102.448 115.079 100.5C115.079 98.5525 113.5 96.9737 111.552 96.9737Z" fill="#3F3D56"/>
<path d="M111.552 112.842H71.8813C69.9338 112.842 68.355 114.421 68.355 116.368C68.355 118.316 69.9338 119.895 71.8813 119.895H111.552C113.5 119.895 115.079 118.316 115.079 116.368C115.079 114.421 113.5 112.842 111.552 112.842Z" fill="#3F3D56"/>
<path d="M111.552 81.1053H71.8813C69.9338 81.1053 68.355 82.6841 68.355 84.6316V84.6316C68.355 86.5791 69.9338 88.1579 71.8813 88.1579H111.552C113.5 88.1579 115.079 86.5791 115.079 84.6316C115.079 82.6841 113.5 81.1053 111.552 81.1053Z" fill="#3F3D56"/>
<path d="M111.552 65.2369H71.8813C69.9338 65.2369 68.355 66.8157 68.355 68.7632V68.7632C68.355 70.7107 69.9338 72.2895 71.8813 72.2895H111.552C113.5 72.2895 115.079 70.7107 115.079 68.7632C115.079 66.8157 113.5 65.2369 111.552 65.2369Z" fill="#3F3D56"/>
</g>
<defs>
<filter id="filter0_di" x="0" y="0" width="491.105" height="343" filterUnits="userSpaceOnUse" color-interpolation-filters="sRGB">
<feFlood flood-opacity="0" result="BackgroundImageFix"/>
<feColorMatrix in="SourceAlpha" type="matrix" values="0 0 0 0 0 0 0 0 0 0 0 0 0 0 0 0 0 0 127 0"/>
<feOffset dy="4"/>
<feGaussianBlur stdDeviation="2"/>
<feColorMatrix type="matrix" values="0 0 0 0 0 0 0 0 0 0 0 0 0 0 0 0 0 0 0.25 0"/>
<feBlend mode="normal" in2="BackgroundImageFix" result="effect1_dropShadow"/>
<feBlend mode="normal" in="SourceGraphic" in2="effect1_dropShadow" result="shape"/>
<feColorMatrix in="SourceAlpha" type="matrix" values="0 0 0 0 0 0 0 0 0 0 0 0 0 0 0 0 0 0 127 0" result="hardAlpha"/>
<feOffset dy="4"/>
<feGaussianBlur stdDeviation="2"/>
<feComposite in2="hardAlpha" operator="arithmetic" k2="-1" k3="1"/>
<feColorMatrix type="matrix" values="0 0 0 0 0 0 0 0 0 0 0 0 0 0 0 0 0 0 0.25 0"/>
<feBlend mode="normal" in2="shape" result="effect2_innerShadow"/>
</filter>
<clipPath id="clip0">
<rect width="483.105" height="335" fill="white" transform="translate(4)"/>
</clipPath>
</defs>
</svg>
