<svg width="57" height="60" viewBox="0 0 57 60" fill="none" xmlns="http://www.w3.org/2000/svg">
<g filter="url(#filter0_d)">
<path d="M36.7705 7.13856C34.6194 4.81608 31.6149 3.53711 28.2986 3.53711C24.9647 3.53711 21.9502 4.80834 19.809 7.11645C17.6446 9.44999 16.59 12.6214 16.8376 16.046C17.3285 22.8023 22.4697 28.2985 28.2986 28.2985C34.1275 28.2985 39.2599 22.8034 39.7585 16.0482C40.0094 12.6546 38.9482 9.48978 36.7705 7.13856ZM47.754 53.0598H8.84327C8.33396 53.0664 7.82958 52.9594 7.36683 52.7466C6.90408 52.5338 6.49459 52.2205 6.16816 51.8295C5.44963 50.9706 5.16001 49.7977 5.37447 48.6116C6.30744 43.4361 9.21911 39.0884 13.7955 36.0364C17.8613 33.327 23.0114 31.8358 28.2986 31.8358C33.5858 31.8358 38.736 33.3281 42.8017 36.0364C47.3781 39.0873 50.2898 43.4349 51.2228 48.6105C51.4372 49.7966 51.1476 50.9695 50.4291 51.8284C50.1028 52.2196 49.6933 52.5331 49.2305 52.7461C48.7678 52.9591 48.2634 53.0663 47.754 53.0598Z" fill="#F7FAFB"/>
</g>
<defs>
<filter id="filter0_d" x="-3.12435" y="0" width="62.8461" height="62.8461" filterUnits="userSpaceOnUse" color-interpolation-filters="sRGB">
<feFlood flood-opacity="0" result="BackgroundImageFix"/>
<feColorMatrix in="SourceAlpha" type="matrix" values="0 0 0 0 0 0 0 0 0 0 0 0 0 0 0 0 0 0 127 0"/>
<feOffset dy="3.12435"/>
<feGaussianBlur stdDeviation="1.56218"/>
<feColorMatrix type="matrix" values="0 0 0 0 0 0 0 0 0 0 0 0 0 0 0 0 0 0 0.25 0"/>
<feBlend mode="normal" in2="BackgroundImageFix" result="effect1_dropShadow"/>
<feBlend mode="normal" in="SourceGraphic" in2="effect1_dropShadow" result="shape"/>
</filter>
</defs>
</svg>