<svg width="31" height="31" viewBox="0 0 31 31" fill="none" xmlns="http://www.w3.org/2000/svg">
<path d="M24.137 30.5649C22.8474 30.5649 21.0359 30.0985 18.3234 28.583C15.0249 26.7333 12.4735 25.0255 9.1928 21.7534C6.0297 18.5923 4.49042 16.5457 2.3361 12.6255C-0.097665 8.19924 0.317212 5.8791 0.780975 4.88749C1.33326 3.70232 2.14848 2.99346 3.20219 2.28989C3.80069 1.89776 4.43405 1.56162 5.09424 1.28573C5.1603 1.25732 5.22174 1.23024 5.27658 1.20579C5.60359 1.05847 6.09906 0.835838 6.72666 1.07367C7.1455 1.2309 7.51942 1.55262 8.10474 2.13068C9.30511 3.31453 10.9455 5.95111 11.5506 7.24595C11.9569 8.11864 12.2258 8.69472 12.2264 9.34081C12.2264 10.0972 11.8459 10.6806 11.3841 11.3102C11.2976 11.4284 11.2117 11.5414 11.1285 11.651C10.6257 12.3117 10.5154 12.5026 10.5881 12.8435C10.7354 13.5286 11.834 15.5679 13.6395 17.3695C15.445 19.171 17.4256 20.2003 18.1133 20.3469C18.4687 20.4229 18.6636 20.308 19.3454 19.7874C19.4432 19.7127 19.5436 19.6354 19.6486 19.5581C20.3529 19.0343 20.9091 18.6637 21.6477 18.6637H21.6517C22.2945 18.6637 22.8448 18.9424 23.7564 19.4022C24.9456 20.0021 27.6614 21.6213 28.8525 22.823C29.4319 23.407 29.755 23.7796 29.9129 24.1978C30.1507 24.8273 29.9267 25.3208 29.7807 25.6512C29.7563 25.706 29.7292 25.7661 29.7008 25.8328C29.4227 26.4918 29.0846 27.1239 28.6907 27.7209C27.9884 28.7713 27.2769 29.5846 26.0891 30.1375C25.4792 30.426 24.8117 30.5722 24.137 30.5649Z" fill="#3B3F4C"/>
</svg>
