<svg width="57" height="58" viewBox="0 0 57 58" fill="none" xmlns="http://www.w3.org/2000/svg">
<g filter="url(#filter0_d)">
<path d="M50.8425 5.88751C50.6809 5.71002 50.4851 5.56713 50.2668 5.46746C50.0485 5.3678 49.8122 5.31343 49.5723 5.30765C49.3324 5.30186 49.0938 5.34477 48.8709 5.4338C48.6481 5.52283 48.4456 5.65611 48.2757 5.8256L46.9083 7.18637C46.7426 7.3522 46.6495 7.57705 46.6495 7.81148C46.6495 8.04592 46.7426 8.27077 46.9083 8.4366L48.1618 9.68793C48.244 9.77048 48.3417 9.83599 48.4492 9.88069C48.5568 9.92539 48.6721 9.9484 48.7886 9.9484C48.9051 9.9484 49.0204 9.92539 49.128 9.88069C49.2355 9.83599 49.3332 9.77048 49.4154 9.68793L50.7485 8.36143C51.4228 7.68823 51.4858 6.59166 50.8425 5.88751ZM44.1436 9.94991L24.1886 29.8695C24.0676 29.99 23.9797 30.1396 23.9333 30.304L23.0103 33.0531C22.9881 33.1277 22.9866 33.2069 23.0057 33.2823C23.0249 33.3577 23.064 33.4266 23.119 33.4816C23.174 33.5366 23.2429 33.5758 23.3183 33.5949C23.3937 33.6141 23.4729 33.6125 23.5475 33.5904L26.2944 32.6674C26.4588 32.6209 26.6084 32.533 26.7289 32.412L46.6485 12.4548C46.8328 12.2685 46.9362 12.0171 46.9362 11.7551C46.9362 11.493 46.8328 11.2416 46.6485 11.0553L45.5486 9.94991C45.3621 9.76394 45.1095 9.65951 44.8461 9.65951C44.5827 9.65951 44.3301 9.76394 44.1436 9.94991Z" fill="#F7FAFB"/>
<path d="M42.7066 21.4077L29.2327 34.9082C28.7119 35.4302 28.0719 35.8176 27.3678 36.0368L24.5048 36.9952C23.8253 37.1871 23.107 37.1943 22.4238 37.0162C21.7406 36.838 21.1173 36.4809 20.618 35.9817C20.1188 35.4824 19.7617 34.8591 19.5835 34.1759C19.4054 33.4927 19.4126 32.7743 19.6045 32.0949L20.5629 29.2318C20.7815 28.528 21.1681 27.888 21.6893 27.367L35.1898 13.8909C35.3135 13.7672 35.3978 13.6097 35.432 13.4382C35.4663 13.2666 35.4488 13.0888 35.382 12.9272C35.3151 12.7656 35.2019 12.6274 35.0565 12.5301C34.9111 12.4329 34.7401 12.3809 34.5652 12.3809H11.4962C9.85447 12.3809 8.27993 13.0331 7.11902 14.194C5.9581 15.3549 5.30591 16.9294 5.30591 18.5712V45.1012C5.30591 46.743 5.9581 48.3175 7.11902 49.4785C8.27993 50.6394 9.85447 51.2916 11.4962 51.2916H38.0263C39.6681 51.2916 41.2426 50.6394 42.4035 49.4785C43.5644 48.3175 44.2166 46.743 44.2166 45.1012V22.0323C44.2165 21.8573 44.1646 21.6864 44.0673 21.541C43.9701 21.3956 43.8319 21.2823 43.6703 21.2155C43.5086 21.1486 43.3308 21.1312 43.1593 21.1654C42.9878 21.1996 42.8302 21.284 42.7066 21.4077Z" fill="#F7FAFB"/>
</g>
<defs>
<filter id="filter0_d" x="-3.12435" y="0" width="62.8461" height="62.8461" filterUnits="userSpaceOnUse" color-interpolation-filters="sRGB">
<feFlood flood-opacity="0" result="BackgroundImageFix"/>
<feColorMatrix in="SourceAlpha" type="matrix" values="0 0 0 0 0 0 0 0 0 0 0 0 0 0 0 0 0 0 127 0"/>
<feOffset dy="3.12435"/>
<feGaussianBlur stdDeviation="1.56218"/>
<feColorMatrix type="matrix" values="0 0 0 0 0 0 0 0 0 0 0 0 0 0 0 0 0 0 0.25 0"/>
<feBlend mode="normal" in2="BackgroundImageFix" result="effect1_dropShadow"/>
<feBlend mode="normal" in="SourceGraphic" in2="effect1_dropShadow" result="shape"/>
</filter>
</defs>
</svg>
