<svg width="587" height="334" viewBox="0 0 587 334" fill="none" xmlns="http://www.w3.org/2000/svg">
<g opacity="0.75" clip-path="url(#clip0)" filter="url(#filter0_di)">
<path d="M537.162 104.497C471.478 13.0942 332.722 -23.9828 196.261 15.95C124.118 37.0613 54.5585 79.3608 20.0866 161.266C-41.5356 307.681 87.848 354.443 172.451 369.346C213.36 376.553 251.89 388.658 287.099 405.139C350.442 434.791 462.565 461.065 547.113 337.553C608.393 248.031 580.915 165.38 537.162 104.497Z" fill="#F2F2F2"/>
<path d="M156.345 122.581C156.162 121.128 155.79 119.705 155.24 118.349C155.17 118.092 155.047 117.853 154.879 117.646C154.712 117.44 154.503 117.27 154.266 117.149C153.95 117.067 153.618 117.063 153.3 117.138L148.338 117.897C147.923 117.916 147.525 118.071 147.206 118.337C146.56 119.017 147.196 120.111 147.176 121.049C147.154 122.103 146.217 122.959 145.202 123.242C144.165 123.451 143.095 123.438 142.064 123.203L135.126 122.125C137.169 121.473 138.988 120.259 140.374 118.622C141.287 117.541 141.773 115.522 140.454 115.009C140.062 114.902 139.653 114.869 139.249 114.913C136.105 114.937 133.632 112.313 130.689 111.207C128.806 110.546 126.761 110.496 124.848 111.067C122.935 111.637 121.252 112.798 120.038 114.383L123.734 114.561C124.082 114.542 124.426 114.634 124.718 114.823C125.528 115.489 124.521 116.767 124.635 117.809C124.784 119.163 126.581 119.452 127.936 119.589C129.291 119.726 131.01 120.827 130.359 122.023C123.548 124.368 116.617 117.437 109.465 118.29C107.654 118.506 105.945 119.217 104.178 119.664C93.3809 122.396 82.219 115.108 71.1895 116.651C68.7375 117.069 66.3276 117.705 63.9884 118.55C62.4873 119.043 60.9215 119.576 59.8308 120.719C58.7401 121.862 58.325 123.817 59.3583 125.012C56.5103 125.247 53.6433 124.974 50.8905 124.207C51.6349 124.621 52.2542 125.228 52.6833 125.963C53.1125 126.699 53.3357 127.537 53.3295 128.388C48.8827 129.113 44.5536 130.433 40.4588 132.313C41.223 133.584 42.1157 134.773 43.1227 135.861L37.4932 139.478C39.3951 139.957 40.3784 142.551 39.2724 144.17C41.2445 143.293 42.4667 141.024 44.5755 140.563C45.957 140.262 47.3628 140.827 48.6734 141.358C49.984 141.889 51.4245 142.404 52.7813 142.005C54.138 141.607 55.1388 139.848 54.2766 138.727C60.0758 137.035 66.0691 136.098 72.108 135.941C72.5739 135.882 73.0464 135.972 73.4585 136.197C74.2446 136.743 74.0377 137.921 73.9954 138.876C73.9531 139.832 74.698 141.088 75.5523 140.658C74.5472 141.529 75.4064 143.17 76.3707 144.086C77.335 145.003 78.4972 146.267 77.9068 147.46C77.7528 147.771 77.4914 148.02 77.3432 148.334C76.9056 149.26 77.6004 150.341 78.4199 150.956C79.2394 151.572 80.2432 152.002 80.8124 152.854C81.3817 153.706 81.1232 155.198 80.1052 155.317L77.2119 151.643C76.2234 152.669 75.5457 153.953 75.2575 155.347C78.3256 157.855 78.7871 162.96 76.2185 165.978C74.9058 167.52 73.0392 168.457 71.41 169.66C69.7808 170.863 68.2733 172.576 68.2774 174.601C68.2845 178.1 67.9986 181.35 69.3097 184.594C71.7272 190.575 74.5184 196.398 77.6666 202.029C78.4934 203.508 79.5618 205.128 81.2367 205.383C79.12 200.23 77.2146 194.997 75.5205 189.684C76.6239 189.688 77.8991 189.776 78.5459 190.67C79.0816 191.41 78.9665 192.416 79.133 193.315C79.3446 194.185 79.6976 195.015 80.1779 195.771L90.2854 213.776C91.1233 215.269 92.0844 216.871 93.6858 217.475C94.7097 217.862 95.8942 217.789 96.8366 218.345C97.5753 218.781 98.0728 219.555 98.8258 219.966C100.955 221.128 103.916 218.9 105.906 220.287C106.475 220.683 106.837 221.313 107.361 221.767C109.199 223.359 112.213 222.294 114.335 223.481C115.702 224.246 116.411 225.777 117.14 227.163C118.967 230.637 121.922 234.04 125.837 234.317C127.067 234.403 128.323 234.17 129.525 234.444C130.727 234.717 131.91 235.766 131.718 236.984C131.387 239.071 132.418 241.357 132.141 243.452C131.637 247.269 126.223 248.946 125.758 252.768C125.656 253.605 125.815 254.468 125.616 255.287C125.372 256.291 124.618 257.109 124.35 258.106C123.843 259.997 125.197 261.879 126.686 263.151C128.174 264.423 129.949 265.52 130.762 267.301C131.622 269.183 131.2 271.377 131.48 273.428C132.09 277.904 135.956 281.222 139.935 283.362C141.147 284.014 142.449 284.645 143.234 285.776C144.258 287.252 144.156 289.198 144.498 290.961C145.335 295.281 148.971 298.839 149.075 303.238C149.148 306.364 147.41 309.201 146.372 312.15C145.399 314.977 145.047 317.98 145.34 320.954C145.632 323.929 146.564 326.806 148.069 329.388C148.846 330.699 149.775 331.936 150.324 333.357C151.304 335.894 150.986 338.778 151.89 341.343C153.085 344.734 156.369 347.535 156.055 351.117C157.545 354.213 160.837 355.734 164.148 356.655L170.08 358.307C171.216 358.623 172.403 358.942 173.56 358.713C174.717 358.484 175.82 357.523 175.791 356.344C172.881 355.688 169.879 354.991 167.481 353.218C165.082 351.445 163.439 348.288 164.349 345.448C164.771 344.131 165.669 342.61 164.816 341.522C164.327 340.899 163.433 340.736 162.882 340.168C162.023 339.281 162.318 337.791 162.936 336.722C163.554 335.653 164.447 334.698 164.697 333.488C164.822 332.811 164.738 332.112 164.456 331.485C164.173 330.857 163.705 330.331 163.115 329.977C164.215 329.562 165.215 328.92 166.051 328.093C166.823 327.211 167.18 325.852 166.573 324.849C168.377 325.078 170.506 325.19 171.69 323.81C172.636 322.708 172.571 321.061 172.197 319.657C171.824 318.254 171.192 316.891 171.173 315.44C175.334 315.637 179.504 315.495 183.643 315.017C183.044 313.001 181.684 311.298 179.851 310.268C181.726 309.951 183.433 307.707 184.025 305.901C184.618 304.095 184.467 302.127 184.101 300.262C183.96 299.782 183.941 299.274 184.044 298.784C184.256 298.112 184.916 297.701 185.528 297.35L194.831 292.007C195.386 291.729 195.889 291.358 196.319 290.909C197.293 289.764 197.149 288.036 196.65 286.617C196.151 285.199 195.351 283.865 195.159 282.374C194.584 277.914 199.358 274.714 200.97 270.516C201.602 268.868 201.731 267.077 201.853 265.317C201.985 263.426 201.994 261.23 200.543 260.011C199.151 258.843 196.976 259.104 195.52 258.017C194.185 257.021 193.724 255.086 192.266 254.282C190.941 253.551 189.28 254.016 187.807 253.672C185.213 253.067 183.581 250.078 180.932 249.801C179.437 249.645 177.745 250.375 176.52 249.505C175.441 248.738 175.398 247.196 175.192 245.888C174.832 243.855 173.858 241.981 172.4 240.519C170.942 239.056 169.072 238.076 167.04 237.709C165.499 237.462 163.821 237.556 162.51 236.709C161.183 235.851 160.574 234.246 159.531 233.058C157.85 231.144 155.203 230.464 152.724 229.881L142.638 227.51C140.848 227.089 138.54 226.866 137.579 228.435C137.294 229.032 137.093 229.665 136.98 230.317C136.62 231.496 135.896 232.53 134.911 233.272C133.926 234.013 132.731 234.423 131.499 234.443C130.654 233.001 129.284 231.941 127.676 231.485C126.654 231.2 125.559 231.168 124.584 230.749C124.052 230.49 123.58 230.125 123.194 229.676C122.809 229.228 122.519 228.706 122.343 228.142C122.166 227.577 122.107 226.983 122.168 226.395C122.229 225.807 122.41 225.238 122.698 224.722C123.28 223.687 123.505 222.489 123.338 221.313C123.17 220.138 122.621 219.05 121.774 218.217C120.059 216.677 117.578 216.305 115.278 216.459C114.676 215.145 115.683 213.662 116.768 212.707C117.854 211.752 119.172 210.813 119.408 209.387C119.78 207.143 116.917 205.439 114.743 206.108C112.57 206.777 111.182 208.888 110.265 210.969C109.739 212.163 109.292 213.421 108.462 214.427C107.632 215.434 106.295 216.155 105.031 215.832C103.241 215.375 102.55 213.248 102.154 211.444C101.623 209.023 101.088 206.569 101.199 204.093C101.311 201.617 102.145 199.074 103.971 197.398C106.946 194.667 111.51 194.935 115.526 195.37C114.577 194.302 114.811 192.5 115.826 191.494C116.362 191.018 117.006 190.68 117.702 190.509C118.398 190.338 119.125 190.339 119.821 190.513C121.031 190.765 122.121 191.417 122.915 192.363C124.056 193.754 124.381 195.633 125.243 197.212C126.106 198.791 128.045 200.137 129.632 199.29C131.003 198.559 131.221 196.657 130.88 195.141C130.538 193.625 129.814 192.151 129.937 190.602C130.173 187.646 133.237 185.867 135.941 184.649C138.645 183.432 141.741 181.795 142.169 178.861C142.184 178.286 142.293 177.718 142.49 177.178C142.79 176.702 143.207 176.31 143.701 176.04C151.592 170.825 159.615 165.546 168.635 162.696C169.104 162.548 169.159 162.713 169.637 162.596C170.306 162.21 169.863 161.14 169.221 160.708C168.58 160.277 167.722 159.947 167.559 159.191C167.439 158.636 167.767 158.09 167.852 157.528C168.061 156.148 166.409 154.873 165.126 155.425C164.402 154.465 165.835 153.35 166.995 153.031C170.475 152.073 174.049 151.49 177.653 151.29C178.069 151.224 178.496 151.296 178.866 151.496C179.472 151.916 179.394 152.878 178.965 153.476C178.536 154.075 177.869 154.451 177.334 154.957C176.75 155.526 176.333 156.245 176.13 157.035C175.926 157.825 175.943 158.655 176.179 159.436C178.061 160.393 180.107 161.378 182.191 161.041C184.275 160.704 186.125 158.362 185.146 156.492C184.233 154.75 181.493 154.357 181.022 152.448C180.47 150.214 183.634 148.226 182.921 146.037C182.609 145.078 181.653 144.514 180.92 143.822C180.054 142.973 179.465 141.882 179.23 140.692C178.996 139.503 179.126 138.27 179.605 137.156C178.41 137.366 177.183 137.287 176.026 136.925C174.868 136.562 173.815 135.928 172.953 135.075C171.362 133.469 170.093 130.936 167.834 131.008C165.761 131.074 163.975 133.493 162.037 132.755C161.56 132.573 161.057 132.204 160.595 132.42C160.444 132.519 160.316 132.65 160.223 132.805C160.13 132.959 160.073 133.133 160.057 133.313C159.565 135.668 160.412 138.352 159.128 140.387C157.732 142.602 154.501 142.909 152.807 144.906C151.888 145.99 151.532 147.451 150.687 148.594C149.842 149.737 148.048 150.463 147.034 149.467C147.533 148.443 147.669 147.279 147.421 146.168C147.172 145.056 146.554 144.061 145.667 143.346C144.725 142.732 143.711 142.238 142.646 141.877C141.457 141.373 140.325 140.743 139.272 139.996C138.744 139.678 138.315 139.219 138.033 138.67C137.81 137.984 137.84 137.24 138.118 136.574C138.632 135.1 139.539 133.794 140.741 132.798C141.943 131.802 143.394 131.153 144.938 130.921C146.288 130.737 147.86 130.802 148.753 129.773C149.226 129.229 149.474 128.406 150.16 128.185C150.599 128.097 151.055 128.153 151.459 128.345L156.499 130.119C157.061 130.373 157.68 130.475 158.294 130.416C158.598 130.375 158.876 130.22 159.071 129.983C159.266 129.746 159.365 129.443 159.346 129.137C159.185 128.3 157.898 127.898 158.015 127.054C158.08 126.781 158.227 126.533 158.436 126.345C160.255 124.409 162.479 122.9 164.949 121.924C167.42 120.949 170.075 120.531 172.726 120.702C173.362 121.747 172.356 122.984 171.519 123.876C170.682 124.767 170.009 126.361 171.021 127.047C171.436 127.259 171.898 127.363 172.363 127.349C173.604 127.517 174.81 127.883 175.934 128.433C177.676 129.19 179.384 130.02 181.058 130.92C180.91 129.816 180.769 128.653 181.188 127.621C181.606 126.588 182.796 125.778 183.834 126.181C184.836 126.568 185.349 127.894 186.416 128.015C187.839 128.177 188.4 126.075 187.806 124.772C187.211 123.469 186.035 122.378 185.937 120.95C185.87 119.986 186.237 118.79 185.467 118.207C185.193 118.032 184.882 117.923 184.559 117.888L165.335 114.351C164.193 114.141 162.544 114.302 162.493 115.461C162.465 116.109 163.043 116.749 162.787 117.344C162.514 117.979 161.616 117.921 160.962 118.146C159.947 118.494 159.438 119.699 159.536 120.768C159.714 121.83 160.125 122.839 160.74 123.723C159.489 123.2 157.596 123.104 156.345 122.581Z" fill="#3F3D56"/>
<path d="M141.007 106.262C139.795 105.861 138.488 105.842 137.265 106.208C136.042 106.575 134.961 107.308 134.169 108.31C133.852 108.727 133.587 109.301 133.851 109.752C134.231 110.399 135.199 110.144 135.913 109.912C136.962 109.538 138.104 109.51 139.17 109.835C139.84 110.065 140.439 110.472 141.112 110.693C141.44 110.83 141.799 110.875 142.15 110.824C142.502 110.773 142.833 110.626 143.107 110.401C143.569 109.93 143.598 109.198 143.599 108.538C143.631 108.317 143.613 108.092 143.547 107.879C143.481 107.666 143.368 107.47 143.217 107.306C142.948 107.15 142.645 107.061 142.334 107.045C141.638 106.916 141.008 106.548 140.554 106.005" fill="#3F3D56"/>
<path d="M147.939 104.332C147.668 104.317 147.397 104.373 147.154 104.493C146.91 104.613 146.701 104.793 146.547 105.017C146.394 105.241 146.3 105.501 146.276 105.772C146.252 106.042 146.297 106.315 146.409 106.562C147.242 106.79 148.112 106.846 148.968 106.729C149.395 106.663 149.792 106.472 150.11 106.18C150.429 105.888 150.654 105.509 150.757 105.089C149.749 105.273 148.71 105.074 147.841 104.532" fill="#3F3D56"/>
<path d="M171.196 101.109C168.929 101.591 166.726 102.339 164.634 103.338C165.62 103.717 166.458 104.403 167.025 105.295C167.592 106.186 167.858 107.236 167.783 108.29C167.694 108.695 167.705 109.115 167.813 109.515C168.054 110.099 168.752 110.318 169.366 110.468C170.469 110.804 171.621 110.951 172.773 110.903C173.35 110.873 173.909 110.7 174.402 110.399C174.894 110.098 175.304 109.679 175.594 109.18C175.761 108.706 175.956 108.243 176.18 107.793C177.652 105.552 182.024 108.262 183.604 106.096C184.161 105.333 184.11 104.184 184.835 103.579C185.211 103.316 185.646 103.15 186.101 103.096C189.279 102.465 192.489 102.008 195.716 101.727C197.246 101.594 199.239 101.045 199.252 99.5095C193.492 98.3782 187.519 99.1817 182.262 101.795C180.368 102.744 177.864 104.739 176.039 103.481C175.356 103.011 175.39 101.743 174.45 101.213C173.489 100.672 172.217 100.892 171.196 101.109Z" fill="#3F3D56"/>
<path d="M190.033 104.632L192.737 105.151C192.239 105.129 191.743 105.213 191.28 105.399C190.818 105.584 190.4 105.865 190.055 106.225C189.71 106.584 189.445 107.013 189.279 107.483C189.113 107.952 189.049 108.452 189.091 108.948C191.623 109.794 194.384 108.971 197.051 109.084C199.718 109.196 202.822 111.101 202.366 113.732C202.229 114.527 201.769 115.322 202.008 116.093C202.176 116.634 202.652 117.017 202.921 117.515C203.482 118.552 203.034 119.864 202.326 120.807C201.618 121.75 200.667 122.502 200.045 123.504C198.5 125.996 199.378 129.218 200.298 132.002C200.565 133.054 201.056 134.035 201.739 134.879C203.103 136.329 205.325 136.455 207.316 136.484C208.765 136.505 210.424 136.433 211.341 135.311C212.537 133.846 211.7 131.559 212.488 129.839C213.203 128.277 215.025 127.607 216.676 127.132C219.701 126.261 222.783 125.521 225.642 124.206C229.193 122.572 232.511 120.027 236.414 119.817C237.508 119.758 238.63 119.887 239.685 119.587C240.74 119.287 241.741 118.376 241.662 117.282C241.593 116.348 240.803 115.662 240.185 114.957C239.568 114.253 239.082 113.17 239.65 112.425L249.879 110.514C249.154 108.538 248.589 105.936 250.255 104.649C250.857 104.185 251.661 104 252.173 103.439C253.046 102.483 252.607 100.835 251.6 100.022C250.593 99.2089 249.231 99.0201 247.941 98.913C243.456 98.5405 238.945 98.7866 234.451 99.0329C225.667 99.5144 216.882 99.996 208.098 100.477C206.329 100.574 204.287 100.426 202.666 101.03C201.292 101.54 200.316 102.478 198.746 102.807C195.847 103.415 192.656 103.004 190.033 104.632Z" fill="#3F3D56"/>
<path d="M238.474 126.005C238.198 125.961 237.916 126.025 237.687 126.183C237.535 126.35 237.444 126.564 237.43 126.79C237.256 127.785 237.464 128.81 238.013 129.659C238.292 130.075 238.678 130.409 239.13 130.626C239.582 130.843 240.084 130.934 240.584 130.892C241.802 130.736 242.699 129.698 243.818 129.191C245.543 128.41 252.87 127.194 247.802 124.455C246.055 123.512 244.927 124.345 243.55 124.966C241.984 125.768 240.229 126.127 238.474 126.005Z" fill="#3F3D56"/>
<path d="M282.865 103.086C282.273 103.328 281.778 103.759 281.457 104.311C281.309 104.592 281.275 104.919 281.361 105.224C281.447 105.53 281.648 105.79 281.921 105.952C282.142 106.032 282.376 106.069 282.611 106.061L285.017 106.133C286.04 106.164 287.317 106.381 287.591 107.366C287.795 108.098 287.339 109.038 287.89 109.561C288.126 109.744 288.41 109.855 288.708 109.88C289.501 110.083 290.328 110.11 291.133 109.958C292.883 109.489 291.963 108.42 292.515 107.468C293.359 106.013 293.213 106.894 294.699 106.06C295.797 105.443 297.216 104.326 296.299 102.755C294.706 100.024 285.216 101.913 282.865 103.086Z" fill="#3F3D56"/>
<path d="M330.358 101.713L328.961 101.899C325.81 102.32 322.641 102.744 319.606 103.69C320.92 104.21 322.298 104.548 323.703 104.695C324.476 104.733 325.245 104.843 325.998 105.022C327.338 105.421 328.689 106.451 329.984 105.923C330.787 105.596 331.049 104.76 331.714 104.317C332.173 104.011 333.915 103.516 334.11 103.207C335.684 100.711 331.568 101.551 330.358 101.713Z" fill="#3F3D56"/>
<path d="M336.494 108.063C334.628 109.107 332.896 110.375 331.338 111.839C330.681 112.457 330.011 113.224 330.07 114.123C330.149 115.318 331.422 116.011 332.525 116.478L336.992 118.369C337.533 117.605 337.038 116.551 336.477 115.801C335.917 115.05 335.252 114.182 335.499 113.279C335.782 112.248 337.038 111.897 338.092 111.719C339.809 111.43 344.441 111.453 343.884 108.686C343.229 105.425 338.217 107.1 336.494 108.063Z" fill="#3F3D56"/>
<path d="M335.597 292.574C335.171 293.805 335.131 295.256 335.867 296.33C336.692 297.536 338.344 297.986 339.773 297.68C341.196 297.302 342.465 296.486 343.4 295.348C344.255 294.395 344.959 293.316 345.486 292.149C346.222 290.331 346.741 288.432 347.032 286.492L348.419 279.21C348.729 277.583 348.717 272.594 345.726 274.219C344.909 274.663 343.017 278.169 342.16 279.164C340.617 280.956 340.413 282.694 339.6 284.865C338.583 287.584 336.537 289.851 335.597 292.574Z" fill="#3F3D56"/>
<path d="M493.573 329.836C492.594 329.454 491.644 329.002 490.731 328.483C489.815 331.002 489.328 333.656 489.29 336.336L495.987 332.546C496.995 331.976 498.137 331.184 498.115 330.027C498.124 329.884 498.094 329.741 498.029 329.613C497.964 329.486 497.866 329.378 497.745 329.302C497.596 329.242 497.434 329.223 497.275 329.247C496.282 329.33 495.377 329.818 494.44 330.158C493.503 330.498 492.408 330.677 491.548 330.173" fill="#3F3D56"/>
<path d="M528.902 332.086C528.167 332.286 527.449 332.544 526.754 332.857C525.218 333.639 524.172 335.124 522.789 336.154C521.466 337.14 519.872 337.681 518.308 338.207C517.848 338.614 518.06 339.433 518.559 339.79C519.096 340.096 519.712 340.234 520.328 340.188C521.953 340.223 523.665 340.239 525.088 339.454C525.89 338.934 526.64 338.339 527.329 337.676C528.993 336.287 530.991 335.371 532.969 334.486C533.689 334.214 534.355 333.816 534.935 333.311C536.178 332.086 536.265 330.197 534.473 329.78C533.025 329.443 530.281 331.64 528.902 332.086Z" fill="#3F3D56"/>
<path d="M544.512 321.89C544.593 321.047 544.481 320.197 544.185 319.404C543.889 318.611 543.416 317.896 542.803 317.312C542.785 318.998 542.733 320.794 541.785 322.188C541.11 323.182 540.05 323.853 539.31 324.799C538.57 325.745 538.241 327.245 539.11 328.075C539.665 328.497 540.341 328.73 541.038 328.739C542.766 328.943 544.767 329.056 545.979 327.807C546.64 327.126 546.962 326.117 547.769 325.615C548.07 325.489 548.338 325.297 548.555 325.053C548.888 324.524 548.358 323.826 547.762 323.635C547.167 323.444 546.51 323.534 545.911 323.352C545.312 323.171 544.763 322.498 545.07 321.953" fill="#3F3D56"/>
<path d="M516.768 260.077C515.861 260.297 514.922 260.353 513.996 260.24C512.457 259.957 511.26 258.798 510.018 257.847C507.065 255.598 503.475 254.344 499.765 254.264C496.389 254.201 492.982 255.115 489.667 254.477C489.884 255.682 490.914 256.585 492.014 257.123C493.114 257.66 494.328 257.93 495.433 258.456C497.203 259.307 498.607 260.767 499.388 262.57C499.744 263.4 499.968 264.305 500.507 265.03C501.609 266.513 503.698 266.839 505.541 266.717C507.945 266.559 510.455 265.868 512.691 266.764C514.402 267.449 515.626 268.946 517.055 270.11C518.483 271.274 520.495 272.138 522.135 271.298C520.431 270.747 518.949 269.665 517.903 268.211C516.858 266.757 516.304 265.008 516.324 263.217C517.933 263.365 522.566 263.308 522.316 260.574C522.105 258.258 518.149 259.827 516.768 260.077Z" fill="#3F3D56"/>
<path d="M495.723 278.924C496.009 277.357 497.571 275.974 497.084 274.458C496.748 273.409 495.532 272.891 494.431 272.866C493.33 272.84 492.249 273.168 491.148 273.198C490.431 273.16 489.713 273.171 488.998 273.229C486.813 273.588 485.466 275.878 483.407 276.693C482.155 277.188 480.748 277.093 479.446 277.436C476.49 278.213 474.62 281.006 472.553 283.258C469.214 286.881 464.865 289.417 460.068 290.539C458.387 290.929 456.58 291.178 455.244 292.269C453.475 293.715 453.04 296.193 452.646 298.443C451.559 304.658 449.897 310.759 447.682 316.667L454.701 317.563C456.035 317.734 457.418 317.9 458.704 317.505C459.638 317.153 460.523 316.681 461.337 316.103C464.463 314.162 467.962 312.899 471.607 312.396C473.445 312.143 475.372 312.097 477.097 312.78C478.822 313.463 480.302 315.013 480.446 316.863C481.192 316.63 481.987 316.605 482.746 316.79C483.505 316.975 484.2 317.362 484.756 317.911C485.855 319.031 486.575 320.467 486.814 322.018C486.999 322.979 487.184 324.129 488.075 324.532C488.802 324.861 489.635 324.507 490.431 324.443C493.129 324.227 495.369 327.374 498.021 326.832C500.866 326.251 501.564 321.99 504.339 321.137C505.933 320.647 508.169 321.243 508.932 319.76C509.605 318.453 508.263 316.945 508.401 315.482C508.572 313.68 510.697 312.916 512.335 312.147C517.984 309.496 520.664 301.894 517.927 296.287C516.306 292.965 513.114 290.35 512.525 286.7C512.072 283.892 513.179 280.618 511.388 278.408C510.478 277.283 508.936 276.663 508.394 275.321C508.053 274.477 508.19 273.518 508.006 272.626C507.823 271.734 507.044 270.801 506.163 271.032C503.606 271.704 502.79 279.603 501.421 281.522C499.34 284.44 495.068 282.518 495.723 278.924Z" fill="#3F3D56"/>
<path d="M448.459 263.061C447.585 262.816 446.631 262.575 445.794 262.925C444.956 263.275 444.467 264.505 445.139 265.115C450.397 264.91 455.686 264.706 460.899 265.42C466.904 266.243 472.848 268.281 478.88 267.681C475.434 266.665 471.932 265.852 468.391 265.247L462.485 264.119C460.901 263.787 459.301 263.54 457.69 263.378C454.321 263.1 451.771 263.99 448.459 263.061Z" fill="#3F3D56"/>
<path d="M453.723 244.751C453.286 244.715 452.746 244.684 452.52 245.059C452.304 245.417 452.551 245.891 452.435 246.293C452.277 246.842 451.557 246.983 450.991 246.908C450.424 246.833 449.811 246.654 449.309 246.927C449.054 247.101 448.863 247.353 448.764 247.645C448.664 247.937 448.662 248.253 448.758 248.547C448.963 249.129 449.295 249.658 449.73 250.096C450.472 251.032 451.319 251.88 452.252 252.626C454.059 253.96 456.507 254.602 457.645 256.538C457.805 256.914 458.052 257.246 458.365 257.508C458.911 257.854 459.624 257.591 460.212 257.322L462.274 256.38C462.645 256.246 462.977 256.02 463.238 255.724C463.709 255.085 463.42 254.176 463.024 253.488C462.629 252.799 462.123 252.087 462.208 251.297C462.359 249.89 464.169 249.351 464.913 248.147C465.663 246.933 465.175 245.369 465.261 243.944C465.362 242.279 466.409 240.112 464.725 238.867C463.294 237.809 461.926 238.787 460.898 239.955C458.731 242.417 457.706 245.084 453.723 244.751Z" fill="#3F3D56"/>
<path d="M466.238 219.862C466.942 221.21 468.409 222.014 469.177 223.327C470.009 224.749 469.914 226.588 470.817 227.967C471.743 229.381 473.607 230.133 474.126 231.742C474.693 233.499 473.407 235.634 474.432 237.169C474.623 237.42 474.865 237.629 475.141 237.781C475.417 237.934 475.721 238.028 476.036 238.057C476.35 238.086 476.667 238.049 476.966 237.949C477.265 237.849 477.54 237.688 477.774 237.476C478.206 237.006 478.438 236.384 478.419 235.746C478.4 235.107 478.132 234.5 477.673 234.056C477.066 233.502 476.194 233.263 475.687 232.617C475.423 232.243 475.247 231.815 475.172 231.364C474.896 230.063 474.94 228.715 475.301 227.435C475.437 227.11 475.472 226.752 475.4 226.407C475.172 225.743 474.274 225.696 473.643 225.389C472.211 224.69 472.246 222.669 472.496 221.095C472.33 222.143 468.598 220.361 468.207 219.767C467.431 218.589 467.853 216.314 467.7 215.012C466.024 215.819 465.377 218.214 466.238 219.862Z" fill="#3F3D56"/>
<path d="M428.643 240.6C427.954 239.829 426.916 239.022 425.993 239.487C425.288 239.842 425.095 240.816 425.371 241.555C425.707 242.273 426.225 242.891 426.873 243.347C428.798 244.934 430.87 246.366 432.549 248.211C435.553 251.513 437.145 255.968 440.412 259.01C441.069 259.715 441.939 260.186 442.888 260.35C443.84 260.438 444.909 259.829 445.019 258.879C445.109 258.097 444.564 257.397 444.031 256.817C442.761 255.436 441.372 254.165 440.173 252.723C439.62 252.169 439.272 251.442 439.187 250.664C439.181 249.887 439.89 249.074 440.642 249.266C439.727 249.032 439.048 247.508 437.705 247.221C436.582 246.981 436.311 247.676 434.975 247.103C432.426 246.011 430.427 242.597 428.643 240.6Z" fill="#3F3D56"/>
<path d="M488.516 165.518C487.786 165.301 487.067 165.044 486.364 164.749C484.472 164.182 481.968 165.572 482.221 167.531C482.388 168.833 483.6 169.711 484.269 170.84C485.261 172.514 484.996 174.638 484.475 176.514C484.347 177.094 484.104 177.643 483.759 178.128C483.278 178.64 482.702 179.054 482.064 179.347C479.509 180.78 477.255 182.694 475.429 184.984C475.23 185.196 475.092 185.457 475.028 185.74C474.938 186.401 475.603 186.883 475.978 187.435C476.814 188.66 476.21 190.31 476.293 191.79C476.28 192 476.321 192.209 476.412 192.398C476.502 192.587 476.64 192.75 476.811 192.871C477.315 193.126 477.911 192.692 478.184 192.198C479.089 190.558 478.407 187.925 480.106 187.134C480.427 186.984 480.816 186.921 481.031 186.639C481.371 186.191 481.043 185.529 481.215 184.993C481.474 184.19 482.573 184.154 483.416 184.19C484.869 184.25 486.321 184.057 487.707 183.618C488.251 183.489 488.745 183.203 489.128 182.796C489.635 182.162 489.59 181.261 489.489 180.456C488.981 176.439 487.709 172.558 485.741 169.02C487.233 169.21 488.856 169.376 490.143 168.598C490.864 168.163 491.729 166.861 491.371 165.975C490.806 164.573 489.784 165.753 488.516 165.518Z" fill="#3F3D56"/>
<path d="M297.258 187.606C297.436 188.564 297.612 189.572 297.298 190.494C296.984 191.417 295.997 192.187 295.065 191.904C294.341 191.685 293.923 190.958 293.41 190.403C290.553 187.319 284.107 189.105 282.343 185.289C281.622 183.732 282.112 181.866 281.62 180.222C281.311 179.272 280.694 178.452 279.867 177.89C279.041 177.329 278.051 177.058 277.053 177.12C276.144 177.251 275.258 177.515 274.425 177.904C268.845 180.139 262.988 181.604 257.013 182.259C255.877 182.329 254.754 182.533 253.667 182.868C251.214 183.758 249.537 186.032 248.344 188.353C247.152 190.674 246.271 193.187 244.672 195.249C242.991 197.416 240.635 198.933 238.438 200.575C237.592 201.12 236.887 201.859 236.382 202.73C235.905 203.708 235.932 204.845 235.969 205.932L236.418 219.136C236.476 220.834 236.549 222.593 237.309 224.113C238.258 226.01 240.133 227.253 241.434 228.93C242.761 230.653 243.453 232.781 243.391 234.956C243.363 235.83 243.277 236.863 243.957 237.412C244.371 237.681 244.856 237.82 245.35 237.813L263.21 239.275C266.352 239.532 269.833 239.954 271.885 242.348C272.853 243.478 273.63 245.102 275.113 245.224C275.749 245.275 276.368 245.014 277.004 244.964C278.609 244.837 280.019 246.055 280.909 247.397C282.256 249.442 282.867 251.884 282.642 254.322C282.497 255.853 282.022 257.341 281.92 258.875C281.53 264.712 286.479 269.784 286.575 275.633C286.631 279.074 284.998 282.289 283.405 285.34C285.976 289.233 283.871 294.418 284.894 298.97C285.865 303.288 289.466 306.669 290.363 311.003C290.773 312.987 290.797 315.429 292.547 316.451C293.315 316.825 294.166 316.995 295.018 316.946C300.161 317.007 305.246 315.849 309.855 313.568C312.019 312.494 314.261 310.891 314.639 308.506C314.944 306.582 313.968 304.43 314.961 302.755C316.131 300.78 319.129 300.936 320.85 299.418C323.644 296.954 321.466 292.256 322.597 288.708C323.615 285.519 327.116 283.825 328.852 280.962C329.535 279.731 330.025 278.403 330.305 277.023C331.101 273.726 331.596 270.363 331.784 266.976C331.83 264.918 331.982 262.864 332.239 260.822C334.11 249.196 345.604 241.41 349.336 230.241C349.692 229.174 349.86 227.754 348.911 227.15C348.348 226.882 347.71 226.815 347.104 226.961L338.87 227.999C337.848 228.128 336.764 228.248 335.825 227.824C334.886 227.399 334.212 226.211 334.711 225.308C336.109 222.776 333.233 219.575 331.955 216.979C328.513 209.989 324.415 203.343 319.715 197.129C319.414 196.809 319.226 196.4 319.178 195.964L321.515 196.042C320.726 193.211 319.424 190.114 316.675 189.079C315.125 188.495 313.409 188.697 311.756 188.787C307.021 189.046 301.944 188.331 297.258 187.606Z" fill="#3F3D56"/>
<path d="M311.76 123.824C312.999 125.14 314.387 126.535 316.18 126.764C319.347 127.169 321.624 123.895 323.073 121.05C323.127 121.775 323.461 122.451 324.005 122.933C324.549 123.416 325.26 123.667 325.987 123.633C326.768 123.502 327.514 123.21 328.178 122.776C334.452 119.348 341.479 117.531 348.629 117.49C348.56 116.948 348.695 116.4 349.006 115.952C349.318 115.503 349.784 115.186 350.316 115.062C351.769 114.773 353.079 116.03 353.78 117.336C354.481 118.641 354.918 120.155 356.033 121.132C357.147 122.109 359.304 122.066 359.744 120.651C360.166 119.293 358.751 118.134 357.575 117.333C356.399 116.532 355.16 115.05 355.952 113.868C361.959 112.538 368.003 111.203 374.15 110.939C375.197 110.975 376.24 110.796 377.214 110.411C378.151 109.951 378.896 108.907 378.644 107.894C377.303 108.209 375.898 108.118 374.609 107.631C373.319 107.145 372.204 106.286 371.405 105.163C379.934 104.459 389.006 103.859 396.565 107.873C397.472 109.82 392.849 111.44 394.086 113.196C394.481 113.757 395.271 113.822 395.956 113.835C401.209 113.932 406.492 114.028 411.686 113.235C413.584 112.945 415.501 112.536 417.406 112.771C420.58 113.163 423.295 115.28 426.417 115.971C427.688 116.252 429.113 116.261 430.184 115.522C431.256 114.783 431.716 113.1 430.838 112.139C433.778 109.257 438.657 109.972 442.536 111.351C446.414 112.731 450.089 114.955 454.194 115.263C457.137 115.483 460.122 114.691 463.031 115.195C464.858 115.511 466.56 116.324 468.346 116.824C471.725 117.768 475.299 117.569 478.807 117.614C487.758 117.735 496.611 119.494 504.928 122.805C506.01 123.157 507.001 123.743 507.832 124.52C508.606 125.349 509 126.637 508.48 127.645L499.886 126.389C500.696 127.983 502.791 128.254 504.492 128.804C506.193 129.354 507.957 131.233 506.934 132.7C505.091 132.113 503.421 133.956 502.49 135.651C501.559 137.347 500.424 139.378 498.492 139.481C496.762 139.574 494.67 138.101 493.543 139.416C495.101 141.381 496.434 143.513 497.52 145.774C498.634 148.094 499.427 151.019 497.922 153.107C497.685 153.479 497.325 153.758 496.905 153.895C495.676 154.206 494.877 152.702 493.995 151.79C492.884 150.641 491.203 150.316 489.699 149.777C488.194 149.238 486.609 148.178 486.491 146.584C486.418 145.592 486.941 144.67 487.327 143.754C487.975 142.209 488.259 140.535 488.156 138.863C488.071 137.517 487.694 136.118 486.728 135.178C485.762 134.238 484.093 133.94 483.056 134.801C482.572 135.202 482.184 135.845 481.556 135.869C480.445 135.911 479.592 133.975 478.699 134.636C478.804 135.34 478.658 136.059 478.286 136.667C475.62 138.985 471.524 138.004 468.087 138.824C466.453 139.291 464.888 139.975 463.434 140.856C462.89 141.088 462.427 141.477 462.104 141.972C461.675 142.806 462.148 143.874 462.904 144.428C463.706 144.92 464.607 145.228 465.543 145.329C469.733 146.122 473.985 147.351 477.293 150.043C480.601 152.734 482.771 157.183 481.724 161.318L473.46 153.422C473.774 156.737 473.952 160.062 473.995 163.395C474.048 164.046 473.959 164.701 473.733 165.314C473.143 166.615 471.547 167.053 470.148 167.34C469.758 167.414 469.389 167.569 469.064 167.796C468.74 168.023 468.466 168.316 468.263 168.656C468.059 168.995 467.93 169.374 467.883 169.768C467.836 170.161 467.874 170.56 467.992 170.938C468.489 172.558 469.728 173.822 470.863 175.08C471.998 176.339 473.115 177.77 473.264 179.458C473.412 181.146 472.139 183.05 470.448 182.932C469.166 182.843 468.215 181.696 467.668 180.533C467.122 179.37 466.796 178.075 465.975 177.087C463.489 174.097 457.904 175.378 455.677 172.19C455.109 172.834 454.715 173.613 454.533 174.452C454.35 175.29 454.386 176.162 454.635 176.984C455.671 176.335 457.09 176.938 457.868 177.88C458.647 178.823 459.014 180.031 459.625 181.09C460.45 182.518 461.763 183.785 461.879 185.43C461.848 186.053 461.859 186.676 461.91 187.297C462.115 188.294 462.957 189.01 463.542 189.844C464.901 191.783 464.834 194.447 463.958 196.647C463.081 198.848 461.507 200.686 459.947 202.469C457.224 205.582 454.444 208.678 451.215 211.263C450.294 212.001 449.31 212.727 448.736 213.758C448.163 214.789 448.133 216.237 449.015 217.022C448.384 217.054 447.252 217.364 446.621 217.395C446.4 214.864 446.351 212.321 446.477 209.783C443.987 208.587 441.306 211.789 441.627 214.533C441.949 217.276 443.933 219.478 445.346 221.852C446.379 223.587 447.147 225.611 446.802 227.602C446.457 229.592 444.68 231.428 442.668 231.253C439.467 230.973 438.128 226.378 434.958 225.852C434.679 225.787 434.385 225.816 434.124 225.935C433.654 226.193 433.572 226.823 433.545 227.359C433.416 229.99 433.303 232.726 434.331 235.151C435.833 238.7 439.715 241.681 438.9 245.447C434.514 243.408 432.233 238.489 431.198 233.764C430.163 229.04 429.99 224.079 428.134 219.612C426.724 221.419 423.762 219.926 422.474 218.03C421.253 216.234 420.502 214.155 419.317 212.334C418.133 210.514 416.318 208.883 414.148 208.783C411.873 208.678 409.9 210.239 408.165 211.714C406.738 212.927 405.273 214.188 404.439 215.865C403.225 218.305 403.543 221.182 403.484 223.906C403.421 226.852 402.797 229.96 400.789 232.116C398.781 234.272 395.076 235.023 392.862 233.08C391.706 232.065 391.146 230.549 390.647 229.094C388.244 222.08 386.242 214.935 384.652 207.693C384.28 209.346 382.829 211.476 381.442 210.503C381.131 210.241 380.879 209.916 380.703 209.55C378.116 205.166 373.327 202.537 368.487 200.96C363.648 199.384 358.556 198.649 353.771 196.916C351.089 195.945 348.527 194.669 346.136 193.113C345.527 194.009 345.171 195.052 345.106 196.133C345.042 197.215 345.271 198.293 345.769 199.255C346.831 201.135 349.233 202.222 351.29 201.565C352.352 201.226 353.25 200.488 354.304 200.124C355.358 199.759 356.774 199.938 357.235 200.954C357.676 201.926 357.009 203.103 357.34 204.118C357.844 205.664 360.176 205.783 360.991 207.19C361.598 208.237 361.099 209.627 360.233 210.472C359.366 211.317 358.21 211.78 357.153 212.368C353.722 214.276 351.282 217.534 348.283 220.068C345.284 222.602 341.053 224.452 337.479 222.827C338.331 218.513 333.193 215.346 332.247 211.052C331.936 209.638 332.097 208.137 331.653 206.76C331.01 204.765 329.241 203.394 327.789 201.883C326.029 200.03 324.657 197.843 323.756 195.452C322.854 193.06 322.441 190.512 322.54 187.958C322.618 186.183 322.944 184.38 322.54 182.65C322.136 180.92 320.703 179.246 318.929 179.324C314.875 179.503 309.769 179.805 307.642 176.349C306.883 175.116 306.553 173.31 307.65 172.365C308.424 171.699 309.567 171.761 310.584 171.861L319.717 172.76C321.853 172.97 324.162 173.143 325.995 172.027C327.828 170.91 328.622 167.946 326.925 166.632C325.685 165.672 323.463 165.724 323.102 164.198C322.802 162.926 324.209 161.484 323.449 160.422C322.904 159.66 321.679 159.871 320.937 160.442C320.195 161.013 319.656 161.848 318.825 162.281C317.368 163.039 315.627 162.317 314.059 161.827C312.491 161.336 310.389 161.295 309.628 162.751C308.778 164.38 310.383 166.514 309.539 168.146C308.423 170.303 304.643 169.075 303.076 170.931C301.277 173.061 304.3 176.236 303.693 178.957C302.919 179.34 302.058 179.517 301.196 179.468C300.333 179.42 299.497 179.148 298.771 178.68C298.056 178.194 297.487 177.524 297.123 176.74C296.759 175.956 296.615 175.088 296.705 174.229C296.855 173.005 297.493 171.756 297.065 170.599C296.72 169.664 295.781 169.107 294.908 168.625L286.033 163.721C285.209 165.249 286.251 167.144 287.554 168.292C288.856 169.44 290.488 170.305 291.344 171.816C291.886 172.863 292.007 174.077 291.683 175.21C291.36 176.344 290.616 177.311 289.604 177.914C289.477 178.002 289.332 178.061 289.181 178.087C289.029 178.114 288.873 178.107 288.724 178.067C288.582 177.984 288.459 177.874 288.361 177.742C288.263 177.61 288.192 177.46 288.153 177.3C286.587 173.293 284.236 169.342 280.477 167.248C276.719 165.155 271.317 165.585 268.853 169.112C268.267 169.949 267.874 170.904 267.364 171.79C264.654 176.495 258.845 178.722 253.418 178.577C252.887 178.606 252.359 178.482 251.897 178.219C251.019 177.614 251.059 176.328 251.193 175.271L251.763 170.783C251.877 169.881 252.043 168.885 252.756 168.323C253.762 167.53 255.212 168.03 256.493 168.012C257.463 167.966 258.395 167.624 259.164 167.03C259.933 166.437 260.501 165.622 260.791 164.695C261.049 163.759 261.048 162.77 260.786 161.835C260.524 160.9 260.012 160.054 259.305 159.388C258.718 158.837 257.93 158.144 258.24 157.401C258.364 157.196 258.531 157.02 258.73 156.886C258.929 156.752 259.155 156.663 259.392 156.626C261.692 155.958 264.122 155.783 266.384 154.995C268.646 154.207 270.839 152.594 271.374 150.26C271.539 149.545 271.613 148.678 272.256 148.323C272.578 148.187 272.925 148.116 273.275 148.115C274.501 147.941 275.617 147.314 276.404 146.357C277.191 145.401 277.591 144.185 277.526 142.948C278.61 142.19 280.129 142.748 281.177 143.553C282.226 144.359 283.152 145.423 284.428 145.77C286.805 146.417 289.103 144.312 291.567 144.302C292.604 144.298 293.676 144.665 294.651 144.313C295.64 143.957 296.23 142.973 296.988 142.246C297.747 141.52 299.078 141.076 299.778 141.859L299.182 137.441C300.383 137.745 301.635 137.788 302.854 137.567C304.073 137.347 305.231 136.868 306.25 136.163L298.542 133.559C298.273 133.492 298.026 133.359 297.821 133.173C297.26 132.57 297.817 131.63 298.273 130.944C299.363 129.303 299.546 126.599 297.753 125.782C296.529 125.225 295.125 125.894 293.95 126.549L288.324 129.686C288.145 130.755 289.453 131.362 290.264 132.082C290.754 132.518 291.101 133.092 291.259 133.728C291.417 134.365 291.379 135.035 291.15 135.649C290.92 136.264 290.51 136.795 289.974 137.172C289.437 137.55 288.799 137.756 288.143 137.764C288.514 138.245 288.771 138.804 288.896 139.399C289.021 139.994 289.011 140.609 288.867 141.199L285.081 141.471C284.656 141.557 284.215 141.471 283.853 141.232C283.449 140.872 283.503 140.242 283.41 139.709C283.183 138.421 281.923 137.519 280.636 137.288C279.35 137.057 278.034 137.353 276.76 137.646C276.22 137.841 275.626 137.827 275.094 137.607C274.79 137.41 274.558 137.117 274.435 136.776C273.877 135.422 274.399 133.83 275.296 132.672C276.193 131.514 277.42 130.668 278.523 129.704C281.16 127.39 283.097 124.385 284.116 121.029C286.2 120.156 288.357 118.969 290.441 118.096C293.654 116.469 297.257 115.771 300.845 116.08L307.902 116.215C309.992 116.255 312.138 116.306 314.07 117.103C316.002 117.899 317.699 119.622 317.833 121.708C317.873 121.944 317.853 122.186 317.773 122.412C317.694 122.638 317.559 122.841 317.38 123C317.107 123.149 316.798 123.219 316.488 123.201C314.539 123.27 313.708 123.755 311.76 123.824Z" fill="#3F3D56"/>
<path d="M255.508 145.942C255.784 145.681 255.983 145.349 256.082 144.982C256.181 144.616 256.178 144.229 256.072 143.865C255.401 143.606 254.671 143.539 253.964 143.673C253.257 143.806 252.602 144.134 252.072 144.62C251.654 145.043 251.293 145.519 251 146.037C250.073 147.549 249.253 149.357 249.79 151.048C249.834 151.232 249.914 151.406 250.026 151.559C250.138 151.712 250.279 151.841 250.442 151.939C250.682 152.036 250.942 152.076 251.201 152.058C252.223 152.057 253.243 151.994 254.257 151.87C254.88 151.794 255.603 151.618 255.844 151.039C256.16 150.277 255.395 149.415 255.618 148.621C255.765 148.266 255.987 147.947 256.27 147.687C256.41 147.556 256.518 147.394 256.585 147.214C256.652 147.034 256.675 146.841 256.655 146.651C256.564 146.278 255.994 146.067 255.789 146.39" fill="#3F3D56"/>
<path d="M260.806 139.073C259.898 138.865 258.963 138.806 258.036 138.9C257.831 138.893 257.628 138.94 257.446 139.034C257.269 139.164 257.141 139.349 257.082 139.56C256.887 140.188 256.935 140.867 257.217 141.461C257.499 142.055 257.995 142.521 258.606 142.767C258.938 142.843 259.257 142.971 259.55 143.146C260.333 143.754 259.834 144.996 259.982 145.976C260.149 147.077 261.214 148.001 261.019 149.097C260.865 149.961 259.943 150.644 260.091 151.509C260.247 152.414 261.396 152.686 262.311 152.759C262.842 152.851 263.388 152.789 263.884 152.578C264.381 152.238 264.735 151.726 264.877 151.141C265.252 150.025 265.409 148.848 265.341 147.672C265.337 147.138 265.203 146.612 264.95 146.142C264.674 145.768 264.368 145.418 264.036 145.095C262.281 143.054 264.129 140.01 260.806 139.073Z" fill="#3F3D56"/>
<path opacity="0.8" d="M491.52 298.946C491.52 298.946 357.142 221.811 299.291 236.426C299.291 236.426 176.687 249.62 162.478 278.647C162.478 278.647 123.504 156.855 109.295 152.795" stroke="#3D4F91" stroke-width="0.983725" stroke-miterlimit="10"/>
<path opacity="0.8" d="M162.478 278.648C185.009 218.563 387.996 151.984 387.996 151.984C359.172 159.291 299.291 236.426 299.291 236.426C299.291 236.426 172.627 144.27 109.295 152.795C109.295 152.795 388.199 161.93 491.52 298.946" stroke="#3D4F91" stroke-width="0.983725" stroke-miterlimit="10"/>
<path d="M109.294 158.682C112.545 158.682 115.18 156.047 115.18 152.795C115.18 149.544 112.545 146.909 109.294 146.909C106.043 146.909 103.407 149.544 103.407 152.795C103.407 156.047 106.043 158.682 109.294 158.682Z" fill="#3D4F91"/>
<path d="M162.477 284.534C165.729 284.534 168.364 281.899 168.364 278.648C168.364 275.396 165.729 272.761 162.477 272.761C159.226 272.761 156.591 275.396 156.591 278.648C156.591 281.899 159.226 284.534 162.477 284.534Z" fill="#3D4F91"/>
<path d="M387.997 157.87C391.248 157.87 393.884 155.235 393.884 151.983C393.884 148.732 391.248 146.097 387.997 146.097C384.746 146.097 382.11 148.732 382.11 151.983C382.11 155.235 384.746 157.87 387.997 157.87Z" fill="#3D4F91"/>
<path d="M491.519 304.833C494.771 304.833 497.406 302.197 497.406 298.946C497.406 295.695 494.771 293.06 491.519 293.06C488.268 293.06 485.633 295.695 485.633 298.946C485.633 302.197 488.268 304.833 491.519 304.833Z" fill="#3D4F91"/>
<path d="M299.291 242.313C302.542 242.313 305.178 239.677 305.178 236.426C305.178 233.175 302.542 230.54 299.291 230.54C296.04 230.54 293.404 233.175 293.404 236.426C293.404 239.677 296.04 242.313 299.291 242.313Z" fill="#3D4F91"/>
</g>
<defs>
<filter id="filter0_di" x="0.186304" y="0" width="586.356" height="437.505" filterUnits="userSpaceOnUse" color-interpolation-filters="sRGB">
<feFlood flood-opacity="0" result="BackgroundImageFix"/>
<feColorMatrix in="SourceAlpha" type="matrix" values="0 0 0 0 0 0 0 0 0 0 0 0 0 0 0 0 0 0 127 0"/>
<feOffset dy="3.8137"/>
<feGaussianBlur stdDeviation="1.90685"/>
<feColorMatrix type="matrix" values="0 0 0 0 0 0 0 0 0 0 0 0 0 0 0 0 0 0 0.25 0"/>
<feBlend mode="normal" in2="BackgroundImageFix" result="effect1_dropShadow"/>
<feBlend mode="normal" in="SourceGraphic" in2="effect1_dropShadow" result="shape"/>
<feColorMatrix in="SourceAlpha" type="matrix" values="0 0 0 0 0 0 0 0 0 0 0 0 0 0 0 0 0 0 127 0" result="hardAlpha"/>
<feOffset dy="3.8137"/>
<feGaussianBlur stdDeviation="1.90685"/>
<feComposite in2="hardAlpha" operator="arithmetic" k2="-1" k3="1"/>
<feColorMatrix type="matrix" values="0 0 0 0 0 0 0 0 0 0 0 0 0 0 0 0 0 0 0.25 0"/>
<feBlend mode="normal" in2="shape" result="effect2_innerShadow"/>
</filter>
<clipPath id="clip0">
<rect width="578.728" height="429.877" fill="white" transform="translate(4)"/>
</clipPath>
</defs>
</svg>
