<svg width="19" height="21" viewBox="0 0 19 21" fill="none" xmlns="http://www.w3.org/2000/svg">
<path d="M8.5211 1.55364C8.78334 0.418509 10.3998 0.418506 10.662 1.55364L11.5924 5.5809C11.7357 6.20137 12.3749 6.57039 12.9839 6.38429L16.9368 5.17641C18.051 4.83595 18.8592 6.23582 18.0073 7.03049L14.9848 9.84987C14.5191 10.2842 14.5191 11.0223 14.9848 11.4567L18.0073 14.276C18.8592 15.0707 18.051 16.4706 16.9368 16.1301L12.9839 14.9222C12.3749 14.7361 11.7357 15.1052 11.5924 15.7256L10.662 19.7529C10.3998 20.888 8.78334 20.888 8.5211 19.7529L7.5907 15.7256C7.44736 15.1052 6.8082 14.7361 6.19919 14.9222L2.24628 16.1301C1.13211 16.4706 0.323889 15.0707 1.17582 14.276L4.19833 11.4567C4.66401 11.0223 4.66401 10.2842 4.19834 9.84987L1.17582 7.03049C0.32389 6.23582 1.1321 4.83595 2.24628 5.17641L6.19919 6.38429C6.8082 6.57039 7.44736 6.20137 7.5907 5.5809L8.5211 1.55364Z" fill="#D97070"/>
</svg>
