<svg width="56" height="56" viewBox="0 0 56 56" fill="none" xmlns="http://www.w3.org/2000/svg">
<g filter="url(#filter0_di)">
<path d="M10 45H8.5C7.70435 45 6.94129 44.6839 6.37868 44.1213C5.81607 43.5587 5.5 42.7957 5.5 42V10.5C5.5 9.70435 5.81607 8.94129 6.37868 8.37868C6.94129 7.81607 7.70435 7.5 8.5 7.5H10C10.7956 7.5 11.5587 7.81607 12.1213 8.37868C12.6839 8.94129 13 9.70435 13 10.5V42C13 42.7957 12.6839 43.5587 12.1213 44.1213C11.5587 44.6839 10.7956 45 10 45ZM26.5 16.5C26.5 15.7044 26.1839 14.9413 25.6213 14.3787C25.0587 13.8161 24.2956 13.5 23.5 13.5H17.5C16.7044 13.5 15.9413 13.8161 15.3787 14.3787C14.8161 14.9413 14.5 15.7044 14.5 16.5V19.125C14.5 19.2245 14.5395 19.3198 14.6098 19.3902C14.6802 19.4605 14.7755 19.5 14.875 19.5H26.125C26.2245 19.5 26.3198 19.4605 26.3902 19.3902C26.4605 19.3198 26.5 19.2245 26.5 19.125V16.5ZM14.5 42C14.5 42.7957 14.8161 43.5587 15.3787 44.1213C15.9413 44.6839 16.7044 45 17.5 45H23.5C24.2956 45 25.0587 44.6839 25.6213 44.1213C26.1839 43.5587 26.5 42.7957 26.5 42V39.1875C26.5 39.1378 26.4802 39.0901 26.4451 39.0549C26.4099 39.0198 26.3622 39 26.3125 39H14.6875C14.6378 39 14.5901 39.0198 14.5549 39.0549C14.5198 39.0901 14.5 39.1378 14.5 39.1875V42Z" fill="#F7FAFB"/>
<path d="M26.3125 22.5H14.6875C14.5839 22.5 14.5 22.5839 14.5 22.6875V35.8125C14.5 35.9161 14.5839 36 14.6875 36H26.3125C26.4161 36 26.5 35.9161 26.5 35.8125V22.6875C26.5 22.5839 26.4161 22.5 26.3125 22.5Z" fill="#F7FAFB"/>
<path d="M34 45H31C30.2044 45 29.4413 44.6839 28.8787 44.1213C28.3161 43.5587 28 42.7957 28 42V6C28 5.20435 28.3161 4.44129 28.8787 3.87868C29.4413 3.31607 30.2044 3 31 3H34C34.7956 3 35.5587 3.31607 36.1213 3.87868C36.6839 4.44129 37 5.20435 37 6V42C37 42.7957 36.6839 43.5587 36.1213 44.1213C35.5587 44.6839 34.7956 45 34 45ZM50.4897 41.7609L47.4681 9.88594C47.3294 8.41875 45.88 7.35469 44.2309 7.51312L41.245 7.79437C39.5959 7.95094 38.3716 9.26719 38.5103 10.7344L41.5319 42.6094C41.6706 44.0766 43.12 45.1406 44.7691 44.9822L47.755 44.7009C49.4041 44.5444 50.6284 43.2281 50.4897 41.7609Z" fill="#F7FAFB"/>
</g>
<defs>
<filter id="filter0_di" x="0" y="0" width="56" height="56" filterUnits="userSpaceOnUse" color-interpolation-filters="sRGB">
<feFlood flood-opacity="0" result="BackgroundImageFix"/>
<feColorMatrix in="SourceAlpha" type="matrix" values="0 0 0 0 0 0 0 0 0 0 0 0 0 0 0 0 0 0 127 0"/>
<feOffset dy="4"/>
<feGaussianBlur stdDeviation="2"/>
<feColorMatrix type="matrix" values="0 0 0 0 0 0 0 0 0 0 0 0 0 0 0 0 0 0 0.25 0"/>
<feBlend mode="normal" in2="BackgroundImageFix" result="effect1_dropShadow"/>
<feBlend mode="normal" in="SourceGraphic" in2="effect1_dropShadow" result="shape"/>
<feColorMatrix in="SourceAlpha" type="matrix" values="0 0 0 0 0 0 0 0 0 0 0 0 0 0 0 0 0 0 127 0" result="hardAlpha"/>
<feOffset dy="4"/>
<feGaussianBlur stdDeviation="2"/>
<feComposite in2="hardAlpha" operator="arithmetic" k2="-1" k3="1"/>
<feColorMatrix type="matrix" values="0 0 0 0 0 0 0 0 0 0 0 0 0 0 0 0 0 0 0.25 0"/>
<feBlend mode="normal" in2="shape" result="effect2_innerShadow"/>
</filter>
</defs>
</svg>
