<svg width="36" height="29" viewBox="0 0 36 29" fill="none" xmlns="http://www.w3.org/2000/svg">
<path d="M35.1203 3.43846C33.8091 4.0082 32.4217 4.38355 31.0021 4.55266C32.494 3.67906 33.616 2.29118 34.1575 0.649339C32.747 1.47413 31.2064 2.05284 29.6017 2.36068C28.926 1.6525 28.1133 1.08912 27.2131 0.70479C26.3128 0.320459 25.3439 0.123203 24.365 0.125012C20.402 0.125012 17.1949 3.28554 17.1949 7.18157C17.192 7.7235 17.2541 8.26381 17.3798 8.79097C14.538 8.65774 11.7553 7.9328 9.20978 6.66253C6.66422 5.39226 4.41183 3.60462 2.59673 1.41398C1.95994 2.48748 1.62318 3.71231 1.62162 4.96047C1.62162 7.40732 2.89821 9.57017 4.82584 10.8373C3.68378 10.8102 2.56511 10.5079 1.56482 9.95613V10.0435C1.56482 13.4662 4.04081 16.3136 7.31785 16.9617C6.70161 17.126 6.06658 17.2092 5.42882 17.2093C4.97628 17.2101 4.52477 17.1662 4.08086 17.0782C4.99188 19.8819 7.64337 21.921 10.7842 21.9792C8.23206 23.9461 5.09865 25.0092 1.8765 25.0014C1.30457 25.0005 0.733157 24.9665 0.165161 24.8994C3.44306 26.9925 7.25336 28.0997 11.1425 28.0891C24.3497 28.0891 31.565 17.3331 31.565 8.00447C31.565 7.69862 31.557 7.39276 31.5425 7.09419C32.9429 6.09801 34.1545 4.86005 35.1203 3.43846Z" fill="#3B3F4C"/>
</svg>
