<svg width="37" height="37" viewBox="0 0 37 37" fill="none" xmlns="http://www.w3.org/2000/svg">
<path d="M18.5 0.21875C8.41982 0.21875 0.21875 8.41982 0.21875 18.5C0.21875 28.5802 8.41982 36.7812 18.5 36.7812C28.5802 36.7812 36.7812 28.5802 36.7812 18.5C36.7812 8.41982 28.5802 0.21875 18.5 0.21875ZM25.5312 19.9062H11.4688C11.0958 19.9062 10.7381 19.7581 10.4744 19.4944C10.2107 19.2306 10.0625 18.873 10.0625 18.5C10.0625 18.127 10.2107 17.7694 10.4744 17.5056C10.7381 17.2419 11.0958 17.0938 11.4688 17.0938H25.5312C25.9042 17.0938 26.2619 17.2419 26.5256 17.5056C26.7893 17.7694 26.9375 18.127 26.9375 18.5C26.9375 18.873 26.7893 19.2306 26.5256 19.4944C26.2619 19.7581 25.9042 19.9062 25.5312 19.9062Z" fill="#C17979"/>
</svg>
